G04 start of page 9 for group -4062 idx -4062 *
G04 Title: v2_0, soldermask *
G04 Creator: pcb 4.2.0 *
G04 CreationDate: Tue Sep 24 08:28:18 2019 UTC *
G04 For: user *
G04 Format: Gerber/RS-274X *
G04 PCB-Dimensions (mm): 140.00 90.00 *
G04 PCB-Coordinate-Origin: lower left *
%MOMM*%
%FSLAX43Y43*%
%LNGBS*%
%ADD137C,1.950*%
%ADD136C,1.100*%
%ADD135C,5.750*%
%ADD134C,2.152*%
%ADD133C,2.102*%
%ADD132C,1.302*%
%ADD131C,1.952*%
%ADD130C,1.552*%
%ADD129C,1.826*%
%ADD128C,0.002*%
%ADD127C,0.852*%
%ADD126C,1.652*%
%ADD125C,1.852*%
G54D125*X103700Y63300D03*
Y60750D03*
Y58200D03*
Y55700D03*
Y53150D03*
Y50600D03*
G54D126*X85300Y67400D03*
X83300D03*
X81300D03*
G54D127*X87400D03*
G54D128*G36*
X92387Y70113D02*Y68287D01*
X94213D01*
Y70113D01*
X92387D01*
G37*
G54D129*X90760Y69200D03*
G54D127*X79200Y67400D03*
G54D130*X22600Y68800D03*
Y67700D03*
X23800Y68800D03*
Y67700D03*
X20200Y68800D03*
Y67700D03*
X21400Y68800D03*
Y67700D03*
X20200Y63300D03*
Y62200D03*
X21400Y63300D03*
X22600D03*
X23800D03*
X21400Y62200D03*
X22600D03*
X23800D03*
G54D125*X30200Y50600D03*
Y48050D03*
Y45500D03*
Y43000D03*
X103700Y48050D03*
Y45500D03*
X85200Y35100D03*
G54D131*Y27500D03*
G54D132*X88550Y28000D03*
X93450D03*
G54D125*X103700Y43000D03*
Y40450D03*
Y37900D03*
Y35350D03*
Y32800D03*
Y30250D03*
G54D133*X78700Y26100D03*
G54D134*X87350Y25300D03*
X94650D03*
G54D133*X73700Y26100D03*
G54D125*X107500Y35000D03*
Y37550D03*
Y40100D03*
Y32500D03*
Y29950D03*
G54D130*X23800Y26200D03*
Y27300D03*
X22600Y26200D03*
Y27300D03*
X21400Y26200D03*
Y27300D03*
X20200Y26200D03*
Y27300D03*
X23800Y31700D03*
Y32800D03*
X22600Y31700D03*
Y32800D03*
X21400Y31700D03*
Y32800D03*
X20200Y31700D03*
Y32800D03*
G54D135*X31500Y65000D03*
X99000Y28500D03*
X31500D03*
X99000Y65000D03*
G54D128*G36*
X101179Y38229D02*X100621D01*
Y37571D01*
X101179D01*
Y38229D01*
G37*
G36*
Y37229D02*X100621D01*
Y36571D01*
X101179D01*
Y37229D01*
G37*
G36*
X101250Y48250D02*X100250D01*
Y47150D01*
X101250D01*
Y48250D01*
G37*
G36*
X99750D02*X98750D01*
Y47150D01*
X99750D01*
Y48250D01*
G37*
G36*
X101250Y49950D02*X100250D01*
Y48850D01*
X101250D01*
Y49950D01*
G37*
G36*
X99750D02*X98750D01*
Y48850D01*
X99750D01*
Y49950D01*
G37*
G36*
X88196Y38254D02*Y37746D01*
X88804D01*
Y38254D01*
X88196D01*
G37*
G36*
X87371Y39279D02*Y38721D01*
X88029D01*
Y39279D01*
X87371D01*
G37*
G36*
X87950Y48250D02*X86550D01*
Y46550D01*
X87950D01*
Y48250D01*
G37*
G36*
X86371Y39279D02*Y38721D01*
X87029D01*
Y39279D01*
X86371D01*
G37*
G36*
X87371Y40279D02*Y39721D01*
X88029D01*
Y40279D01*
X87371D01*
G37*
G36*
X89579Y42629D02*X89021D01*
Y41971D01*
X89579D01*
Y42629D01*
G37*
G36*
X89554Y41604D02*X89046D01*
Y40996D01*
X89554D01*
Y41604D01*
G37*
G36*
X86371Y40279D02*Y39721D01*
X87029D01*
Y40279D01*
X86371D01*
G37*
G36*
X94079Y35129D02*X93521D01*
Y34471D01*
X94079D01*
Y35129D01*
G37*
G36*
Y36129D02*X93521D01*
Y35471D01*
X94079D01*
Y36129D01*
G37*
G36*
X93971Y39379D02*Y38821D01*
X94629D01*
Y39379D01*
X93971D01*
G37*
G36*
X95150Y33450D02*X94150D01*
Y32350D01*
X95150D01*
Y33450D01*
G37*
G36*
X96600Y33400D02*X95700D01*
Y32400D01*
X96600D01*
Y33400D01*
G37*
G36*
X93754Y42904D02*X93246D01*
Y42296D01*
X93754D01*
Y42904D01*
G37*
G36*
X93779Y43929D02*X93221D01*
Y43271D01*
X93779D01*
Y43929D01*
G37*
G36*
X89171Y38279D02*Y37721D01*
X89829D01*
Y38279D01*
X89171D01*
G37*
G36*
X90750Y35950D02*X89750D01*
Y34850D01*
X90750D01*
Y35950D01*
G37*
G36*
X92996Y39354D02*Y38846D01*
X93604D01*
Y39354D01*
X92996D01*
G37*
G36*
X91471Y37479D02*Y36921D01*
X92129D01*
Y37479D01*
X91471D01*
G37*
G36*
X92496Y37454D02*Y36946D01*
X93104D01*
Y37454D01*
X92496D01*
G37*
G36*
X92200Y35900D02*X91300D01*
Y34900D01*
X92200D01*
Y35900D01*
G37*
G36*
X90079Y34229D02*X89521D01*
Y33571D01*
X90079D01*
Y34229D01*
G37*
G36*
Y33229D02*X89521D01*
Y32571D01*
X90079D01*
Y33229D01*
G37*
G36*
X92871Y33479D02*Y32921D01*
X93529D01*
Y33479D01*
X92871D01*
G37*
G36*
X91871D02*Y32921D01*
X92529D01*
Y33479D01*
X91871D01*
G37*
G54D136*X88500Y28000D02*X88600D01*
X93400D02*X93500D01*
G54D137*X87300Y25300D02*X87400D01*
X94600D02*X94700D01*
G54D128*G36*
X88379Y43629D02*X87821D01*
Y42971D01*
X88379D01*
Y43629D01*
G37*
G36*
Y42629D02*X87821D01*
Y41971D01*
X88379D01*
Y42629D01*
G37*
G36*
X85550Y42650D02*X84550D01*
Y41550D01*
X85550D01*
Y42650D01*
G37*
G36*
X87050D02*X86050D01*
Y41550D01*
X87050D01*
Y42650D01*
G37*
G36*
X91154Y42604D02*X90646D01*
Y41996D01*
X91154D01*
Y42604D01*
G37*
G36*
X92154Y43604D02*X91646D01*
Y42996D01*
X92154D01*
Y43604D01*
G37*
G36*
X92179Y42629D02*X91621D01*
Y41971D01*
X92179D01*
Y42629D01*
G37*
G36*
X91179Y41629D02*X90621D01*
Y40971D01*
X91179D01*
Y41629D01*
G37*
G36*
X83179Y38129D02*X82621D01*
Y37471D01*
X83179D01*
Y38129D01*
G37*
G36*
Y37129D02*X82621D01*
Y36471D01*
X83179D01*
Y37129D01*
G37*
G36*
X76471Y36379D02*Y35821D01*
X77129D01*
Y36379D01*
X76471D01*
G37*
G36*
X75496Y36354D02*Y35846D01*
X76104D01*
Y36354D01*
X75496D01*
G37*
G36*
X76879Y38529D02*X76321D01*
Y37871D01*
X76879D01*
Y38529D01*
G37*
G36*
Y39529D02*X76321D01*
Y38871D01*
X76879D01*
Y39529D01*
G37*
G36*
X76918Y46441D02*X76559Y46082D01*
X76989Y45652D01*
X77348Y46011D01*
X76918Y46441D01*
G37*
G36*
X76211Y47183D02*X75817Y46789D01*
X76282Y46324D01*
X76676Y46718D01*
X76211Y47183D01*
G37*
G36*
X76439Y47947D02*X76119Y48404D01*
X75580Y48027D01*
X75900Y47570D01*
X76439Y47947D01*
G37*
G36*
X75620Y47373D02*X75300Y47830D01*
X74761Y47453D01*
X75081Y46996D01*
X75620Y47373D01*
G37*
G36*
X75050Y38250D02*X74050D01*
Y37150D01*
X75050D01*
Y38250D01*
G37*
G36*
X75671Y35179D02*Y34621D01*
X76329D01*
Y35179D01*
X75671D01*
G37*
G36*
X76696Y35154D02*Y34646D01*
X77304D01*
Y35154D01*
X76696D01*
G37*
G36*
X73550Y38250D02*X72550D01*
Y37150D01*
X73550D01*
Y38250D01*
G37*
G36*
X72971Y39479D02*Y38921D01*
X73629D01*
Y39479D01*
X72971D01*
G37*
G36*
X71971D02*Y38921D01*
X72629D01*
Y39479D01*
X71971D01*
G37*
G36*
X72750Y41150D02*X71750D01*
Y40050D01*
X72750D01*
Y41150D01*
G37*
G36*
X74250D02*X73250D01*
Y40050D01*
X74250D01*
Y41150D01*
G37*
G36*
X74171Y39479D02*Y38921D01*
X74829D01*
Y39479D01*
X74171D01*
G37*
G36*
X75171D02*Y38921D01*
X75829D01*
Y39479D01*
X75171D01*
G37*
G36*
X74871Y40879D02*Y40321D01*
X75529D01*
Y40879D01*
X74871D01*
G37*
G36*
X75871D02*Y40321D01*
X76529D01*
Y40879D01*
X75871D01*
G37*
G36*
X79671Y33079D02*Y32521D01*
X80329D01*
Y33079D01*
X79671D01*
G37*
G36*
X80769Y41545D02*X80178Y40276D01*
X81719Y39558D01*
X82310Y40827D01*
X80769Y41545D01*
G37*
G36*
X80600Y43100D02*X79700D01*
Y42100D01*
X80600D01*
Y43100D01*
G37*
G36*
X82150Y43150D02*X81150D01*
Y42050D01*
X82150D01*
Y43150D01*
G37*
G36*
X80950Y36950D02*X79950D01*
Y35850D01*
X80950D01*
Y36950D01*
G37*
G36*
X79450D02*X78450D01*
Y35850D01*
X79450D01*
Y36950D01*
G37*
G36*
X78971Y34979D02*Y34421D01*
X79629D01*
Y34979D01*
X78971D01*
G37*
G36*
X77996Y34954D02*Y34446D01*
X78604D01*
Y34954D01*
X77996D01*
G37*
G36*
X77976Y40127D02*X77802Y39142D01*
X78885Y38951D01*
X79059Y39935D01*
X77976Y40127D01*
G37*
G36*
X78056Y41113D02*X77573Y41391D01*
X77244Y40821D01*
X77727Y40543D01*
X78056Y41113D01*
G37*
G36*
X78522Y41969D02*X78082Y42223D01*
X77778Y41697D01*
X78218Y41443D01*
X78522Y41969D01*
G37*
G36*
X77715Y38649D02*X77541Y37665D01*
X78624Y37473D01*
X78798Y38458D01*
X77715Y38649D01*
G37*
G36*
X79881Y39642D02*X79290Y38373D01*
X80831Y37655D01*
X81422Y38924D01*
X79881Y39642D01*
G37*
G36*
X78696Y33054D02*Y32546D01*
X79304D01*
Y33054D01*
X78696D01*
G37*
G36*
X77496Y33454D02*Y32946D01*
X78104D01*
Y33454D01*
X77496D01*
G37*
G36*
X76471Y33479D02*Y32921D01*
X77129D01*
Y33479D01*
X76471D01*
G37*
G36*
X71525Y52125D02*X70275D01*
Y50775D01*
X71525D01*
Y52125D01*
G37*
G36*
X73325D02*X72075D01*
Y50775D01*
X73325D01*
Y52125D01*
G37*
G36*
X93150Y52150D02*Y50750D01*
X94850D01*
Y52150D01*
X93150D01*
G37*
G36*
X93200Y54200D02*Y52900D01*
X94800D01*
Y54200D01*
X93200D01*
G37*
G36*
X90950Y52150D02*Y50750D01*
X92650D01*
Y52150D01*
X90950D01*
G37*
G36*
X91000Y54200D02*Y52900D01*
X92600D01*
Y54200D01*
X91000D01*
G37*
G36*
X89771Y44479D02*Y43921D01*
X90429D01*
Y44479D01*
X89771D01*
G37*
G36*
X90750Y49850D02*X89750D01*
Y48750D01*
X90750D01*
Y49850D01*
G37*
G36*
X89250D02*X88250D01*
Y48750D01*
X89250D01*
Y49850D01*
G37*
G36*
X90796Y44454D02*Y43946D01*
X91404D01*
Y44454D01*
X90796D01*
G37*
G36*
X85350Y51750D02*Y50350D01*
X87050D01*
Y51750D01*
X85350D01*
G37*
G36*
X85400Y53800D02*Y52500D01*
X87000D01*
Y53800D01*
X85400D01*
G37*
G36*
X87550Y51750D02*Y50350D01*
X89250D01*
Y51750D01*
X87550D01*
G37*
G36*
X87600Y53800D02*Y52500D01*
X89200D01*
Y53800D01*
X87600D01*
G37*
G36*
X85850Y48250D02*X84450D01*
Y46550D01*
X85850D01*
Y48250D01*
G37*
G36*
X61471Y40779D02*Y40221D01*
X62129D01*
Y40779D01*
X61471D01*
G37*
G36*
X58950Y39350D02*Y38350D01*
X60050D01*
Y39350D01*
X58950D01*
G37*
G36*
X59000Y37800D02*Y36900D01*
X60000D01*
Y37800D01*
X59000D01*
G37*
G36*
X60473Y40345D02*X60329Y40884D01*
X59693Y40714D01*
X59837Y40175D01*
X60473Y40345D01*
G37*
G36*
X59507Y40086D02*X59363Y40625D01*
X58727Y40455D01*
X58871Y39916D01*
X59507Y40086D01*
G37*
G36*
X62379Y39729D02*X61821D01*
Y39071D01*
X62379D01*
Y39729D01*
G37*
G36*
X62354Y38704D02*X61846D01*
Y38096D01*
X62354D01*
Y38704D01*
G37*
G36*
X61296Y35754D02*Y35246D01*
X61904D01*
Y35754D01*
X61296D01*
G37*
G36*
X60271Y35779D02*Y35221D01*
X60929D01*
Y35779D01*
X60271D01*
G37*
G36*
X65011Y34848D02*X64652Y34489D01*
X65082Y34059D01*
X65441Y34418D01*
X65011Y34848D01*
G37*
G36*
X65718Y34176D02*X65324Y33782D01*
X65789Y33317D01*
X66183Y33711D01*
X65718Y34176D01*
G37*
G36*
X63379Y33929D02*X62821D01*
Y33271D01*
X63379D01*
Y33929D01*
G37*
G36*
X66700Y31400D02*X65800D01*
Y30400D01*
X66700D01*
Y31400D01*
G37*
G36*
X65250Y31450D02*X64250D01*
Y30350D01*
X65250D01*
Y31450D01*
G37*
G36*
X63027Y30891D02*X62544Y30613D01*
X62873Y30043D01*
X63356Y30321D01*
X63027Y30891D01*
G37*
G36*
X62527Y31757D02*X62044Y31479D01*
X62373Y30909D01*
X62856Y31187D01*
X62527Y31757D01*
G37*
G36*
X64714Y32619D02*X64356Y33047D01*
X63852Y32624D01*
X64210Y32196D01*
X64714Y32619D01*
G37*
G36*
X63948Y31976D02*X63590Y32404D01*
X63086Y31981D01*
X63444Y31553D01*
X63948Y31976D01*
G37*
G36*
X59479Y33629D02*X58921D01*
Y32971D01*
X59479D01*
Y33629D01*
G37*
G36*
X59963Y32075D02*X59727Y32580D01*
X59131Y32303D01*
X59366Y31797D01*
X59963Y32075D01*
G37*
G36*
X60869Y32497D02*X60634Y33003D01*
X60037Y32725D01*
X60273Y32220D01*
X60869Y32497D01*
G37*
G36*
X59479Y34629D02*X58921D01*
Y33971D01*
X59479D01*
Y34629D01*
G37*
G36*
X55825Y42325D02*X54775D01*
Y26675D01*
X55825D01*
Y42325D01*
G37*
G36*
X57779Y32729D02*X57221D01*
Y32071D01*
X57779D01*
Y32729D01*
G37*
G36*
Y31729D02*X57221D01*
Y31071D01*
X57779D01*
Y31729D01*
G37*
G36*
X61018Y33945D02*X60974Y33439D01*
X61579Y33386D01*
X61623Y33892D01*
X61018Y33945D01*
G37*
G36*
X61971Y25779D02*Y25221D01*
X62629D01*
Y25779D01*
X61971D01*
G37*
G36*
X60971D02*Y25221D01*
X61629D01*
Y25779D01*
X60971D01*
G37*
G36*
X61971Y26879D02*Y26321D01*
X62629D01*
Y26879D01*
X61971D01*
G37*
G36*
X60971D02*Y26321D01*
X61629D01*
Y26879D01*
X60971D01*
G37*
G36*
X59999Y34059D02*X59950Y33503D01*
X60606Y33446D01*
X60654Y34002D01*
X59999Y34059D01*
G37*
G36*
X60254Y30404D02*X59746D01*
Y29796D01*
X60254D01*
Y30404D01*
G37*
G36*
X60279Y31429D02*X59721D01*
Y30771D01*
X60279D01*
Y31429D01*
G37*
G36*
X51378Y32170D02*X51164Y31709D01*
X51715Y31453D01*
X51930Y31913D01*
X51378Y32170D01*
G37*
G36*
X52273Y31780D02*X52037Y31275D01*
X52634Y30997D01*
X52869Y31503D01*
X52273Y31780D01*
G37*
G36*
X42354Y33004D02*X41846D01*
Y32396D01*
X42354D01*
Y33004D01*
G37*
G36*
X42379Y32029D02*X41821D01*
Y31371D01*
X42379D01*
Y32029D01*
G37*
G36*
X43454Y32304D02*X42946D01*
Y31696D01*
X43454D01*
Y32304D01*
G37*
G36*
X43479Y31329D02*X42921D01*
Y30671D01*
X43479D01*
Y31329D01*
G37*
G36*
X44591Y32387D02*X44141Y31607D01*
X45007Y31107D01*
X45457Y31887D01*
X44591Y32387D01*
G37*
G36*
X45323Y33754D02*X44823Y32888D01*
X45775Y32338D01*
X46275Y33204D01*
X45323Y33754D01*
G37*
G36*
X50996Y33154D02*Y32646D01*
X51604D01*
Y33154D01*
X50996D01*
G37*
G36*
X49971Y33179D02*Y32621D01*
X50629D01*
Y33179D01*
X49971D01*
G37*
G36*
X49750Y34750D02*Y33750D01*
X50850D01*
Y34750D01*
X49750D01*
G37*
G36*
X53750Y34550D02*X53750Y35550D01*
X52650Y35550D01*
X52650Y34550D01*
X53750Y34550D01*
G37*
G36*
X52700Y34000D02*Y33100D01*
X53700D01*
Y34000D01*
X52700D01*
G37*
G36*
X49750Y36250D02*Y35250D01*
X50850D01*
Y36250D01*
X49750D01*
G37*
G36*
X53954Y31004D02*X53446D01*
Y30396D01*
X53954D01*
Y31004D01*
G37*
G36*
X53979Y32029D02*X53421D01*
Y31371D01*
X53979D01*
Y32029D01*
G37*
G36*
X39175Y27725D02*Y26675D01*
X55825D01*
Y27725D01*
X39175D01*
G37*
G36*
X40225Y42325D02*X39175D01*
Y26675D01*
X40225D01*
Y42325D01*
G37*
G36*
X41350Y35250D02*Y34250D01*
X42450D01*
Y35250D01*
X41350D01*
G37*
G36*
X43700Y30000D02*X42400D01*
Y28400D01*
X43700D01*
Y30000D01*
G37*
G36*
X41350Y36750D02*Y35750D01*
X42450D01*
Y36750D01*
X41350D01*
G37*
G36*
X43679Y37329D02*X43121D01*
Y36671D01*
X43679D01*
Y37329D01*
G37*
G36*
Y36329D02*X43121D01*
Y35671D01*
X43679D01*
Y36329D01*
G37*
G36*
X44173Y38605D02*X43466Y39312D01*
X42688Y38534D01*
X43395Y37827D01*
X44173Y38605D01*
G37*
G36*
X43041Y39666D02*X42405Y40302D01*
X41698Y39595D01*
X42334Y38959D01*
X43041Y39666D01*
G37*
G36*
X46696Y38154D02*Y37646D01*
X47304D01*
Y38154D01*
X46696D01*
G37*
G36*
X45671Y38179D02*Y37621D01*
X46329D01*
Y38179D01*
X45671D01*
G37*
G36*
X45779Y35629D02*X45221D01*
Y34971D01*
X45779D01*
Y35629D01*
G37*
G36*
X45754Y36604D02*X45246D01*
Y35996D01*
X45754D01*
Y36604D01*
G37*
G36*
X49750Y39250D02*Y38250D01*
X50850D01*
Y39250D01*
X49750D01*
G37*
G36*
X45850Y30050D02*X44450D01*
Y28350D01*
X45850D01*
Y30050D01*
G37*
G36*
X49250Y33450D02*X48250D01*
Y32350D01*
X49250D01*
Y33450D01*
G37*
G36*
X47750D02*X46750D01*
Y32350D01*
X47750D01*
Y33450D01*
G37*
G36*
X49520Y29407D02*X48635Y30289D01*
X47682Y29333D01*
X48567Y28450D01*
X49520Y29407D01*
G37*
G36*
X48248Y30676D02*X47365Y31562D01*
X46409Y30609D01*
X47291Y29723D01*
X48248Y30676D01*
G37*
G36*
X49750Y37750D02*Y36750D01*
X50850D01*
Y37750D01*
X49750D01*
G37*
G36*
X52079Y38729D02*X51521D01*
Y38071D01*
X52079D01*
Y38729D01*
G37*
G36*
Y39729D02*X51521D01*
Y39071D01*
X52079D01*
Y39729D01*
G37*
G36*
X52700Y40100D02*Y39200D01*
X53700D01*
Y40100D01*
X52700D01*
G37*
G36*
X52650Y38650D02*Y37650D01*
X53750D01*
Y38650D01*
X52650D01*
G37*
G36*
X41971Y48679D02*Y48121D01*
X42629D01*
Y48679D01*
X41971D01*
G37*
G36*
X40996Y48654D02*Y48146D01*
X41604D01*
Y48654D01*
X40996D01*
G37*
G36*
X52754Y49104D02*X52246D01*
Y48496D01*
X52754D01*
Y49104D01*
G37*
G36*
X52779Y50129D02*X52221D01*
Y49471D01*
X52779D01*
Y50129D01*
G37*
G36*
X49850Y46350D02*Y45350D01*
X50950D01*
Y46350D01*
X49850D01*
G37*
G36*
X51750Y47450D02*Y46050D01*
X53450D01*
Y47450D01*
X51750D01*
G37*
G36*
Y45350D02*Y43950D01*
X53450D01*
Y45350D01*
X51750D01*
G37*
G36*
X54889Y48447D02*X54494Y48052D01*
X54960Y47587D01*
X55354Y47982D01*
X54889Y48447D01*
G37*
G36*
X54182Y49154D02*X53787Y48760D01*
X54252Y48294D01*
X54647Y48689D01*
X54182Y49154D01*
G37*
G36*
X49850Y47850D02*Y46850D01*
X50950D01*
Y47850D01*
X49850D01*
G37*
G36*
X55050Y46050D02*X54050D01*
Y44950D01*
X55050D01*
Y46050D01*
G37*
G36*
X56550D02*X55550D01*
Y44950D01*
X56550D01*
Y46050D01*
G37*
G36*
X40147Y47904D02*X39731Y47613D01*
X40080Y47115D01*
X40496Y47406D01*
X40147Y47904D01*
G37*
G36*
X40727Y47120D02*X40270Y46800D01*
X40647Y46261D01*
X41104Y46581D01*
X40727Y47120D01*
G37*
G36*
X43179Y46829D02*X42621D01*
Y46171D01*
X43179D01*
Y46829D01*
G37*
G36*
X44476Y47682D02*X44082Y48076D01*
X43617Y47611D01*
X44011Y47217D01*
X44476Y47682D01*
G37*
G36*
X45183Y48389D02*X44789Y48783D01*
X44324Y48318D01*
X44718Y47924D01*
X45183Y48389D01*
G37*
G36*
X45276Y46782D02*X44882Y47176D01*
X44417Y46711D01*
X44811Y46317D01*
X45276Y46782D01*
G37*
G36*
X45983Y47489D02*X45589Y47883D01*
X45124Y47418D01*
X45518Y47024D01*
X45983Y47489D01*
G37*
G36*
X57150Y50550D02*X56150D01*
Y49450D01*
X57150D01*
Y50550D01*
G37*
G36*
X55650D02*X54650D01*
Y49450D01*
X55650D01*
Y50550D01*
G37*
G36*
X60579Y49229D02*X60021D01*
Y48571D01*
X60579D01*
Y49229D01*
G37*
G36*
Y50229D02*X60021D01*
Y49571D01*
X60579D01*
Y50229D01*
G37*
G36*
X58871Y50279D02*Y49721D01*
X59529D01*
Y50279D01*
X58871D01*
G37*
G36*
X57871D02*Y49721D01*
X58529D01*
Y50279D01*
X57871D01*
G37*
G36*
X57171Y48179D02*Y47621D01*
X57829D01*
Y48179D01*
X57171D01*
G37*
G36*
X58171D02*Y47621D01*
X58829D01*
Y48179D01*
X58171D01*
G37*
G36*
X56679Y48329D02*X56121D01*
Y47671D01*
X56679D01*
Y48329D01*
G37*
G36*
Y47329D02*X56121D01*
Y46671D01*
X56679D01*
Y47329D01*
G37*
G36*
X68379Y30829D02*X67821D01*
Y30171D01*
X68379D01*
Y30829D01*
G37*
G36*
Y31829D02*X67821D01*
Y31171D01*
X68379D01*
Y31829D01*
G37*
G36*
X68154Y33504D02*X67646D01*
Y32896D01*
X68154D01*
Y33504D01*
G37*
G36*
X68179Y34529D02*X67621D01*
Y33871D01*
X68179D01*
Y34529D01*
G37*
G36*
X62471Y40779D02*Y40221D01*
X63129D01*
Y40779D01*
X62471D01*
G37*
G36*
X67754Y40604D02*X67246D01*
Y39996D01*
X67754D01*
Y40604D01*
G37*
G36*
X67779Y39629D02*X67221D01*
Y38971D01*
X67779D01*
Y39629D01*
G37*
G36*
X65796Y38454D02*Y37946D01*
X66404D01*
Y38454D01*
X65796D01*
G37*
G36*
X66771Y38479D02*Y37921D01*
X67429D01*
Y38479D01*
X66771D01*
G37*
G36*
X65785Y38980D02*X65494Y39396D01*
X64996Y39047D01*
X65287Y38631D01*
X65785Y38980D01*
G37*
G36*
X66639Y39547D02*X66319Y40004D01*
X65780Y39627D01*
X66100Y39170D01*
X66639Y39547D01*
G37*
G36*
X64584Y39929D02*X64045Y40073D01*
X63875Y39437D01*
X64414Y39293D01*
X64584Y39929D01*
G37*
G36*
X64295Y38945D02*X63804Y39076D01*
X63646Y38489D01*
X64137Y38358D01*
X64295Y38945D01*
G37*
G36*
X67425Y44825D02*X66175D01*
Y43475D01*
X67425D01*
Y44825D01*
G37*
G36*
X65625D02*X64375D01*
Y43475D01*
X65625D01*
Y44825D01*
G37*
G36*
X39175Y42325D02*Y41275D01*
X55825D01*
Y42325D01*
X39175D01*
G37*
G36*
X47596Y40354D02*Y39846D01*
X48204D01*
Y40354D01*
X47596D01*
G37*
G36*
X46571Y40379D02*Y39821D01*
X47229D01*
Y40379D01*
X46571D01*
G37*
G36*
X48196Y39254D02*Y38746D01*
X48804D01*
Y39254D01*
X48196D01*
G37*
G36*
X47171Y39279D02*Y38721D01*
X47829D01*
Y39279D01*
X47171D01*
G37*
G36*
X49079Y45929D02*X48521D01*
Y45271D01*
X49079D01*
Y45929D01*
G37*
G36*
Y44929D02*X48521D01*
Y44271D01*
X49079D01*
Y44929D01*
G37*
G36*
X49096Y40354D02*Y39846D01*
X49704D01*
Y40354D01*
X49096D01*
G37*
G36*
X50071Y40379D02*Y39821D01*
X50729D01*
Y40379D01*
X50071D01*
G37*
G36*
X49671Y44079D02*Y43521D01*
X50329D01*
Y44079D01*
X49671D01*
G37*
G36*
X50696Y44054D02*Y43546D01*
X51304D01*
Y44054D01*
X50696D01*
G37*
G36*
X43179Y45829D02*X42621D01*
Y45171D01*
X43179D01*
Y45829D01*
G37*
G36*
X45371Y45879D02*Y45321D01*
X46029D01*
Y45879D01*
X45371D01*
G37*
G36*
X44371D02*Y45321D01*
X45029D01*
Y45879D01*
X44371D01*
G37*
G36*
X69079Y36929D02*X68521D01*
Y36271D01*
X69079D01*
Y36929D01*
G37*
G36*
Y35929D02*X68521D01*
Y35271D01*
X69079D01*
Y35929D01*
G37*
G36*
X68854Y39404D02*X68346D01*
Y38796D01*
X68854D01*
Y39404D01*
G37*
G36*
X68879Y38429D02*X68321D01*
Y37771D01*
X68879D01*
Y38429D01*
G37*
G36*
X65796Y36454D02*Y35946D01*
X66404D01*
Y36454D01*
X65796D01*
G37*
G36*
X66771Y37479D02*Y36921D01*
X67429D01*
Y37479D01*
X66771D01*
G37*
G36*
X65796Y37454D02*Y36946D01*
X66404D01*
Y37454D01*
X65796D01*
G37*
G36*
X66771Y36479D02*Y35921D01*
X67429D01*
Y36479D01*
X66771D01*
G37*
G36*
X65796Y35454D02*Y34946D01*
X66404D01*
Y35454D01*
X65796D01*
G37*
G36*
X66771Y35479D02*Y34921D01*
X67429D01*
Y35479D01*
X66771D01*
G37*
G36*
X63354Y34904D02*X62846D01*
Y34296D01*
X63354D01*
Y34904D01*
G37*
G36*
X19400Y66600D02*Y64400D01*
X24600D01*
Y66600D01*
X19400D01*
G37*
G36*
X19475Y64025D02*Y61475D01*
X24525D01*
Y64025D01*
X19475D01*
G37*
G36*
Y69525D02*Y66975D01*
X24525D01*
Y69525D01*
X19475D01*
G37*
G36*
X19425Y30575D02*Y28425D01*
X24575D01*
Y30575D01*
X19425D01*
G37*
G36*
X19475Y28025D02*Y25475D01*
X24525D01*
Y28025D01*
X19475D01*
G37*
G36*
Y33525D02*Y30975D01*
X24525D01*
Y33525D01*
X19475D01*
G37*
G36*
X25179Y58029D02*X24621D01*
Y57371D01*
X25179D01*
Y58029D01*
G37*
G36*
Y59029D02*X24621D01*
Y58371D01*
X25179D01*
Y59029D01*
G37*
G36*
X25671Y58279D02*Y57721D01*
X26329D01*
Y58279D01*
X25671D01*
G37*
G36*
X26671D02*Y57721D01*
X27329D01*
Y58279D01*
X26671D01*
G37*
G36*
X26279Y56229D02*X25721D01*
Y55571D01*
X26279D01*
Y56229D01*
G37*
G36*
Y57229D02*X25721D01*
Y56571D01*
X26279D01*
Y57229D01*
G37*
G36*
X25571Y60179D02*Y59621D01*
X26229D01*
Y60179D01*
X25571D01*
G37*
G36*
X26571D02*Y59621D01*
X27229D01*
Y60179D01*
X26571D01*
G37*
G36*
X25871Y61879D02*Y61321D01*
X26529D01*
Y61879D01*
X25871D01*
G37*
G36*
X26871D02*Y61321D01*
X27529D01*
Y61879D01*
X26871D01*
G37*
G36*
X28579Y60929D02*X28021D01*
Y60271D01*
X28579D01*
Y60929D01*
G37*
G36*
Y59929D02*X28021D01*
Y59271D01*
X28579D01*
Y59929D01*
G37*
G36*
X27127Y63799D02*X26704Y64706D01*
X25707Y64241D01*
X26129Y63335D01*
X27127Y63799D01*
G37*
G36*
X26493Y65159D02*X26071Y66065D01*
X25073Y65601D01*
X25496Y64694D01*
X26493Y65159D01*
G37*
G36*
X26466Y31139D02*X25893Y30320D01*
X26794Y29689D01*
X27367Y30509D01*
X26466Y31139D01*
G37*
G36*
X25606Y29911D02*X25033Y29091D01*
X25934Y28461D01*
X26507Y29280D01*
X25606Y29911D01*
G37*
G36*
X26771Y32179D02*Y31621D01*
X27429D01*
Y32179D01*
X26771D01*
G37*
G36*
X27771D02*Y31621D01*
X28429D01*
Y32179D01*
X27771D01*
G37*
G36*
X29679Y33729D02*X29121D01*
Y33071D01*
X29679D01*
Y33729D01*
G37*
G36*
Y34729D02*X29121D01*
Y34071D01*
X29679D01*
Y34729D01*
G37*
G36*
X27563Y33075D02*X27327Y33580D01*
X26731Y33303D01*
X26966Y32797D01*
X27563Y33075D01*
G37*
G36*
X28469Y33497D02*X28234Y34003D01*
X27637Y33725D01*
X27873Y33220D01*
X28469Y33497D01*
G37*
G36*
X53425Y70225D02*X52375D01*
Y54575D01*
X53425D01*
Y70225D01*
G37*
G36*
X59071Y47079D02*Y46521D01*
X59729D01*
Y47079D01*
X59071D01*
G37*
G36*
X58071D02*Y46521D01*
X58729D01*
Y47079D01*
X58071D01*
G37*
G36*
X42650Y61750D02*Y60750D01*
X43750D01*
Y61750D01*
X42650D01*
G37*
G36*
Y60250D02*Y59250D01*
X43750D01*
Y60250D01*
X42650D01*
G37*
G36*
X42225Y60596D02*X41582Y61362D01*
X40739Y60655D01*
X41382Y59889D01*
X42225Y60596D01*
G37*
G36*
X45070Y61024D02*X44613Y61345D01*
X44235Y60806D01*
X44692Y60486D01*
X45070Y61024D01*
G37*
G36*
X45609Y61837D02*X45192Y62129D01*
X44844Y61631D01*
X45260Y61339D01*
X45609Y61837D01*
G37*
G36*
X45220Y64085D02*X44804Y63794D01*
X45153Y63296D01*
X45569Y63587D01*
X45220Y64085D01*
G37*
G36*
X49496Y61276D02*X49005Y61145D01*
X49163Y60558D01*
X49654Y60689D01*
X49496Y61276D01*
G37*
G36*
X49255Y62273D02*X48716Y62129D01*
X48886Y61493D01*
X49425Y61637D01*
X49255Y62273D01*
G37*
G36*
X48771Y58879D02*Y58321D01*
X49429D01*
Y58879D01*
X48771D01*
G37*
G36*
X47771D02*Y58321D01*
X48429D01*
Y58879D01*
X47771D01*
G37*
G36*
X51554Y59104D02*X51046D01*
Y58496D01*
X51554D01*
Y59104D01*
G37*
G36*
X51579Y58129D02*X51021D01*
Y57471D01*
X51579D01*
Y58129D01*
G37*
G36*
X48296Y57754D02*Y57246D01*
X48904D01*
Y57754D01*
X48296D01*
G37*
G36*
X49271Y57779D02*Y57221D01*
X49929D01*
Y57779D01*
X49271D01*
G37*
G36*
X36775Y55625D02*Y54575D01*
X53425D01*
Y55625D01*
X36775D01*
G37*
G36*
X37825Y70225D02*X36775D01*
Y54575D01*
X37825D01*
Y70225D01*
G37*
G36*
X40571Y66579D02*Y66021D01*
X41229D01*
Y66579D01*
X40571D01*
G37*
G36*
X40418Y64362D02*X39775Y63596D01*
X40618Y62889D01*
X41261Y63655D01*
X40418Y64362D01*
G37*
G36*
X41261Y61745D02*X40618Y62511D01*
X39775Y61804D01*
X40418Y61038D01*
X41261Y61745D01*
G37*
G36*
X41571Y66579D02*Y66021D01*
X42229D01*
Y66579D01*
X41571D01*
G37*
G36*
X42650Y64650D02*Y63650D01*
X43750D01*
Y64650D01*
X42650D01*
G37*
G36*
Y66150D02*Y65150D01*
X43750D01*
Y66150D01*
X42650D01*
G37*
G36*
X41382Y65511D02*X40739Y64745D01*
X41582Y64038D01*
X42225Y64804D01*
X41382Y65511D01*
G37*
G36*
X44653Y64939D02*X44196Y64619D01*
X44573Y64080D01*
X45030Y64400D01*
X44653Y64939D01*
G37*
G36*
X36775Y70225D02*Y69175D01*
X53425D01*
Y70225D01*
X36775D01*
G37*
G36*
X48654Y66604D02*X48146D01*
Y65996D01*
X48654D01*
Y66604D01*
G37*
G36*
X48679Y65629D02*X48121D01*
Y64971D01*
X48679D01*
Y65629D01*
G37*
G36*
X63879Y66829D02*X63321D01*
Y66171D01*
X63879D01*
Y66829D01*
G37*
G36*
X63854Y67804D02*X63346D01*
Y67196D01*
X63854D01*
Y67804D01*
G37*
G36*
X65379Y65829D02*X64821D01*
Y65171D01*
X65379D01*
Y65829D01*
G37*
G36*
X66479Y65929D02*X65921D01*
Y65271D01*
X66479D01*
Y65929D01*
G37*
G36*
X65616Y67662D02*X65111Y67427D01*
X65389Y66830D01*
X65894Y67066D01*
X65616Y67662D01*
G37*
G36*
X65182Y68536D02*X64721Y68321D01*
X64978Y67770D01*
X65439Y67985D01*
X65182Y68536D01*
G37*
G36*
X65379Y64829D02*X64821D01*
Y64171D01*
X65379D01*
Y64829D01*
G37*
G36*
X66479Y64929D02*X65921D01*
Y64271D01*
X66479D01*
Y64929D01*
G37*
G36*
X71754Y64204D02*X71246D01*
Y63596D01*
X71754D01*
Y64204D01*
G37*
G36*
X77579Y58029D02*X77021D01*
Y57371D01*
X77579D01*
Y58029D01*
G37*
G36*
X77554Y59004D02*X77046D01*
Y58396D01*
X77554D01*
Y59004D01*
G37*
G36*
X80379Y55729D02*X79821D01*
Y55071D01*
X80379D01*
Y55729D01*
G37*
G36*
X77475Y54425D02*Y53175D01*
X78825D01*
Y54425D01*
X77475D01*
G37*
G36*
Y56225D02*Y54975D01*
X78825D01*
Y56225D01*
X77475D01*
G37*
G36*
X80379Y56729D02*X79821D01*
Y56071D01*
X80379D01*
Y56729D01*
G37*
G36*
X79350Y58450D02*Y57450D01*
X80450D01*
Y58450D01*
X79350D01*
G37*
G36*
Y59950D02*Y58950D01*
X80450D01*
Y59950D01*
X79350D01*
G37*
G36*
X71971Y61179D02*Y60621D01*
X72629D01*
Y61179D01*
X71971D01*
G37*
G36*
X70879Y60829D02*X70321D01*
Y60171D01*
X70879D01*
Y60829D01*
G37*
G36*
Y61829D02*X70321D01*
Y61171D01*
X70879D01*
Y61829D01*
G37*
G36*
X71971Y62179D02*Y61621D01*
X72629D01*
Y62179D01*
X71971D01*
G37*
G36*
X71779Y63229D02*X71221D01*
Y62571D01*
X71779D01*
Y63229D01*
G37*
G36*
X70571Y53779D02*Y53221D01*
X71229D01*
Y53779D01*
X70571D01*
G37*
G36*
X71571D02*Y53221D01*
X72229D01*
Y53779D01*
X71571D01*
G37*
G36*
X71079Y59329D02*X70521D01*
Y58671D01*
X71079D01*
Y59329D01*
G37*
G36*
X71971Y60179D02*Y59621D01*
X72629D01*
Y60179D01*
X71971D01*
G37*
G36*
X72154Y57104D02*X71646D01*
Y56496D01*
X72154D01*
Y57104D01*
G37*
G36*
X72179Y58129D02*X71621D01*
Y57471D01*
X72179D01*
Y58129D01*
G37*
G36*
X71054Y58304D02*X70546D01*
Y57696D01*
X71054D01*
Y58304D01*
G37*
G36*
X71971Y59179D02*Y58621D01*
X72629D01*
Y59179D01*
X71971D01*
G37*
G36*
X72996Y61154D02*Y60646D01*
X73604D01*
Y61154D01*
X72996D01*
G37*
G36*
Y60154D02*Y59646D01*
X73604D01*
Y60154D01*
X72996D01*
G37*
G36*
X75525Y57663D02*X74986Y57807D01*
X74816Y57171D01*
X75355Y57027D01*
X75525Y57663D01*
G37*
G36*
X75754Y58611D02*X75263Y58742D01*
X75105Y58155D01*
X75596Y58024D01*
X75754Y58611D01*
G37*
G36*
X72996Y59154D02*Y58646D01*
X73604D01*
Y59154D01*
X72996D01*
G37*
G36*
X74404Y58053D02*X74113Y58469D01*
X73615Y58120D01*
X73906Y57704D01*
X74404Y58053D01*
G37*
G36*
X73620Y57473D02*X73300Y57930D01*
X72761Y57553D01*
X73081Y57096D01*
X73620Y57473D01*
G37*
G36*
X75300Y53900D02*X74400D01*
Y52900D01*
X75300D01*
Y53900D01*
G37*
G36*
X76850Y53950D02*X75850D01*
Y52850D01*
X76850D01*
Y53950D01*
G37*
G36*
X72996Y62154D02*Y61646D01*
X73604D01*
Y62154D01*
X72996D01*
G37*
G36*
X81971Y56979D02*Y56421D01*
X82629D01*
Y56979D01*
X81971D01*
G37*
G36*
X80971D02*Y56421D01*
X81629D01*
Y56979D01*
X80971D01*
G37*
G36*
X74318Y63041D02*X73959Y62682D01*
X74389Y62252D01*
X74748Y62611D01*
X74318Y63041D01*
G37*
G36*
X73611Y63783D02*X73217Y63389D01*
X73682Y62924D01*
X74076Y63318D01*
X73611Y63783D01*
G37*
G36*
X75150Y66750D02*X74150D01*
Y65650D01*
X75150D01*
Y66750D01*
G37*
G36*
X76527Y67057D02*X76044Y66779D01*
X76373Y66209D01*
X76856Y66487D01*
X76527Y67057D01*
G37*
G36*
X77027Y66191D02*X76544Y65913D01*
X76873Y65343D01*
X77356Y65621D01*
X77027Y66191D01*
G37*
G36*
X75513Y64479D02*X75187Y64869D01*
X74721Y64478D01*
X75047Y64089D01*
X75513Y64479D01*
G37*
G36*
X76314Y65119D02*X75956Y65547D01*
X75452Y65124D01*
X75810Y64696D01*
X76314Y65119D01*
G37*
G36*
X73600Y66700D02*X72700D01*
Y65700D01*
X73600D01*
Y66700D01*
G37*
G36*
X70996Y66621D02*X70539Y66301D01*
X70916Y65762D01*
X71373Y66082D01*
X70996Y66621D01*
G37*
G36*
X71569Y65802D02*X71112Y65482D01*
X71490Y64943D01*
X71947Y65263D01*
X71569Y65802D01*
G37*
G36*
X77496Y61854D02*Y61346D01*
X78104D01*
Y61854D01*
X77496D01*
G37*
G36*
X78471Y61879D02*Y61321D01*
X79129D01*
Y61879D01*
X78471D01*
G37*
G36*
X80479Y63129D02*X79921D01*
Y62471D01*
X80479D01*
Y63129D01*
G37*
G36*
X82389Y63356D02*X81739Y62230D01*
X83125Y61430D01*
X83775Y62556D01*
X82389Y63356D01*
G37*
G36*
X77821Y63714D02*X77777Y63208D01*
X78382Y63155D01*
X78426Y63661D01*
X77821Y63714D01*
G37*
G36*
X78794Y63654D02*X78746Y63098D01*
X79401Y63041D01*
X79450Y63597D01*
X78794Y63654D01*
G37*
G36*
X88300Y68800D02*X86500D01*
Y66000D01*
X88300D01*
Y68800D01*
G37*
G36*
X80100D02*X78300D01*
Y66000D01*
X80100D01*
Y68800D01*
G37*
G36*
X80479Y64129D02*X79921D01*
Y63471D01*
X80479D01*
Y64129D01*
G37*
G36*
X80269Y64797D02*X80034Y65303D01*
X79437Y65025D01*
X79673Y64520D01*
X80269Y64797D01*
G37*
G36*
X79363Y64375D02*X79127Y64880D01*
X78531Y64603D01*
X78766Y64097D01*
X79363Y64375D01*
G37*
G36*
X81554Y65104D02*X81046D01*
Y64496D01*
X81554D01*
Y65104D01*
G37*
G36*
X81579Y64129D02*X81021D01*
Y63471D01*
X81579D01*
Y64129D01*
G37*
G36*
X83420Y65242D02*X82721Y64030D01*
X84193Y63180D01*
X84893Y64393D01*
X83420Y65242D01*
G37*
G36*
X82271Y60179D02*Y59621D01*
X82929D01*
Y60179D01*
X82271D01*
G37*
G36*
X81271D02*Y59621D01*
X81929D01*
Y60179D01*
X81271D01*
G37*
G36*
X82271Y58579D02*Y58021D01*
X82929D01*
Y58579D01*
X82271D01*
G37*
G36*
X81271D02*Y58021D01*
X81929D01*
Y58579D01*
X81271D01*
G37*
G36*
X86404Y58152D02*X85778Y59234D01*
X84609Y58557D01*
X85236Y57475D01*
X86404Y58152D01*
G37*
G36*
X87454Y60778D02*X86829Y61861D01*
X85660Y61187D01*
X86284Y60104D01*
X87454Y60778D01*
G37*
G36*
X86554Y62337D02*X85929Y63420D01*
X84760Y62745D01*
X85385Y61662D01*
X86554Y62337D01*
G37*
G36*
X73900Y48800D02*X72600D01*
Y47200D01*
X73900D01*
Y48800D01*
G37*
G36*
X71850Y48850D02*X70450D01*
Y47150D01*
X71850D01*
Y48850D01*
G37*
G36*
X73200Y46200D02*X71900D01*
Y44600D01*
X73200D01*
Y46200D01*
G37*
G36*
X75350Y46250D02*X73950D01*
Y44550D01*
X75350D01*
Y46250D01*
G37*
G36*
X78350Y45850D02*Y44450D01*
X80050D01*
Y45850D01*
X78350D01*
G37*
G36*
X78400Y47900D02*Y46600D01*
X80000D01*
Y47900D01*
X78400D01*
G37*
G36*
X84079Y49329D02*X83521D01*
Y48671D01*
X84079D01*
Y49329D01*
G37*
G36*
Y50329D02*X83521D01*
Y49671D01*
X84079D01*
Y50329D01*
G37*
G36*
X82979Y49329D02*X82421D01*
Y48671D01*
X82979D01*
Y49329D01*
G37*
G36*
Y50329D02*X82421D01*
Y49671D01*
X82979D01*
Y50329D01*
G37*
G36*
X81879Y49329D02*X81321D01*
Y48671D01*
X81879D01*
Y49329D01*
G37*
G36*
Y50329D02*X81321D01*
Y49671D01*
X81879D01*
Y50329D01*
G37*
G36*
X106450Y68550D02*Y67550D01*
X107550D01*
Y68550D01*
X106450D01*
G37*
G36*
Y67050D02*Y66050D01*
X107550D01*
Y67050D01*
X106450D01*
G37*
G36*
Y65050D02*Y64050D01*
X107550D01*
Y65050D01*
X106450D01*
G37*
G36*
X76554Y62804D02*X76046D01*
Y62196D01*
X76554D01*
Y62804D01*
G37*
G36*
X76579Y63829D02*X76021D01*
Y63171D01*
X76579D01*
Y63829D01*
G37*
G36*
X106450Y63550D02*Y62550D01*
X107550D01*
Y63550D01*
X106450D01*
G37*
G36*
Y61650D02*Y60650D01*
X107550D01*
Y61650D01*
X106450D01*
G37*
G36*
Y60150D02*Y59150D01*
X107550D01*
Y60150D01*
X106450D01*
G37*
G36*
Y56750D02*Y55750D01*
X107550D01*
Y56750D01*
X106450D01*
G37*
G36*
Y58250D02*Y57250D01*
X107550D01*
Y58250D01*
X106450D01*
G37*
G36*
X95750Y58750D02*X94350D01*
Y57050D01*
X95750D01*
Y58750D01*
G37*
G36*
X97800Y58700D02*X96500D01*
Y57100D01*
X97800D01*
Y58700D01*
G37*
G36*
X97750Y61150D02*X96350D01*
Y59450D01*
X97750D01*
Y61150D01*
G37*
G36*
X99800Y61100D02*X98500D01*
Y59500D01*
X99800D01*
Y61100D01*
G37*
G36*
X91208Y58076D02*X89829Y57833D01*
X90124Y56159D01*
X91503Y56402D01*
X91208Y58076D01*
G37*
G36*
X93236Y58383D02*X91955Y58158D01*
X92232Y56582D01*
X93513Y56807D01*
X93236Y58383D01*
G37*
G36*
X89416Y56823D02*X89294Y58217D01*
X87601Y58069D01*
X87723Y56675D01*
X89416Y56823D01*
G37*
G36*
X89545Y54776D02*X89432Y56071D01*
X87838Y55932D01*
X87951Y54637D01*
X89545Y54776D01*
G37*
G36*
X87304Y56592D02*X86679Y57674D01*
X85510Y56999D01*
X86135Y55917D01*
X87304Y56592D01*
G37*
M02*
