M48
METRIC,000.000
T112C3.000
T111C0.500
T110C1.200
T109C1.100
T108C0.700
T107C0.965
T106C0.300
T105C0.800
T104C1.000
%
T106
X024900Y056800
X025000Y059600
X025300Y055900
X025500Y062000
X025800Y058800
X026200Y062700
X026800Y058700
X027300Y065100
X027300Y062800
X027600Y060900
X027800Y063800
X027800Y058900
X028100Y032600
X028300Y062900
X028800Y058700
X029200Y069500
X029400Y061900
X029500Y060900
X029500Y059900
X030300Y033200
X030400Y061800
X036700Y035100
X036700Y029900
X037300Y048700
X037600Y035100
X037600Y029900
X038200Y068900
X038200Y048400
X038300Y047400
X038400Y049400
X038500Y035100
X038500Y029900
X039100Y069700
X039100Y055100
X039600Y050400
X039900Y062700
X040100Y051600
X040200Y068900
X040250Y048400
X040500Y050700
X040700Y037100
X040700Y035100
X040800Y032500
X041100Y067100
X041200Y059300
X041300Y062700
X041300Y029300
X041400Y050300
X041500Y046600
X041500Y041800
X041500Y027200
X041700Y030900
X042300Y059000
X042300Y058000
X042300Y047800
X042500Y037400
X042600Y030600
X042800Y034800
X042800Y032700
X042900Y069700
X042900Y055100
X042900Y044700
X043200Y068000
X043300Y058600
X043700Y034800
X043900Y045800
X044000Y036900
X044000Y036000
X044100Y064100
X044100Y061300
X044200Y030900
X044300Y037900
X044400Y059900
X044500Y040700
X044600Y055100
X044600Y052900
X044600Y039300
X044800Y069700
X044850Y035150
X045300Y040000
X045300Y038100
X045350Y034650
X045500Y052900
X045500Y048800
X045700Y064300
X045700Y061100
X045900Y031700
X046100Y068000
X046100Y040800
X046200Y048100
X046200Y033800
X046250Y036850
X046250Y036050
X046500Y045600
X046850Y039050
X047050Y036850
X047050Y036050
X047100Y033800
X047500Y040900
X047900Y069700
X048000Y037800
X048100Y068000
X048100Y043100
X048400Y064600
X048400Y061700
X048400Y034500
X048600Y039800
X048700Y060700
X048800Y032000
X048900Y059500
X049000Y038100
X049100Y043900
X049100Y028400
X049300Y036900
X049300Y036000
X049400Y048900
X049400Y047700
X049400Y043000
X049400Y039000
X049400Y034300
X049600Y028900
X049700Y044700
X049900Y058600
X050000Y068000
X050000Y059600
X050000Y030000
X050100Y066300
X050400Y057700
X050600Y060900
X050600Y029100
X050700Y032000
X051000Y040900
X051000Y030000
X051100Y069700
X051100Y055100
X051300Y057100
X051300Y056000
X051300Y028400
X051800Y049800
X051800Y048900
X052000Y058900
X052000Y030900
X052000Y030000
X052200Y033600
X052300Y028300
X052700Y066000
X052900Y069700
X053000Y030000
X053100Y060300
X053100Y037100
X053100Y035900
X053200Y068000
X053300Y028300
X053400Y048600
X053500Y041800
X053500Y027200
X053600Y050000
X053800Y057600
X053800Y047700
X053800Y032400
X053900Y043000
X054000Y030000
X054100Y059600
X054100Y058600
X054200Y033600
X054300Y028300
X054400Y066000
X054500Y047100
X054900Y069700
X054900Y055100
X055000Y059000
X055200Y044300
X055400Y060400
X055500Y068000
X055600Y046400
X056300Y048700
X056700Y032400
X056700Y031400
X056900Y037000
X057300Y048800
X057300Y047000
X057600Y036200
X059400Y048800
X059600Y035300
X059700Y036200
X059800Y026100
X060100Y034500
X060200Y047800
X060200Y046800
X060200Y045800
X060500Y025400
X060800Y040500
X061000Y068500
X061000Y067500
X061000Y066500
X061000Y053500
X061100Y069800
X061100Y031800
X061300Y042500
X061400Y039400
X061500Y048700
X061700Y032800
X062100Y065200
X062100Y049500
X062100Y031900
X062100Y027400
X062200Y069600
X062700Y032800
X062800Y037700
X062800Y037000
X062800Y036200
X062800Y035400
X062900Y070500
X062900Y067500
X063100Y065200
X063100Y029000
X063200Y069500
X063200Y025400
X063500Y040400
X063500Y037700
X063500Y035400
X063900Y036600
X063950Y030600
X063950Y029950
X064000Y027400
X064100Y070300
X064100Y065200
X064100Y051600
X064200Y042500
X064200Y037700
X064200Y025400
X064300Y068600
X064300Y066200
X064300Y035400
X064400Y040400
X064900Y067000
X064900Y029000
X065000Y037700
X065000Y037000
X065000Y036200
X065000Y035400
X065100Y032700
X065200Y053500
X065500Y063700
X065700Y068600
X065900Y027400
X066000Y032400
X066100Y029300
X066200Y040900
X066400Y034100
X066500Y063700
X066800Y045300
X066800Y040400
X066800Y039200
X066800Y031800
X066800Y030000
X066900Y047600
X067100Y065700
X067100Y030900
X067200Y033200
X067300Y042500
X067300Y027800
X067600Y048300
X067600Y029400
X067900Y038100
X067900Y037200
X067900Y036300
X067900Y035300
X068200Y028600
X068400Y040000
X068600Y033200
X068600Y029500
X068800Y034800
X069000Y041900
X069200Y066600
X069200Y031800
X069300Y061200
X069300Y059700
X069300Y057800
X069400Y056300
X069900Y034000
X070000Y040800
X070100Y065900
X070100Y039300
X070100Y037400
X070100Y035900
X070300Y067900
X070400Y066900
X070400Y055200
X070600Y062300
X070800Y046800
X071000Y057100
X071400Y067300
X071500Y061800
X071500Y060800
X071500Y059900
X071500Y059000
X071500Y046800
X071900Y036300
X072000Y038400
X072000Y037400
X072200Y063900
X072300Y066200
X072400Y042000
X072500Y046700
X072600Y067100
X072600Y065300
X072600Y057900
X072600Y056700
X072700Y054600
X073000Y063000
X073100Y034200
X073200Y056200
X073200Y046700
X073300Y067800
X073400Y064700
X073600Y032300
X073700Y028300
X074000Y050800
X074300Y064400
X074400Y061700
X074400Y060900
X074400Y060100
X074400Y059400
X074500Y068100
X074700Y054600
X075000Y056700
X075100Y061700
X075100Y048500
X075200Y059400
X075450Y067150
X075450Y066500
X075500Y060500
X075600Y042000
X075700Y044900
X075900Y061700
X075900Y059400
X075900Y056700
X076100Y050800
X076100Y034200
X076100Y033300
X076200Y028300
X076300Y068100
X076300Y054600
X076500Y048500
X076500Y044900
X076600Y061700
X076600Y060900
X076600Y060100
X076600Y059400
X076700Y064300
X076700Y056200
X076900Y036800
X077000Y040600
X077200Y039200
X077200Y038200
X077300Y065200
X077500Y067200
X077700Y066200
X077700Y064300
X078000Y057700
X078100Y036000
X078100Y034000
X078200Y065500
X079100Y042000
X079100Y040600
X079200Y067400
X079300Y062600
X079700Y060900
X079800Y061800
X080100Y034400
X080100Y033500
X080200Y054400
X081500Y057500
X081600Y060600
X081600Y059000
X082100Y039400
X082100Y038100
X082100Y033400
X082200Y036800
X082500Y057400
X082600Y060600
X082600Y059000
X083000Y041600
X083700Y040700
X083800Y042200
X084000Y047100
X084700Y038100
X085400Y049300
X086000Y039900
X086000Y039000
X087400Y067400
X087600Y046100
X087900Y033400
X088600Y041000
X088600Y038900
X088800Y033100
X089200Y043600
X089500Y038900
X090100Y043500
X090400Y040200
X090500Y038200
X090500Y032900
X090600Y046900
X091000Y043600
X091400Y046300
X091500Y041300
X091500Y033200
X092100Y056200
X092100Y055550
X092100Y054900
X092800Y056200
X092800Y054900
X093000Y034700
X093200Y055550
X093400Y037900
X093500Y056200
X093500Y054900
X093900Y062100
X093900Y061400
X093900Y060700
X094200Y056200
X094200Y055550
X094200Y054900
X094200Y043600
X094200Y042600
X094300Y038400
X094400Y041500
X095900Y045600
X099900Y050900
X099900Y042400
X100800Y042400
X102100Y037900
X105400Y059500
X105700Y067900
X105800Y058400
T111
X021900Y038000
X022200Y056900
X022500Y054600
X023100Y042100
X023300Y050200
X025100Y031200
X025800Y052700
X025800Y026600
X025900Y032600
X026000Y044700
X026700Y034400
X027000Y036900
X027100Y048200
X027100Y039700
X027400Y069900
X027700Y028800
X027900Y066500
X028100Y031000
X028400Y035000
X028400Y026400
X029100Y031800
X029300Y065000
X029900Y063500
X030000Y066600
X030300Y032000
X030400Y034400
X030700Y036500
X030900Y059900
X031100Y054000
X031500Y067200
X031500Y062800
X032300Y031900
X032400Y057200
X032400Y034000
X033000Y063500
X033100Y066500
X033400Y059200
X033400Y036400
X033500Y061400
X033600Y065100
X034000Y040300
X034100Y068600
X034200Y031500
X034400Y033600
X034500Y047700
X034600Y052200
X035700Y055600
X036000Y058500
X036300Y068700
X036300Y066900
X036300Y064800
X036300Y062700
X036300Y060700
X036500Y050700
X036700Y045800
X036700Y042600
X036700Y039300
X036700Y036500
X036700Y033500
X036700Y031500
X038100Y053800
X038300Y065200
X038500Y044900
X038500Y041800
X038500Y039300
X038500Y036500
X038500Y033500
X038500Y031500
X038500Y027700
X038700Y067000
X038700Y057800
X039000Y063700
X039000Y061700
X039000Y060000
X040000Y065200
X040100Y057200
X040500Y026000
X040700Y033600
X040700Y031400
X040700Y030300
X040900Y044900
X041500Y052100
X041500Y040300
X041500Y038800
X041700Y028200
X042900Y056300
X043100Y040700
X043300Y026000
X043600Y050100
X043800Y052100
X044400Y062700
X044400Y057900
X044400Y043400
X044500Y065700
X046100Y062700
X046300Y059900
X046300Y052100
X046400Y028900
X046800Y056100
X046800Y042900
X046800Y026200
X046900Y050100
X047000Y058600
X047100Y065600
X047700Y062700
X047800Y047800
X048000Y052700
X048900Y050600
X049000Y056200
X049300Y053900
X050000Y063600
X050300Y051700
X051300Y054100
X051800Y064600
X051800Y062200
X052500Y052000
X052700Y040800
X054300Y039700
X054900Y052400
X055400Y064800
X055400Y056300
X055600Y062100
X055700Y057900
X056500Y035300
X056600Y030000
X056800Y027900
X057200Y053200
X057500Y033400
X057600Y039400
X057700Y068500
X057700Y066500
X058000Y041800
X058400Y063100
X058400Y060300
X058600Y055400
X058700Y030000
X058700Y027900
X059600Y068500
X059600Y066400
X060400Y027900
X060700Y065000
X060800Y057900
X061100Y030600
X061900Y029700
X062000Y052500
X062100Y062900
X062100Y059700
X062100Y054700
X063400Y046000
X063800Y050400
X064100Y063100
X064200Y054500
X064400Y060200
X064500Y057400
X065300Y051600
X065900Y070500
X066800Y067900
X067100Y058700
X067400Y070000
X068000Y067200
X068300Y050300
X068400Y052400
X069200Y068800
X069600Y063000
X070600Y064600
X074500Y035500
X077800Y047000
X078300Y050400
X080700Y045300
X081200Y055400
X081200Y030900
X081400Y062700
X081900Y061500
X083200Y039700
X084700Y045600
X085200Y044300
X085700Y054600
X087200Y055100
X087500Y063400
X089200Y030100
X090000Y053900
X090200Y055300
X090300Y061800
X090300Y060100
X090300Y058600
X090300Y052100
X090300Y051000
X096000Y036400
X096000Y034400
X096300Y053800
X096500Y056400
X098000Y045900
X098500Y057700
X099000Y036400
X099000Y034500
X099500Y058900
X101500Y046400
X107100Y054300
T108
X020200Y068800
X020200Y067700
X020200Y063300
X020200Y062200
X020200Y032800
X020200Y031700
X020200Y027300
X020200Y026200
X021400Y068800
X021400Y067700
X021400Y063300
X021400Y062200
X021400Y032800
X021400Y031700
X021400Y027300
X021400Y026200
X022600Y068800
X022600Y067700
X022600Y063300
X022600Y062200
X022600Y032800
X022600Y031700
X022600Y027300
X022600Y026200
X023800Y068800
X023800Y067700
X023800Y063300
X023800Y062200
X023800Y032800
X023800Y031700
X023800Y027300
X023800Y026200
X088550Y028000
X093450Y028000
T105
X081300Y067400
X083300Y067400
X085300Y067400
T107
X090760Y069200
X093300Y069200
T104
X030200Y050600
X030200Y048050
X030200Y045500
X030200Y043000
X085200Y035100
X085200Y027500
X103700Y063300
X103700Y060750
X103700Y058200
X103700Y055700
X103700Y053150
X103700Y050600
X103700Y048050
X103700Y045500
X103700Y043000
X103700Y040450
X103700Y037900
X103700Y035350
X103700Y032800
X103700Y030250
X107500Y040100
X107500Y037550
X107500Y035000
X107500Y032500
X107500Y029950
T109
X073700Y026100
X078700Y026100
T110
X087350Y025300
X094650Y025300
T112
X031500Y065000
X031500Y028500
X099000Y065000
X099000Y028500
M30
