G04 start of page 13 for group -4014 idx -4014 *
G04 Title: v2_0, bottompaste *
G04 Creator: pcb 4.2.0 *
G04 CreationDate: Sun Sep 29 12:02:10 2019 UTC *
G04 For: user *
G04 Format: Gerber/RS-274X *
G04 PCB-Dimensions (mm): 140.00 90.00 *
G04 PCB-Coordinate-Origin: lower left *
%MOMM*%
%FSLAX43Y43*%
%LNGBP*%
%ADD151C,1.100*%
%ADD150C,1.950*%
%ADD149C,0.002*%
G54D149*G36*
X101150Y38200D02*X100650D01*
Y37600D01*
X101150D01*
Y38200D01*
G37*
G36*
Y37200D02*X100650D01*
Y36600D01*
X101150D01*
Y37200D01*
G37*
G36*
X51000Y33150D02*Y32650D01*
X51600D01*
Y33150D01*
X51000D01*
G37*
G36*
X50000D02*Y32650D01*
X50600D01*
Y33150D01*
X50000D01*
G37*
G36*
X49050Y45900D02*X48550D01*
Y45300D01*
X49050D01*
Y45900D01*
G37*
G36*
Y44900D02*X48550D01*
Y44300D01*
X49050D01*
Y44900D01*
G37*
G36*
X68350Y30800D02*X67850D01*
Y30200D01*
X68350D01*
Y30800D01*
G37*
G36*
Y31800D02*X67850D01*
Y31200D01*
X68350D01*
Y31800D01*
G37*
G36*
X62350Y39700D02*X61850D01*
Y39100D01*
X62350D01*
Y39700D01*
G37*
G36*
Y38700D02*X61850D01*
Y38100D01*
X62350D01*
Y38700D01*
G37*
G36*
X61500Y40750D02*Y40250D01*
X62100D01*
Y40750D01*
X61500D01*
G37*
G36*
X62500D02*Y40250D01*
X63100D01*
Y40750D01*
X62500D01*
G37*
G36*
X65800Y36450D02*Y35950D01*
X66400D01*
Y36450D01*
X65800D01*
G37*
G36*
X66800D02*Y35950D01*
X67400D01*
Y36450D01*
X66800D01*
G37*
G36*
X69050Y36900D02*X68550D01*
Y36300D01*
X69050D01*
Y36900D01*
G37*
G36*
Y35900D02*X68550D01*
Y35300D01*
X69050D01*
Y35900D01*
G37*
G36*
X59000Y39300D02*Y38400D01*
X60000D01*
Y39300D01*
X59000D01*
G37*
G36*
Y37800D02*Y36900D01*
X60000D01*
Y37800D01*
X59000D01*
G37*
G36*
X61300Y35750D02*Y35250D01*
X61900D01*
Y35750D01*
X61300D01*
G37*
G36*
X60300D02*Y35250D01*
X60900D01*
Y35750D01*
X60300D01*
G37*
G36*
X66700Y31400D02*X65800D01*
Y30400D01*
X66700D01*
Y31400D01*
G37*
G36*
X65200D02*X64300D01*
Y30400D01*
X65200D01*
Y31400D01*
G37*
G36*
X66800Y37450D02*Y36950D01*
X67400D01*
Y37450D01*
X66800D01*
G37*
G36*
X65800D02*Y36950D01*
X66400D01*
Y37450D01*
X65800D01*
G37*
G36*
X67750Y40600D02*X67250D01*
Y40000D01*
X67750D01*
Y40600D01*
G37*
G36*
Y39600D02*X67250D01*
Y39000D01*
X67750D01*
Y39600D01*
G37*
G36*
X68850Y39400D02*X68350D01*
Y38800D01*
X68850D01*
Y39400D01*
G37*
G36*
Y38400D02*X68350D01*
Y37800D01*
X68850D01*
Y38400D01*
G37*
G36*
X65800Y35450D02*Y34950D01*
X66400D01*
Y35450D01*
X65800D01*
G37*
G36*
X66800D02*Y34950D01*
X67400D01*
Y35450D01*
X66800D01*
G37*
G36*
X65800Y38450D02*Y37950D01*
X66400D01*
Y38450D01*
X65800D01*
G37*
G36*
X66800D02*Y37950D01*
X67400D01*
Y38450D01*
X66800D01*
G37*
G36*
X68150Y33500D02*X67650D01*
Y32900D01*
X68150D01*
Y33500D01*
G37*
G36*
Y34500D02*X67650D01*
Y33900D01*
X68150D01*
Y34500D01*
G37*
G36*
X65011Y34842D02*X64658Y34489D01*
X65082Y34065D01*
X65435Y34418D01*
X65011Y34842D01*
G37*
G36*
X65718Y34135D02*X65365Y33782D01*
X65789Y33358D01*
X66142Y33711D01*
X65718Y34135D01*
G37*
G36*
X65780Y38981D02*X65493Y39390D01*
X65001Y39046D01*
X65288Y38636D01*
X65780Y38981D01*
G37*
G36*
X66599Y39554D02*X66312Y39964D01*
X65820Y39619D01*
X66107Y39210D01*
X66599Y39554D01*
G37*
G36*
X64549Y39908D02*X64066Y40038D01*
X63910Y39458D01*
X64393Y39328D01*
X64549Y39908D01*
G37*
G36*
X64290Y38942D02*X63807Y39072D01*
X63651Y38492D01*
X64134Y38362D01*
X64290Y38942D01*
G37*
G36*
X63350Y34900D02*X62850D01*
Y34300D01*
X63350D01*
Y34900D01*
G37*
G36*
Y33900D02*X62850D01*
Y33300D01*
X63350D01*
Y33900D01*
G37*
G36*
X63017Y30852D02*X62584Y30602D01*
X62883Y30082D01*
X63316Y30332D01*
X63017Y30852D01*
G37*
G36*
X62517Y31718D02*X62084Y31468D01*
X62383Y30948D01*
X62816Y31198D01*
X62517Y31718D01*
G37*
G36*
X64673Y32622D02*X64352Y33006D01*
X63893Y32620D01*
X64214Y32237D01*
X64673Y32622D01*
G37*
G36*
X63907Y31980D02*X63586Y32363D01*
X63127Y31978D01*
X63448Y31594D01*
X63907Y31980D01*
G37*
G36*
X59450Y33600D02*X58950D01*
Y33000D01*
X59450D01*
Y33600D01*
G37*
G36*
Y34600D02*X58950D01*
Y34000D01*
X59450D01*
Y34600D01*
G37*
G36*
X61021Y33940D02*X60978Y33442D01*
X61576Y33390D01*
X61619Y33888D01*
X61021Y33940D01*
G37*
G36*
X60025Y34027D02*X59982Y33529D01*
X60579Y33477D01*
X60623Y33975D01*
X60025Y34027D01*
G37*
G36*
X59924Y32089D02*X59713Y32542D01*
X59169Y32289D01*
X59380Y31835D01*
X59924Y32089D01*
G37*
G36*
X60831Y32511D02*X60620Y32965D01*
X60076Y32711D01*
X60287Y32258D01*
X60831Y32511D01*
G37*
G36*
X60250Y30400D02*X59750D01*
Y29800D01*
X60250D01*
Y30400D01*
G37*
G36*
Y31400D02*X59750D01*
Y30800D01*
X60250D01*
Y31400D01*
G37*
G36*
X60438Y40366D02*X60308Y40849D01*
X59728Y40693D01*
X59858Y40210D01*
X60438Y40366D01*
G37*
G36*
X59472Y40107D02*X59342Y40590D01*
X58762Y40434D01*
X58892Y39951D01*
X59472Y40107D01*
G37*
G36*
X41400Y35200D02*Y34300D01*
X42400D01*
Y35200D01*
X41400D01*
G37*
G36*
Y36700D02*Y35800D01*
X42400D01*
Y36700D01*
X41400D01*
G37*
G36*
X49100Y40350D02*Y39850D01*
X49700D01*
Y40350D01*
X49100D01*
G37*
G36*
X50100D02*Y39850D01*
X50700D01*
Y40350D01*
X50100D01*
G37*
G36*
X43650Y37300D02*X43150D01*
Y36700D01*
X43650D01*
Y37300D01*
G37*
G36*
Y36300D02*X43150D01*
Y35700D01*
X43650D01*
Y36300D01*
G37*
G36*
X46700Y38150D02*Y37650D01*
X47300D01*
Y38150D01*
X46700D01*
G37*
G36*
X45700D02*Y37650D01*
X46300D01*
Y38150D01*
X45700D01*
G37*
G36*
X45750Y35600D02*X45250D01*
Y35000D01*
X45750D01*
Y35600D01*
G37*
G36*
Y36600D02*X45250D01*
Y36000D01*
X45750D01*
Y36600D01*
G37*
G36*
X47600Y40350D02*Y39850D01*
X48200D01*
Y40350D01*
X47600D01*
G37*
G36*
X46600D02*Y39850D01*
X47200D01*
Y40350D01*
X46600D01*
G37*
G36*
X48200Y39250D02*Y38750D01*
X48800D01*
Y39250D01*
X48200D01*
G37*
G36*
X47200D02*Y38750D01*
X47800D01*
Y39250D01*
X47200D01*
G37*
G36*
X49800Y36200D02*Y35300D01*
X50800D01*
Y36200D01*
X49800D01*
G37*
G36*
Y34700D02*Y33800D01*
X50800D01*
Y34700D01*
X49800D01*
G37*
G36*
Y39200D02*Y38300D01*
X50800D01*
Y39200D01*
X49800D01*
G37*
G36*
Y37700D02*Y36800D01*
X50800D01*
Y37700D01*
X49800D01*
G37*
G36*
X52050Y38700D02*X51550D01*
Y38100D01*
X52050D01*
Y38700D01*
G37*
G36*
Y39700D02*X51550D01*
Y39100D01*
X52050D01*
Y39700D01*
G37*
G36*
X49200Y33400D02*X48300D01*
Y32400D01*
X49200D01*
Y33400D01*
G37*
G36*
X47700D02*X46800D01*
Y32400D01*
X47700D01*
Y33400D01*
G37*
G36*
X52700Y40100D02*Y39200D01*
X53700D01*
Y40100D01*
X52700D01*
G37*
G36*
Y38600D02*Y37700D01*
X53700D01*
Y38600D01*
X52700D01*
G37*
G36*
X53700Y34600D02*X53700Y35500D01*
X52700Y35500D01*
X52700Y34600D01*
X53700Y34600D01*
G37*
G36*
X52700Y34000D02*Y33100D01*
X53700D01*
Y34000D01*
X52700D01*
G37*
G36*
X51380Y32165D02*X51169Y31711D01*
X51713Y31458D01*
X51924Y31911D01*
X51380Y32165D01*
G37*
G36*
X52287Y31742D02*X52076Y31289D01*
X52620Y31035D01*
X52831Y31489D01*
X52287Y31742D01*
G37*
G36*
X19500Y66500D02*Y64500D01*
X24500D01*
Y66500D01*
X19500D01*
G37*
G36*
Y69500D02*Y67000D01*
X24500D01*
Y69500D01*
X19500D01*
G37*
G36*
Y64000D02*Y61500D01*
X24500D01*
Y64000D01*
X19500D01*
G37*
G36*
X39200Y27700D02*Y26700D01*
X55800D01*
Y27700D01*
X39200D01*
G37*
G36*
X55800Y42300D02*X54800D01*
Y26700D01*
X55800D01*
Y42300D01*
G37*
G36*
X39200D02*Y41300D01*
X55800D01*
Y42300D01*
X39200D01*
G37*
G36*
X40200D02*X39200D01*
Y26700D01*
X40200D01*
Y42300D01*
G37*
G36*
X45800Y30000D02*X44500D01*
Y28400D01*
X45800D01*
Y30000D01*
G37*
G36*
X43700D02*X42400D01*
Y28400D01*
X43700D01*
Y30000D01*
G37*
G36*
X44591Y32387D02*X44141Y31607D01*
X45007Y31107D01*
X45457Y31887D01*
X44591Y32387D01*
G37*
G36*
X45341Y33686D02*X44891Y32906D01*
X45757Y32406D01*
X46207Y33186D01*
X45341Y33686D01*
G37*
G36*
X62000Y25750D02*Y25250D01*
X62600D01*
Y25750D01*
X62000D01*
G37*
G36*
X61000D02*Y25250D01*
X61600D01*
Y25750D01*
X61000D01*
G37*
G36*
X43450Y32300D02*X42950D01*
Y31700D01*
X43450D01*
Y32300D01*
G37*
G36*
Y31300D02*X42950D01*
Y30700D01*
X43450D01*
Y31300D01*
G37*
G36*
X42350Y33000D02*X41850D01*
Y32400D01*
X42350D01*
Y33000D01*
G37*
G36*
Y32000D02*X41850D01*
Y31400D01*
X42350D01*
Y32000D01*
G37*
G36*
X62000Y26850D02*Y26350D01*
X62600D01*
Y26850D01*
X62000D01*
G37*
G36*
X61000D02*Y26350D01*
X61600D01*
Y26850D01*
X61000D01*
G37*
G36*
X42000Y48650D02*Y48150D01*
X42600D01*
Y48650D01*
X42000D01*
G37*
G36*
X41000D02*Y48150D01*
X41600D01*
Y48650D01*
X41000D01*
G37*
G36*
X40146Y47899D02*X39736Y47612D01*
X40081Y47120D01*
X40490Y47407D01*
X40146Y47899D01*
G37*
G36*
X40719Y47080D02*X40310Y46793D01*
X40654Y46301D01*
X41064Y46588D01*
X40719Y47080D01*
G37*
G36*
X52750Y49100D02*X52250D01*
Y48500D01*
X52750D01*
Y49100D01*
G37*
G36*
Y50100D02*X52250D01*
Y49500D01*
X52750D01*
Y50100D01*
G37*
G36*
X57100Y50500D02*X56200D01*
Y49500D01*
X57100D01*
Y50500D01*
G37*
G36*
X55600D02*X54700D01*
Y49500D01*
X55600D01*
Y50500D01*
G37*
G36*
X54889Y48406D02*X54535Y48052D01*
X54960Y47628D01*
X55313Y47982D01*
X54889Y48406D01*
G37*
G36*
X54182Y49113D02*X53828Y48760D01*
X54252Y48335D01*
X54606Y48689D01*
X54182Y49113D01*
G37*
G36*
X50600Y44150D02*Y43650D01*
X51200D01*
Y44150D01*
X50600D01*
G37*
G36*
X49600D02*Y43650D01*
X50200D01*
Y44150D01*
X49600D01*
G37*
G36*
X49900Y46300D02*Y45400D01*
X50900D01*
Y46300D01*
X49900D01*
G37*
G36*
Y47800D02*Y46900D01*
X50900D01*
Y47800D01*
X49900D01*
G37*
G36*
X43150Y45800D02*X42650D01*
Y45200D01*
X43150D01*
Y45800D01*
G37*
G36*
Y46800D02*X42650D01*
Y46200D01*
X43150D01*
Y46800D01*
G37*
G36*
X45400Y45850D02*Y45350D01*
X46000D01*
Y45850D01*
X45400D01*
G37*
G36*
X44400D02*Y45350D01*
X45000D01*
Y45850D01*
X44400D01*
G37*
G36*
X65350Y64800D02*X64850D01*
Y64200D01*
X65350D01*
Y64800D01*
G37*
G36*
Y65800D02*X64850D01*
Y65200D01*
X65350D01*
Y65800D01*
G37*
G36*
X63850Y67800D02*X63350D01*
Y67200D01*
X63850D01*
Y67800D01*
G37*
G36*
Y66800D02*X63350D01*
Y66200D01*
X63850D01*
Y66800D01*
G37*
G36*
X66450Y64900D02*X65950D01*
Y64300D01*
X66450D01*
Y64900D01*
G37*
G36*
Y65900D02*X65950D01*
Y65300D01*
X66450D01*
Y65900D01*
G37*
G36*
X77550Y58000D02*X77050D01*
Y57400D01*
X77550D01*
Y58000D01*
G37*
G36*
Y59000D02*X77050D01*
Y58400D01*
X77550D01*
Y59000D01*
G37*
G36*
X70600Y53750D02*Y53250D01*
X71200D01*
Y53750D01*
X70600D01*
G37*
G36*
X71600D02*Y53250D01*
X72200D01*
Y53750D01*
X71600D01*
G37*
G36*
X73000Y61150D02*Y60650D01*
X73600D01*
Y61150D01*
X73000D01*
G37*
G36*
X72000D02*Y60650D01*
X72600D01*
Y61150D01*
X72000D01*
G37*
G36*
X70850Y60800D02*X70350D01*
Y60200D01*
X70850D01*
Y60800D01*
G37*
G36*
Y61800D02*X70350D01*
Y61200D01*
X70850D01*
Y61800D01*
G37*
G36*
X77500Y61850D02*Y61350D01*
X78100D01*
Y61850D01*
X77500D01*
G37*
G36*
X78500D02*Y61350D01*
X79100D01*
Y61850D01*
X78500D01*
G37*
G36*
X73600Y66700D02*X72700D01*
Y65700D01*
X73600D01*
Y66700D01*
G37*
G36*
X75100D02*X74200D01*
Y65700D01*
X75100D01*
Y66700D01*
G37*
G36*
X72000Y60150D02*Y59650D01*
X72600D01*
Y60150D01*
X72000D01*
G37*
G36*
X73000D02*Y59650D01*
X73600D01*
Y60150D01*
X73000D01*
G37*
G36*
X72150Y57100D02*X71650D01*
Y56500D01*
X72150D01*
Y57100D01*
G37*
G36*
Y58100D02*X71650D01*
Y57500D01*
X72150D01*
Y58100D01*
G37*
G36*
X71050Y58300D02*X70550D01*
Y57700D01*
X71050D01*
Y58300D01*
G37*
G36*
Y59300D02*X70550D01*
Y58700D01*
X71050D01*
Y59300D01*
G37*
G36*
X73000Y62150D02*Y61650D01*
X73600D01*
Y62150D01*
X73000D01*
G37*
G36*
X72000D02*Y61650D01*
X72600D01*
Y62150D01*
X72000D01*
G37*
G36*
X73000Y59150D02*Y58650D01*
X73600D01*
Y59150D01*
X73000D01*
G37*
G36*
X72000D02*Y58650D01*
X72600D01*
Y59150D01*
X72000D01*
G37*
G36*
X71750Y64200D02*X71250D01*
Y63600D01*
X71750D01*
Y64200D01*
G37*
G36*
Y63200D02*X71250D01*
Y62600D01*
X71750D01*
Y63200D01*
G37*
G36*
X74318Y63035D02*X73965Y62682D01*
X74389Y62258D01*
X74742Y62611D01*
X74318Y63035D01*
G37*
G36*
X73611Y63742D02*X73258Y63389D01*
X73682Y62965D01*
X74035Y63318D01*
X73611Y63742D01*
G37*
G36*
X74399Y58054D02*X74112Y58464D01*
X73620Y58119D01*
X73907Y57710D01*
X74399Y58054D01*
G37*
G36*
X73580Y57481D02*X73293Y57890D01*
X72801Y57546D01*
X73088Y57136D01*
X73580Y57481D01*
G37*
G36*
X75490Y57642D02*X75007Y57772D01*
X74851Y57192D01*
X75334Y57062D01*
X75490Y57642D01*
G37*
G36*
X75749Y58608D02*X75266Y58738D01*
X75110Y58158D01*
X75593Y58028D01*
X75749Y58608D01*
G37*
G36*
X76550Y62800D02*X76050D01*
Y62200D01*
X76550D01*
Y62800D01*
G37*
G36*
Y63800D02*X76050D01*
Y63200D01*
X76550D01*
Y63800D01*
G37*
G36*
X76517Y67018D02*X76084Y66768D01*
X76383Y66248D01*
X76816Y66498D01*
X76517Y67018D01*
G37*
G36*
X77017Y66152D02*X76584Y65902D01*
X76883Y65382D01*
X77316Y65632D01*
X77017Y66152D01*
G37*
G36*
X75507Y64480D02*X75186Y64863D01*
X74727Y64478D01*
X75048Y64094D01*
X75507Y64480D01*
G37*
G36*
X76273Y65122D02*X75952Y65506D01*
X75493Y65120D01*
X75814Y64737D01*
X76273Y65122D01*
G37*
G36*
X80450Y64100D02*X79950D01*
Y63500D01*
X80450D01*
Y64100D01*
G37*
G36*
Y63100D02*X79950D01*
Y62500D01*
X80450D01*
Y63100D01*
G37*
G36*
X77824Y63710D02*X77781Y63212D01*
X78379Y63160D01*
X78422Y63658D01*
X77824Y63710D01*
G37*
G36*
X78821Y63623D02*X78777Y63125D01*
X79375Y63073D01*
X79418Y63571D01*
X78821Y63623D01*
G37*
G36*
X80231Y64811D02*X80020Y65265D01*
X79476Y65011D01*
X79687Y64558D01*
X80231Y64811D01*
G37*
G36*
X79324Y64389D02*X79113Y64842D01*
X78569Y64589D01*
X78780Y64135D01*
X79324Y64389D01*
G37*
G36*
X81550Y65100D02*X81050D01*
Y64500D01*
X81550D01*
Y65100D01*
G37*
G36*
Y64100D02*X81050D01*
Y63500D01*
X81550D01*
Y64100D01*
G37*
G36*
X70988Y66581D02*X70579Y66294D01*
X70923Y65802D01*
X71333Y66089D01*
X70988Y66581D01*
G37*
G36*
X71562Y65761D02*X71153Y65475D01*
X71497Y64983D01*
X71906Y65270D01*
X71562Y65761D01*
G37*
G36*
X94050Y35100D02*X93550D01*
Y34500D01*
X94050D01*
Y35100D01*
G37*
G36*
Y36100D02*X93550D01*
Y35500D01*
X94050D01*
Y36100D01*
G37*
G36*
X59100Y47050D02*Y46550D01*
X59700D01*
Y47050D01*
X59100D01*
G37*
G36*
X58100D02*Y46550D01*
X58700D01*
Y47050D01*
X58100D01*
G37*
G36*
X88350Y43600D02*X87850D01*
Y43000D01*
X88350D01*
Y43600D01*
G37*
G36*
Y42600D02*X87850D01*
Y42000D01*
X88350D01*
Y42600D01*
G37*
G36*
X94000Y39350D02*Y38850D01*
X94600D01*
Y39350D01*
X94000D01*
G37*
G36*
X93000D02*Y38850D01*
X93600D01*
Y39350D01*
X93000D01*
G37*
G36*
X95100Y33400D02*X94200D01*
Y32400D01*
X95100D01*
Y33400D01*
G37*
G36*
X96600D02*X95700D01*
Y32400D01*
X96600D01*
Y33400D01*
G37*
G36*
X93750Y42900D02*X93250D01*
Y42300D01*
X93750D01*
Y42900D01*
G37*
G36*
Y43900D02*X93250D01*
Y43300D01*
X93750D01*
Y43900D01*
G37*
G36*
X89800Y44450D02*Y43950D01*
X90400D01*
Y44450D01*
X89800D01*
G37*
G36*
X90800D02*Y43950D01*
X91400D01*
Y44450D01*
X90800D01*
G37*
G36*
X88200Y38250D02*Y37750D01*
X88800D01*
Y38250D01*
X88200D01*
G37*
G36*
X89200D02*Y37750D01*
X89800D01*
Y38250D01*
X89200D01*
G37*
G36*
X91150Y42600D02*X90650D01*
Y42000D01*
X91150D01*
Y42600D01*
G37*
G36*
Y41600D02*X90650D01*
Y41000D01*
X91150D01*
Y41600D01*
G37*
G36*
X92150Y43600D02*X91650D01*
Y43000D01*
X92150D01*
Y43600D01*
G37*
G36*
Y42600D02*X91650D01*
Y42000D01*
X92150D01*
Y42600D01*
G37*
G36*
X76500Y36350D02*Y35850D01*
X77100D01*
Y36350D01*
X76500D01*
G37*
G36*
X75500D02*Y35850D01*
X76100D01*
Y36350D01*
X75500D01*
G37*
G36*
X85500Y42600D02*X84600D01*
Y41600D01*
X85500D01*
Y42600D01*
G37*
G36*
X87000D02*X86100D01*
Y41600D01*
X87000D01*
Y42600D01*
G37*
G36*
X76850Y38500D02*X76350D01*
Y37900D01*
X76850D01*
Y38500D01*
G37*
G36*
Y39500D02*X76350D01*
Y38900D01*
X76850D01*
Y39500D01*
G37*
G36*
X74200Y39450D02*Y38950D01*
X74800D01*
Y39450D01*
X74200D01*
G37*
G36*
X75200D02*Y38950D01*
X75800D01*
Y39450D01*
X75200D01*
G37*
G36*
X83150Y38100D02*X82650D01*
Y37500D01*
X83150D01*
Y38100D01*
G37*
G36*
Y37100D02*X82650D01*
Y36500D01*
X83150D01*
Y37100D01*
G37*
G36*
X73500Y38200D02*X72600D01*
Y37200D01*
X73500D01*
Y38200D01*
G37*
G36*
X75000D02*X74100D01*
Y37200D01*
X75000D01*
Y38200D01*
G37*
G36*
X80900Y36900D02*X80000D01*
Y35900D01*
X80900D01*
Y36900D01*
G37*
G36*
X79400D02*X78500D01*
Y35900D01*
X79400D01*
Y36900D01*
G37*
G36*
X75700Y35150D02*Y34650D01*
X76300D01*
Y35150D01*
X75700D01*
G37*
G36*
X76700D02*Y34650D01*
X77300D01*
Y35150D01*
X76700D01*
G37*
G36*
X79000Y34950D02*Y34450D01*
X79600D01*
Y34950D01*
X79000D01*
G37*
G36*
X78000D02*Y34450D01*
X78600D01*
Y34950D01*
X78000D01*
G37*
G36*
X79700Y33050D02*Y32550D01*
X80300D01*
Y33050D01*
X79700D01*
G37*
G36*
X78700D02*Y32550D01*
X79300D01*
Y33050D01*
X78700D01*
G37*
G36*
X77500Y33450D02*Y32950D01*
X78100D01*
Y33450D01*
X77500D01*
G37*
G36*
X76500D02*Y32950D01*
X77100D01*
Y33450D01*
X76500D01*
G37*
G36*
X78400Y45800D02*Y44500D01*
X80000D01*
Y45800D01*
X78400D01*
G37*
G36*
Y47900D02*Y46600D01*
X80000D01*
Y47900D01*
X78400D01*
G37*
G36*
X75300Y53900D02*X74400D01*
Y52900D01*
X75300D01*
Y53900D01*
G37*
G36*
X76800D02*X75900D01*
Y52900D01*
X76800D01*
Y53900D01*
G37*
G36*
X73900Y48800D02*X72600D01*
Y47200D01*
X73900D01*
Y48800D01*
G37*
G36*
X71800D02*X70500D01*
Y47200D01*
X71800D01*
Y48800D01*
G37*
G36*
X75300Y46200D02*X74000D01*
Y44600D01*
X75300D01*
Y46200D01*
G37*
G36*
X73200D02*X71900D01*
Y44600D01*
X73200D01*
Y46200D01*
G37*
G36*
X80350Y55700D02*X79850D01*
Y55100D01*
X80350D01*
Y55700D01*
G37*
G36*
Y56700D02*X79850D01*
Y56100D01*
X80350D01*
Y56700D01*
G37*
G36*
X90700Y35900D02*X89800D01*
Y34900D01*
X90700D01*
Y35900D01*
G37*
G36*
X92200D02*X91300D01*
Y34900D01*
X92200D01*
Y35900D01*
G37*
G36*
X51800Y47400D02*Y46100D01*
X53400D01*
Y47400D01*
X51800D01*
G37*
G36*
Y45300D02*Y44000D01*
X53400D01*
Y45300D01*
X51800D01*
G37*
G36*
X25150Y58000D02*X24650D01*
Y57400D01*
X25150D01*
Y58000D01*
G37*
G36*
Y59000D02*X24650D01*
Y58400D01*
X25150D01*
Y59000D01*
G37*
G36*
X25600Y60150D02*Y59650D01*
X26200D01*
Y60150D01*
X25600D01*
G37*
G36*
X26600D02*Y59650D01*
X27200D01*
Y60150D01*
X26600D01*
G37*
G36*
X26900Y61850D02*Y61350D01*
X27500D01*
Y61850D01*
X26900D01*
G37*
G36*
X25900D02*Y61350D01*
X26500D01*
Y61850D01*
X25900D01*
G37*
G36*
X27060Y63823D02*X26680Y64639D01*
X25774Y64217D01*
X26154Y63401D01*
X27060Y63823D01*
G37*
G36*
X26426Y65183D02*X26046Y65999D01*
X25140Y65577D01*
X25520Y64761D01*
X26426Y65183D01*
G37*
G36*
X25700Y58250D02*Y57750D01*
X26300D01*
Y58250D01*
X25700D01*
G37*
G36*
X26700D02*Y57750D01*
X27300D01*
Y58250D01*
X26700D01*
G37*
G36*
X26250Y56200D02*X25750D01*
Y55600D01*
X26250D01*
Y56200D01*
G37*
G36*
Y57200D02*X25750D01*
Y56600D01*
X26250D01*
Y57200D01*
G37*
G36*
X28550Y60900D02*X28050D01*
Y60300D01*
X28550D01*
Y60900D01*
G37*
G36*
Y59900D02*X28050D01*
Y59300D01*
X28550D01*
Y59900D01*
G37*
G36*
X44435Y47682D02*X44082Y48035D01*
X43658Y47611D01*
X44011Y47258D01*
X44435Y47682D01*
G37*
G36*
X45142Y48389D02*X44789Y48742D01*
X44365Y48318D01*
X44718Y47965D01*
X45142Y48389D01*
G37*
G36*
X45235Y46782D02*X44882Y47135D01*
X44458Y46711D01*
X44811Y46358D01*
X45235Y46782D01*
G37*
G36*
X45942Y47489D02*X45589Y47842D01*
X45165Y47418D01*
X45518Y47065D01*
X45942Y47489D01*
G37*
G36*
X82300Y60150D02*Y59650D01*
X82900D01*
Y60150D01*
X82300D01*
G37*
G36*
X81300D02*Y59650D01*
X81900D01*
Y60150D01*
X81300D01*
G37*
G36*
X82300Y58550D02*Y58050D01*
X82900D01*
Y58550D01*
X82300D01*
G37*
G36*
X81300D02*Y58050D01*
X81900D01*
Y58550D01*
X81300D01*
G37*
G36*
X84050Y49300D02*X83550D01*
Y48700D01*
X84050D01*
Y49300D01*
G37*
G36*
Y50300D02*X83550D01*
Y49700D01*
X84050D01*
Y50300D01*
G37*
G36*
X82950Y49300D02*X82450D01*
Y48700D01*
X82950D01*
Y49300D01*
G37*
G36*
Y50300D02*X82450D01*
Y49700D01*
X82950D01*
Y50300D01*
G37*
G36*
X81850Y49300D02*X81350D01*
Y48700D01*
X81850D01*
Y49300D01*
G37*
G36*
Y50300D02*X81350D01*
Y49700D01*
X81850D01*
Y50300D01*
G37*
G36*
X101200Y48200D02*X100300D01*
Y47200D01*
X101200D01*
Y48200D01*
G37*
G36*
X99700D02*X98800D01*
Y47200D01*
X99700D01*
Y48200D01*
G37*
G36*
X101200Y49900D02*X100300D01*
Y48900D01*
X101200D01*
Y49900D01*
G37*
G36*
X99700D02*X98800D01*
Y48900D01*
X99700D01*
Y49900D01*
G37*
G36*
X79400Y58400D02*Y57500D01*
X80400D01*
Y58400D01*
X79400D01*
G37*
G36*
Y59900D02*Y59000D01*
X80400D01*
Y59900D01*
X79400D01*
G37*
G36*
X106500Y61600D02*Y60700D01*
X107500D01*
Y61600D01*
X106500D01*
G37*
G36*
Y60100D02*Y59200D01*
X107500D01*
Y60100D01*
X106500D01*
G37*
G36*
Y56700D02*Y55800D01*
X107500D01*
Y56700D01*
X106500D01*
G37*
G36*
Y58200D02*Y57300D01*
X107500D01*
Y58200D01*
X106500D01*
G37*
G36*
Y68500D02*Y67600D01*
X107500D01*
Y68500D01*
X106500D01*
G37*
G36*
Y67000D02*Y66100D01*
X107500D01*
Y67000D01*
X106500D01*
G37*
G36*
Y63500D02*Y62600D01*
X107500D01*
Y63500D01*
X106500D01*
G37*
G36*
Y65000D02*Y64100D01*
X107500D01*
Y65000D01*
X106500D01*
G37*
G36*
X82000Y56950D02*Y56450D01*
X82600D01*
Y56950D01*
X82000D01*
G37*
G36*
X81000D02*Y56450D01*
X81600D01*
Y56950D01*
X81000D01*
G37*
G36*
X88300Y68800D02*X86500D01*
Y66000D01*
X88300D01*
Y68800D01*
G37*
G36*
X80100D02*X78300D01*
Y66000D01*
X80100D01*
Y68800D01*
G37*
G36*
X90700Y49800D02*X89800D01*
Y48800D01*
X90700D01*
Y49800D01*
G37*
G36*
X89200D02*X88300D01*
Y48800D01*
X89200D01*
Y49800D01*
G37*
G36*
X93200Y52100D02*Y50800D01*
X94800D01*
Y52100D01*
X93200D01*
G37*
G36*
Y54200D02*Y52900D01*
X94800D01*
Y54200D01*
X93200D01*
G37*
G36*
X91000Y52100D02*Y50800D01*
X92600D01*
Y52100D01*
X91000D01*
G37*
G36*
Y54200D02*Y52900D01*
X92600D01*
Y54200D01*
X91000D01*
G37*
G36*
X95700Y58700D02*X94400D01*
Y57100D01*
X95700D01*
Y58700D01*
G37*
G36*
X97800D02*X96500D01*
Y57100D01*
X97800D01*
Y58700D01*
G37*
G36*
X97700Y61100D02*X96400D01*
Y59500D01*
X97700D01*
Y61100D01*
G37*
G36*
X99800D02*X98500D01*
Y59500D01*
X99800D01*
Y61100D01*
G37*
G36*
X85400Y51700D02*Y50400D01*
X87000D01*
Y51700D01*
X85400D01*
G37*
G36*
Y53800D02*Y52500D01*
X87000D01*
Y53800D01*
X85400D01*
G37*
G36*
X87600Y51700D02*Y50400D01*
X89200D01*
Y51700D01*
X87600D01*
G37*
G36*
Y53800D02*Y52500D01*
X89200D01*
Y53800D01*
X87600D01*
G37*
G36*
X91167Y58019D02*X89887Y57793D01*
X90165Y56217D01*
X91445Y56443D01*
X91167Y58019D01*
G37*
G36*
X93236Y58383D02*X91955Y58158D01*
X92232Y56582D01*
X93513Y56807D01*
X93236Y58383D01*
G37*
G36*
X89362Y56868D02*X89249Y58163D01*
X87655Y58024D01*
X87768Y56729D01*
X89362Y56868D01*
G37*
G36*
X89545Y54776D02*X89432Y56071D01*
X87838Y55932D01*
X87951Y54637D01*
X89545Y54776D01*
G37*
G36*
X83438Y65174D02*X82789Y64048D01*
X84175Y63249D01*
X84824Y64375D01*
X83438Y65174D01*
G37*
G36*
X82389Y63356D02*X81739Y62230D01*
X83125Y61430D01*
X83775Y62556D01*
X82389Y63356D01*
G37*
G36*
X19500Y30500D02*Y28500D01*
X24500D01*
Y30500D01*
X19500D01*
G37*
G36*
Y28000D02*Y25500D01*
X24500D01*
Y28000D01*
X19500D01*
G37*
G36*
Y33500D02*Y31000D01*
X24500D01*
Y33500D01*
X19500D01*
G37*
G36*
X26800Y32150D02*Y31650D01*
X27400D01*
Y32150D01*
X26800D01*
G37*
G36*
X27800D02*Y31650D01*
X28400D01*
Y32150D01*
X27800D01*
G37*
G36*
X29650Y33700D02*X29150D01*
Y33100D01*
X29650D01*
Y33700D01*
G37*
G36*
Y34700D02*X29150D01*
Y34100D01*
X29650D01*
Y34700D01*
G37*
G36*
X26478Y31070D02*X25963Y30332D01*
X26782Y29759D01*
X27298Y30496D01*
X26478Y31070D01*
G37*
G36*
X25618Y29841D02*X25102Y29104D01*
X25922Y28530D01*
X26437Y29268D01*
X25618Y29841D01*
G37*
G36*
X27524Y33089D02*X27313Y33542D01*
X26769Y33289D01*
X26980Y32835D01*
X27524Y33089D01*
G37*
G36*
X28431Y33511D02*X28220Y33965D01*
X27676Y33711D01*
X27887Y33258D01*
X28431Y33511D01*
G37*
G36*
X44102Y38605D02*X43466Y39241D01*
X42759Y38534D01*
X43395Y37898D01*
X44102Y38605D01*
G37*
G36*
X43041Y39666D02*X42405Y40302D01*
X41698Y39595D01*
X42334Y38959D01*
X43041Y39666D01*
G37*
G36*
X85800Y48200D02*X84500D01*
Y46600D01*
X85800D01*
Y48200D01*
G37*
G36*
X87900D02*X86600D01*
Y46600D01*
X87900D01*
Y48200D01*
G37*
G36*
X74900Y40850D02*Y40350D01*
X75500D01*
Y40850D01*
X74900D01*
G37*
G36*
X75900D02*Y40350D01*
X76500D01*
Y40850D01*
X75900D01*
G37*
G36*
X73000Y39450D02*Y38950D01*
X73600D01*
Y39450D01*
X73000D01*
G37*
G36*
X72000D02*Y38950D01*
X72600D01*
Y39450D01*
X72000D01*
G37*
G36*
X72700Y41100D02*X71800D01*
Y40100D01*
X72700D01*
Y41100D01*
G37*
G36*
X74200D02*X73300D01*
Y40100D01*
X74200D01*
Y41100D01*
G37*
G36*
X60550Y49200D02*X60050D01*
Y48600D01*
X60550D01*
Y49200D01*
G37*
G36*
Y50200D02*X60050D01*
Y49600D01*
X60550D01*
Y50200D01*
G37*
G36*
X58900Y50250D02*Y49750D01*
X59500D01*
Y50250D01*
X58900D01*
G37*
G36*
X57900D02*Y49750D01*
X58500D01*
Y50250D01*
X57900D01*
G37*
G36*
X65602Y67624D02*X65149Y67413D01*
X65403Y66869D01*
X65856Y67080D01*
X65602Y67624D01*
G37*
G36*
X65180Y68530D02*X64727Y68319D01*
X64980Y67775D01*
X65433Y67987D01*
X65180Y68530D01*
G37*
G36*
X76918Y46435D02*X76565Y46082D01*
X76989Y45658D01*
X77342Y46011D01*
X76918Y46435D01*
G37*
G36*
X76211Y47142D02*X75858Y46789D01*
X76282Y46365D01*
X76635Y46718D01*
X76211Y47142D01*
G37*
G36*
X76399Y47954D02*X76112Y48364D01*
X75620Y48019D01*
X75907Y47610D01*
X76399Y47954D01*
G37*
G36*
X75580Y47381D02*X75293Y47790D01*
X74801Y47446D01*
X75088Y47036D01*
X75580Y47381D01*
G37*
G36*
X57200Y48150D02*Y47650D01*
X57800D01*
Y48150D01*
X57200D01*
G37*
G36*
X58200D02*Y47650D01*
X58800D01*
Y48150D01*
X58200D01*
G37*
G36*
X56650Y48300D02*X56150D01*
Y47700D01*
X56650D01*
Y48300D01*
G37*
G36*
Y47300D02*X56150D01*
Y46700D01*
X56650D01*
Y47300D01*
G37*
G36*
X91500Y37450D02*Y36950D01*
X92100D01*
Y37450D01*
X91500D01*
G37*
G36*
X92500D02*Y36950D01*
X93100D01*
Y37450D01*
X92500D01*
G37*
G36*
X87400Y39250D02*Y38750D01*
X88000D01*
Y39250D01*
X87400D01*
G37*
G36*
X86400D02*Y38750D01*
X87000D01*
Y39250D01*
X86400D01*
G37*
G36*
X87400Y40250D02*Y39750D01*
X88000D01*
Y40250D01*
X87400D01*
G37*
G36*
X86400D02*Y39750D01*
X87000D01*
Y40250D01*
X86400D01*
G37*
G36*
X57750Y32700D02*X57250D01*
Y32100D01*
X57750D01*
Y32700D01*
G37*
G36*
Y31700D02*X57250D01*
Y31100D01*
X57750D01*
Y31700D01*
G37*
G36*
X53950Y31000D02*X53450D01*
Y30400D01*
X53950D01*
Y31000D01*
G37*
G36*
Y32000D02*X53450D01*
Y31400D01*
X53950D01*
Y32000D01*
G37*
G36*
X90050Y34200D02*X89550D01*
Y33600D01*
X90050D01*
Y34200D01*
G37*
G36*
Y33200D02*X89550D01*
Y32600D01*
X90050D01*
Y33200D01*
G37*
G36*
X92900Y33450D02*Y32950D01*
X93500D01*
Y33450D01*
X92900D01*
G37*
G36*
X91900D02*Y32950D01*
X92500D01*
Y33450D01*
X91900D01*
G37*
G36*
X89550Y42600D02*X89050D01*
Y42000D01*
X89550D01*
Y42600D01*
G37*
G36*
Y41600D02*X89050D01*
Y41000D01*
X89550D01*
Y41600D01*
G37*
G36*
X55000Y46000D02*X54100D01*
Y45000D01*
X55000D01*
Y46000D01*
G37*
G36*
X56500D02*X55600D01*
Y45000D01*
X56500D01*
Y46000D01*
G37*
G36*
X78016Y40069D02*X77860Y39182D01*
X78844Y39008D01*
X79001Y39895D01*
X78016Y40069D01*
G37*
G36*
X77756Y38592D02*X77599Y37705D01*
X78584Y37531D01*
X78740Y38418D01*
X77756Y38592D01*
G37*
G36*
X79906Y39575D02*X79357Y38397D01*
X80807Y37721D01*
X81356Y38900D01*
X79906Y39575D01*
G37*
G36*
X80793Y41479D02*X80244Y40300D01*
X81694Y39625D01*
X82243Y40803D01*
X80793Y41479D01*
G37*
G36*
X78016Y41102D02*X77583Y41352D01*
X77284Y40832D01*
X77717Y40582D01*
X78016Y41102D01*
G37*
G36*
X78517Y41968D02*X78083Y42218D01*
X77783Y41698D01*
X78217Y41448D01*
X78517Y41968D01*
G37*
G36*
X80600Y43100D02*X79700D01*
Y42100D01*
X80600D01*
Y43100D01*
G37*
G36*
X82100D02*X81200D01*
Y42100D01*
X82100D01*
Y43100D01*
G37*
G36*
X51550Y58100D02*X51050D01*
Y57500D01*
X51550D01*
Y58100D01*
G37*
G36*
Y59100D02*X51050D01*
Y58500D01*
X51550D01*
Y59100D01*
G37*
G36*
X48300Y57750D02*Y57250D01*
X48900D01*
Y57750D01*
X48300D01*
G37*
G36*
X49300D02*Y57250D01*
X49900D01*
Y57750D01*
X49300D01*
G37*
G36*
X48800Y58850D02*Y58350D01*
X49400D01*
Y58850D01*
X48800D01*
G37*
G36*
X47800D02*Y58350D01*
X48400D01*
Y58850D01*
X47800D01*
G37*
G36*
X36800Y55600D02*Y54600D01*
X53400D01*
Y55600D01*
X36800D01*
G37*
G36*
X53400Y70200D02*X52400D01*
Y54600D01*
X53400D01*
Y70200D01*
G37*
G36*
X36800D02*Y69200D01*
X53400D01*
Y70200D01*
X36800D01*
G37*
G36*
X37800D02*X36800D01*
Y54600D01*
X37800D01*
Y70200D01*
G37*
G36*
X41600Y66550D02*Y66050D01*
X42200D01*
Y66550D01*
X41600D01*
G37*
G36*
X40600D02*Y66050D01*
X41200D01*
Y66550D01*
X40600D01*
G37*
G36*
X42700Y64600D02*Y63700D01*
X43700D01*
Y64600D01*
X42700D01*
G37*
G36*
Y66100D02*Y65200D01*
X43700D01*
Y66100D01*
X42700D01*
G37*
G36*
Y61700D02*Y60800D01*
X43700D01*
Y61700D01*
X42700D01*
G37*
G36*
Y60200D02*Y59300D01*
X43700D01*
Y60200D01*
X42700D01*
G37*
G36*
X41388Y65441D02*X40810Y64751D01*
X41576Y64108D01*
X42154Y64798D01*
X41388Y65441D01*
G37*
G36*
X40424Y64292D02*X39846Y63602D01*
X40612Y62959D01*
X41190Y63649D01*
X40424Y64292D01*
G37*
G36*
X42154Y60602D02*X41576Y61292D01*
X40810Y60649D01*
X41388Y59959D01*
X42154Y60602D01*
G37*
G36*
X41190Y61751D02*X40612Y62441D01*
X39846Y61798D01*
X40424Y61108D01*
X41190Y61751D01*
G37*
G36*
X45029Y61017D02*X44620Y61304D01*
X44276Y60813D01*
X44685Y60526D01*
X45029Y61017D01*
G37*
G36*
X45603Y61836D02*X45193Y62123D01*
X44849Y61632D01*
X45259Y61345D01*
X45603Y61836D01*
G37*
G36*
X44646Y64899D02*X44236Y64612D01*
X44581Y64120D01*
X44990Y64407D01*
X44646Y64899D01*
G37*
G36*
X45219Y64080D02*X44810Y63793D01*
X45154Y63301D01*
X45564Y63588D01*
X45219Y64080D01*
G37*
G36*
X49493Y61272D02*X49010Y61142D01*
X49166Y60562D01*
X49649Y60692D01*
X49493Y61272D01*
G37*
G36*
X49234Y62238D02*X48751Y62108D01*
X48907Y61528D01*
X49390Y61658D01*
X49234Y62238D01*
G37*
G36*
X48650Y66600D02*X48150D01*
Y66000D01*
X48650D01*
Y66600D01*
G37*
G36*
Y65600D02*X48150D01*
Y65000D01*
X48650D01*
Y65600D01*
G37*
G54D150*X87300Y25300D02*X87400D01*
X94600D02*X94700D01*
G54D151*X88500Y28000D02*X88600D01*
X93400D02*X93500D01*
G54D149*G36*
X67400Y44800D02*X66200D01*
Y43500D01*
X67400D01*
Y44800D01*
G37*
G36*
X65600D02*X64400D01*
Y43500D01*
X65600D01*
Y44800D01*
G37*
G36*
X49485Y29407D02*X48635Y30254D01*
X47717Y29333D01*
X48567Y28486D01*
X49485Y29407D01*
G37*
G36*
X48212Y30676D02*X47365Y31526D01*
X46444Y30609D01*
X47291Y29759D01*
X48212Y30676D01*
G37*
G36*
X71500Y52100D02*X70300D01*
Y50800D01*
X71500D01*
Y52100D01*
G37*
G36*
X73300D02*X72100D01*
Y50800D01*
X73300D01*
Y52100D01*
G37*
G36*
X77500Y54400D02*Y53200D01*
X78800D01*
Y54400D01*
X77500D01*
G37*
G36*
Y56200D02*Y55000D01*
X78800D01*
Y56200D01*
X77500D01*
G37*
G36*
X87270Y56601D02*X86670Y57640D01*
X85544Y56990D01*
X86144Y55951D01*
X87270Y56601D01*
G37*
G36*
X86370Y58161D02*X85769Y59199D01*
X84644Y58548D01*
X85245Y57510D01*
X86370Y58161D01*
G37*
G36*
X87419Y60787D02*X86820Y61827D01*
X85694Y61177D01*
X86293Y60138D01*
X87419Y60787D01*
G37*
G36*
X86520Y62346D02*X85920Y63386D01*
X84794Y62736D01*
X85394Y61696D01*
X86520Y62346D01*
G37*
M02*
