G04 start of page 8 for group -4063 idx -4063 *
G04 Title: v2_0, componentmask *
G04 Creator: pcb 4.2.0 *
G04 CreationDate: Sun Sep 29 12:02:10 2019 UTC *
G04 For: user *
G04 Format: Gerber/RS-274X *
G04 PCB-Dimensions (mm): 140.00 90.00 *
G04 PCB-Coordinate-Origin: lower left *
%MOMM*%
%FSLAX43Y43*%
%LNGTS*%
%ADD124C,1.950*%
%ADD123C,5.750*%
%ADD122C,2.152*%
%ADD121C,2.102*%
%ADD120C,1.302*%
%ADD119C,1.952*%
%ADD118C,1.552*%
%ADD117C,1.826*%
%ADD116C,0.002*%
%ADD115C,0.852*%
%ADD114C,1.652*%
%ADD113C,1.852*%
G54D113*X103700Y63300D03*
Y60750D03*
Y58200D03*
Y55700D03*
Y53150D03*
Y50600D03*
G54D114*X85300Y67400D03*
X83300D03*
X81300D03*
G54D115*X87400D03*
G54D116*G36*
X92387Y70113D02*Y68287D01*
X94213D01*
Y70113D01*
X92387D01*
G37*
G54D117*X90760Y69200D03*
G54D115*X79200Y67400D03*
G54D118*X22600Y68800D03*
Y67700D03*
X23800Y68800D03*
Y67700D03*
X20200Y68800D03*
Y67700D03*
X21400Y68800D03*
Y67700D03*
X20200Y63300D03*
Y62200D03*
X21400Y63300D03*
X22600D03*
X23800D03*
X21400Y62200D03*
X22600D03*
X23800D03*
G54D113*X30200Y50600D03*
Y48050D03*
Y45500D03*
Y43000D03*
X103700Y48050D03*
Y45500D03*
X85200Y35100D03*
G54D119*Y27500D03*
G54D120*X88550Y28000D03*
X93450D03*
G54D113*X103700Y43000D03*
Y40450D03*
Y37900D03*
Y35350D03*
Y32800D03*
Y30250D03*
G54D121*X78700Y26100D03*
G54D122*X87350Y25300D03*
X94650D03*
G54D121*X73700Y26100D03*
G54D113*X107500Y35000D03*
Y37550D03*
Y40100D03*
Y32500D03*
Y29950D03*
G54D118*X23800Y26200D03*
Y27300D03*
X22600Y26200D03*
Y27300D03*
X21400Y26200D03*
Y27300D03*
X20200Y26200D03*
Y27300D03*
X23800Y31700D03*
Y32800D03*
X22600Y31700D03*
Y32800D03*
X21400Y31700D03*
Y32800D03*
X20200Y31700D03*
Y32800D03*
G54D123*X31500Y28500D03*
X99000Y65000D03*
Y28500D03*
X31500Y65000D03*
G54D116*G36*
X86642Y40178D02*Y39822D01*
X87861D01*
Y40178D01*
X86642D01*
G37*
G36*
Y39678D02*Y39322D01*
X87861D01*
Y39678D01*
X86642D01*
G37*
G36*
Y39178D02*Y38822D01*
X87861D01*
Y39178D01*
X86642D01*
G37*
G36*
Y38678D02*Y38322D01*
X87861D01*
Y38678D01*
X86642D01*
G37*
G36*
Y38178D02*Y37822D01*
X87861D01*
Y38178D01*
X86642D01*
G37*
G36*
X93878Y37161D02*X93522D01*
Y35942D01*
X93878D01*
Y37161D01*
G37*
G36*
X94378D02*X94022D01*
Y35942D01*
X94378D01*
Y37161D01*
G37*
G36*
X95039Y38178D02*Y37822D01*
X96258D01*
Y38178D01*
X95039D01*
G37*
G36*
Y38678D02*Y38322D01*
X96258D01*
Y38678D01*
X95039D01*
G37*
G36*
Y39178D02*Y38822D01*
X96258D01*
Y39178D01*
X95039D01*
G37*
G36*
Y39678D02*Y39322D01*
X96258D01*
Y39678D01*
X95039D01*
G37*
G36*
Y40178D02*Y39822D01*
X96258D01*
Y40178D01*
X95039D01*
G37*
G36*
Y40678D02*Y40322D01*
X96258D01*
Y40678D01*
X95039D01*
G37*
G36*
Y41178D02*Y40822D01*
X96258D01*
Y41178D01*
X95039D01*
G37*
G36*
Y41678D02*Y41322D01*
X96258D01*
Y41678D01*
X95039D01*
G37*
G36*
Y42178D02*Y41822D01*
X96258D01*
Y42178D01*
X95039D01*
G37*
G36*
Y42678D02*Y42322D01*
X96258D01*
Y42678D01*
X95039D01*
G37*
G36*
Y43178D02*Y42822D01*
X96258D01*
Y43178D01*
X95039D01*
G37*
G36*
Y43678D02*Y43322D01*
X96258D01*
Y43678D01*
X95039D01*
G37*
G36*
X88878Y37161D02*X88522D01*
Y35942D01*
X88878D01*
Y37161D01*
G37*
G36*
X89378D02*X89022D01*
Y35942D01*
X89378D01*
Y37161D01*
G37*
G36*
X89878D02*X89522D01*
Y35942D01*
X89878D01*
Y37161D01*
G37*
G36*
X90378D02*X90022D01*
Y35942D01*
X90378D01*
Y37161D01*
G37*
G36*
X90878D02*X90522D01*
Y35942D01*
X90878D01*
Y37161D01*
G37*
G36*
X91378D02*X91022D01*
Y35942D01*
X91378D01*
Y37161D01*
G37*
G36*
X91878D02*X91522D01*
Y35942D01*
X91878D01*
Y37161D01*
G37*
G36*
X92378D02*X92022D01*
Y35942D01*
X92378D01*
Y37161D01*
G37*
G36*
X92878D02*X92522D01*
Y35942D01*
X92878D01*
Y37161D01*
G37*
G36*
X93378D02*X93022D01*
Y35942D01*
X93378D01*
Y37161D01*
G37*
G36*
X89925Y29325D02*X89475D01*
Y27275D01*
X89925D01*
Y29325D01*
G37*
G36*
X92525D02*X92075D01*
Y27275D01*
X92525D01*
Y29325D01*
G37*
G36*
X90600Y29350D02*X90100D01*
Y27250D01*
X90600D01*
Y29350D01*
G37*
G36*
X87000Y28700D02*Y27000D01*
X89200D01*
Y28700D01*
X87000D01*
G37*
G36*
X91900Y29350D02*X91400D01*
Y27250D01*
X91900D01*
Y29350D01*
G37*
G36*
X92800Y28700D02*Y27000D01*
X95000D01*
Y28700D01*
X92800D01*
G37*
G36*
X91250Y29350D02*X90750D01*
Y27250D01*
X91250D01*
Y29350D01*
G37*
G36*
X88850Y26200D02*Y24300D01*
X90750D01*
Y26200D01*
X88850D01*
G37*
G36*
X91250D02*Y24300D01*
X93150D01*
Y26200D01*
X91250D01*
G37*
G54D124*X87300Y25300D02*X87400D01*
X94600D02*X94700D01*
G54D116*G36*
X86642Y43678D02*Y43322D01*
X87861D01*
Y43678D01*
X86642D01*
G37*
G36*
Y43178D02*Y42822D01*
X87861D01*
Y43178D01*
X86642D01*
G37*
G36*
Y42678D02*Y42322D01*
X87861D01*
Y42678D01*
X86642D01*
G37*
G36*
Y42178D02*Y41822D01*
X87861D01*
Y42178D01*
X86642D01*
G37*
G36*
Y41678D02*Y41322D01*
X87861D01*
Y41678D01*
X86642D01*
G37*
G36*
Y41178D02*Y40822D01*
X87861D01*
Y41178D01*
X86642D01*
G37*
G36*
Y40678D02*Y40322D01*
X87861D01*
Y40678D01*
X86642D01*
G37*
G36*
X79497Y37076D02*Y36514D01*
X81710D01*
Y37076D01*
X79497D01*
G37*
G36*
Y38346D02*Y37784D01*
X81710D01*
Y38346D01*
X79497D01*
G37*
G36*
X74290D02*Y37784D01*
X76503D01*
Y38346D01*
X74290D01*
G37*
G36*
Y37076D02*Y36514D01*
X76503D01*
Y37076D01*
X74290D01*
G37*
G36*
Y40886D02*Y40324D01*
X76503D01*
Y40886D01*
X74290D01*
G37*
G36*
Y39616D02*Y39054D01*
X76503D01*
Y39616D01*
X74290D01*
G37*
G36*
X78750Y33450D02*Y33150D01*
X79550D01*
Y33450D01*
X78750D01*
G37*
G36*
X77750Y30850D02*Y28950D01*
X79750D01*
Y30850D01*
X77750D01*
G37*
G36*
X72650D02*Y28950D01*
X74650D01*
Y30850D01*
X72650D01*
G37*
G36*
X75250D02*Y28950D01*
X77150D01*
Y30850D01*
X75250D01*
G37*
G36*
X78750Y33900D02*Y33600D01*
X79550D01*
Y33900D01*
X78750D01*
G37*
G36*
Y34350D02*Y34050D01*
X79550D01*
Y34350D01*
X78750D01*
G37*
G36*
X80800Y25900D02*Y24300D01*
X82400D01*
Y25900D01*
X80800D01*
G37*
G36*
X70000D02*Y24300D01*
X71600D01*
Y25900D01*
X70000D01*
G37*
G36*
X79497Y39616D02*Y39054D01*
X81710D01*
Y39616D01*
X79497D01*
G37*
G36*
Y40886D02*Y40324D01*
X81710D01*
Y40886D01*
X79497D01*
G37*
G36*
X78750Y34800D02*Y34500D01*
X79550D01*
Y34800D01*
X78750D01*
G37*
G36*
X78650Y35430D02*X78350D01*
Y34630D01*
X78650D01*
Y35430D01*
G37*
G36*
X78250D02*X77950D01*
Y34630D01*
X78250D01*
Y35430D01*
G37*
G36*
X78650Y33330D02*X78350D01*
Y32530D01*
X78650D01*
Y33330D01*
G37*
G36*
X78250D02*X77950D01*
Y32530D01*
X78250D01*
Y33330D01*
G37*
G36*
X77850D02*X77550D01*
Y32530D01*
X77850D01*
Y33330D01*
G37*
G36*
X76650Y33450D02*Y33150D01*
X77450D01*
Y33450D01*
X76650D01*
G37*
G36*
Y33900D02*Y33600D01*
X77450D01*
Y33900D01*
X76650D01*
G37*
G36*
Y34350D02*Y34050D01*
X77450D01*
Y34350D01*
X76650D01*
G37*
G36*
Y34800D02*Y34500D01*
X77450D01*
Y34800D01*
X76650D01*
G37*
G36*
X77850Y35430D02*X77550D01*
Y34630D01*
X77850D01*
Y35430D01*
G37*
G36*
X77550Y34530D02*Y33430D01*
X78650D01*
Y34530D01*
X77550D01*
G37*
G36*
X94378Y45558D02*X94022D01*
Y44339D01*
X94378D01*
Y45558D01*
G37*
G36*
X93878D02*X93522D01*
Y44339D01*
X93878D01*
Y45558D01*
G37*
G36*
X93378D02*X93022D01*
Y44339D01*
X93378D01*
Y45558D01*
G37*
G36*
X91601Y54078D02*X90989D01*
Y51815D01*
X91601D01*
Y54078D01*
G37*
G36*
X92871D02*X92259D01*
Y51815D01*
X92871D01*
Y54078D01*
G37*
G36*
X94141D02*X93529D01*
Y51815D01*
X94141D01*
Y54078D01*
G37*
G36*
X95411D02*X94799D01*
Y51815D01*
X95411D01*
Y54078D01*
G37*
G36*
X92878Y45558D02*X92522D01*
Y44339D01*
X92878D01*
Y45558D01*
G37*
G36*
X92378D02*X92022D01*
Y44339D01*
X92378D01*
Y45558D01*
G37*
G36*
X91878D02*X91522D01*
Y44339D01*
X91878D01*
Y45558D01*
G37*
G36*
X91378D02*X91022D01*
Y44339D01*
X91378D01*
Y45558D01*
G37*
G36*
X90878D02*X90522D01*
Y44339D01*
X90878D01*
Y45558D01*
G37*
G36*
X90378D02*X90022D01*
Y44339D01*
X90378D01*
Y45558D01*
G37*
G36*
X89878D02*X89522D01*
Y44339D01*
X89878D01*
Y45558D01*
G37*
G36*
X89378D02*X89022D01*
Y44339D01*
X89378D01*
Y45558D01*
G37*
G36*
X88878D02*X88522D01*
Y44339D01*
X88878D01*
Y45558D01*
G37*
G36*
X60671Y34969D02*X60671Y34631D01*
X61929Y34631D01*
X61929Y34969D01*
X60671Y34969D01*
G37*
G36*
X60671Y35469D02*X60671Y35131D01*
X61929Y35131D01*
X61929Y35469D01*
X60671Y35469D01*
G37*
G36*
X60671Y35969D02*X60671Y35631D01*
X61929Y35631D01*
X61929Y35969D01*
X60671Y35969D01*
G37*
G36*
X60671Y36469D02*X60671Y36131D01*
X61929Y36131D01*
X61929Y36469D01*
X60671Y36469D01*
G37*
G36*
X62350Y38150D02*Y34950D01*
X65550D01*
Y38150D01*
X62350D01*
G37*
G36*
X65869Y34529D02*X65531Y34529D01*
X65531Y33271D01*
X65869Y33271D01*
X65869Y34529D01*
G37*
G36*
X65369Y34529D02*X65031Y34529D01*
X65031Y33271D01*
X65369Y33271D01*
X65369Y34529D01*
G37*
G36*
X64869Y34529D02*X64531Y34529D01*
X64531Y33271D01*
X64869Y33271D01*
X64869Y34529D01*
G37*
G36*
X64369Y34529D02*X64031Y34529D01*
X64031Y33271D01*
X64369Y33271D01*
X64369Y34529D01*
G37*
G36*
X63869Y34529D02*X63531Y34529D01*
X63531Y33271D01*
X63869Y33271D01*
X63869Y34529D01*
G37*
G36*
X63369Y34529D02*X63031D01*
Y33271D01*
X63369D01*
Y34529D01*
G37*
G36*
X62869Y34529D02*X62531Y34529D01*
X62531Y33271D01*
X62869Y33271D01*
X62869Y34529D01*
G37*
G36*
X64250Y30650D02*Y29650D01*
X65350D01*
Y30650D01*
X64250D01*
G37*
G36*
X62550D02*Y29650D01*
X63650D01*
Y30650D01*
X62550D01*
G37*
G36*
X64250Y32150D02*Y31150D01*
X65350D01*
Y32150D01*
X64250D01*
G37*
G36*
X62550D02*Y31150D01*
X63650D01*
Y32150D01*
X62550D01*
G37*
G36*
X55825Y42325D02*X54775D01*
Y26675D01*
X55825D01*
Y42325D01*
G37*
G36*
X62369Y34529D02*X62031Y34529D01*
X62031Y33271D01*
X62369Y33271D01*
X62369Y34529D01*
G37*
G36*
X51100Y33450D02*X50800D01*
Y32650D01*
X51100D01*
Y33450D01*
G37*
G36*
X50195Y32525D02*Y31475D01*
X51245D01*
Y32525D01*
X50195D01*
G37*
G36*
X50625Y33425D02*X50375D01*
Y32675D01*
X50625D01*
Y33425D01*
G37*
G36*
X50200Y33450D02*X49900D01*
Y32650D01*
X50200D01*
Y33450D01*
G37*
G36*
X49270Y32550D02*Y32250D01*
X50070D01*
Y32550D01*
X49270D01*
G37*
G36*
X49295Y32125D02*Y31875D01*
X50045D01*
Y32125D01*
X49295D01*
G37*
G36*
X49270Y31750D02*Y31450D01*
X50070D01*
Y31750D01*
X49270D01*
G37*
G36*
X51395Y32525D02*Y32275D01*
X52145D01*
Y32525D01*
X51395D01*
G37*
G36*
Y32125D02*Y31875D01*
X52145D01*
Y32125D01*
X51395D01*
G37*
G36*
X51370Y31750D02*Y31450D01*
X52170D01*
Y31750D01*
X51370D01*
G37*
G36*
X41375Y32125D02*Y31875D01*
X42125D01*
Y32125D01*
X41375D01*
G37*
G36*
Y32575D02*Y32325D01*
X42125D01*
Y32575D01*
X41375D01*
G37*
G36*
Y33025D02*Y32775D01*
X42125D01*
Y33025D01*
X41375D01*
G37*
G36*
X41350Y33500D02*Y33200D01*
X42150D01*
Y33500D01*
X41350D01*
G37*
G36*
X43325Y32005D02*X43075D01*
Y31255D01*
X43325D01*
Y32005D01*
G37*
G36*
X42925D02*X42675D01*
Y31255D01*
X42925D01*
Y32005D01*
G37*
G36*
X42525D02*X42275D01*
Y31255D01*
X42525D01*
Y32005D01*
G37*
G36*
X43450Y32150D02*Y31850D01*
X44250D01*
Y32150D01*
X43450D01*
G37*
G36*
X43475Y32575D02*Y32325D01*
X44225D01*
Y32575D01*
X43475D01*
G37*
G36*
X42550Y34130D02*X42250D01*
Y33330D01*
X42550D01*
Y34130D01*
G37*
G36*
X43475Y33025D02*Y32775D01*
X44225D01*
Y33025D01*
X43475D01*
G37*
G36*
X43450Y33500D02*Y33200D01*
X44250D01*
Y33500D01*
X43450D01*
G37*
G36*
X43350Y34130D02*X43050D01*
Y33330D01*
X43350D01*
Y34130D01*
G37*
G36*
X42925Y34105D02*X42675D01*
Y33355D01*
X42925D01*
Y34105D01*
G37*
G36*
X42275Y33205D02*Y32155D01*
X43325D01*
Y33205D01*
X42275D01*
G37*
G36*
X51550Y33450D02*X51250D01*
Y32650D01*
X51550D01*
Y33450D01*
G37*
G36*
X52750Y36250D02*X51750D01*
Y35150D01*
X52750D01*
Y36250D01*
G37*
G36*
X51250D02*X50250D01*
Y35150D01*
X51250D01*
Y36250D01*
G37*
G36*
X39175Y27725D02*Y26675D01*
X55825D01*
Y27725D01*
X39175D01*
G37*
G36*
X40225Y42325D02*X39175D01*
Y26675D01*
X40225D01*
Y42325D01*
G37*
G36*
X45900Y37200D02*Y35700D01*
X47400D01*
Y37200D01*
X45900D01*
G37*
G36*
X46069Y35429D02*X45731Y35429D01*
X45731Y34381D01*
X46069Y34381D01*
X46069Y35429D01*
G37*
G36*
X46569Y35429D02*X46231Y35429D01*
X46231Y34381D01*
X46569Y34381D01*
X46569Y35429D01*
G37*
G36*
X47069Y35429D02*X46731Y35429D01*
X46731Y34381D01*
X47069Y34381D01*
X47069Y35429D01*
G37*
G36*
X47544Y35404D02*X47256Y35404D01*
X47256Y34406D01*
X47544Y34406D01*
X47544Y35404D01*
G37*
G36*
X47696Y35844D02*X47696Y35556D01*
X48694Y35556D01*
X48694Y35844D01*
X47696Y35844D01*
G37*
G36*
X47671Y36369D02*X47671Y36031D01*
X48719Y36031D01*
X48719Y36369D01*
X47671Y36369D01*
G37*
G36*
X48719Y36531D02*X48719Y36869D01*
X47671Y36869D01*
X47671Y36531D01*
X48719Y36531D01*
G37*
G36*
X48694Y37056D02*X48694Y37344D01*
X47696Y37344D01*
X47696Y37056D01*
X48694Y37056D01*
G37*
G36*
X51550Y31350D02*X51250D01*
Y30550D01*
X51550D01*
Y31350D01*
G37*
G36*
X51100D02*X50800D01*
Y30550D01*
X51100D01*
Y31350D01*
G37*
G36*
X50625Y31325D02*X50375D01*
Y30575D01*
X50625D01*
Y31325D01*
G37*
G36*
X50200Y31350D02*X49900D01*
Y30550D01*
X50200D01*
Y31350D01*
G37*
G36*
X47544Y38494D02*X47256Y38494D01*
X47256Y37496D01*
X47544Y37496D01*
X47544Y38494D01*
G37*
G36*
X47069Y38519D02*X46731Y38519D01*
X46731Y37471D01*
X47069Y37471D01*
X47069Y38519D01*
G37*
G36*
X46569Y38519D02*X46231Y38519D01*
X46231Y37471D01*
X46569Y37471D01*
X46569Y38519D01*
G37*
G36*
X46069Y38519D02*X45731Y38519D01*
X45731Y37471D01*
X46069Y37471D01*
X46069Y38519D01*
G37*
G36*
X44581Y37369D02*X44581Y37031D01*
X45629Y37031D01*
X45629Y37369D01*
X44581Y37369D01*
G37*
G36*
X44581Y36869D02*X44581Y36531D01*
X45629Y36531D01*
X45629Y36869D01*
X44581Y36869D01*
G37*
G36*
X45629Y36031D02*X45629Y36369D01*
X44581Y36369D01*
X44581Y36031D01*
X45629Y36031D01*
G37*
G36*
X45629Y35531D02*X45629Y35869D01*
X44581Y35869D01*
X44581Y35531D01*
X45629Y35531D01*
G37*
G36*
X51250Y37850D02*X50250D01*
Y36750D01*
X51250D01*
Y37850D01*
G37*
G36*
X52750D02*X51750D01*
Y36750D01*
X52750D01*
Y37850D01*
G37*
G36*
X40920Y48550D02*Y48250D01*
X41720D01*
Y48550D01*
X40920D01*
G37*
G36*
X41100Y49850D02*X40800D01*
Y49050D01*
X41100D01*
Y49850D01*
G37*
G36*
X40625Y49825D02*X40375D01*
Y49075D01*
X40625D01*
Y49825D01*
G37*
G36*
X40200Y49850D02*X39900D01*
Y49050D01*
X40200D01*
Y49850D01*
G37*
G36*
X39745Y48925D02*Y47875D01*
X40795D01*
Y48925D01*
X39745D01*
G37*
G36*
X39750Y49850D02*X39450D01*
Y49050D01*
X39750D01*
Y49850D01*
G37*
G36*
X38820Y48950D02*Y48650D01*
X39620D01*
Y48950D01*
X38820D01*
G37*
G36*
X38845Y48525D02*Y48275D01*
X39595D01*
Y48525D01*
X38845D01*
G37*
G36*
X38820Y48150D02*Y47850D01*
X39620D01*
Y48150D01*
X38820D01*
G37*
G36*
X40920Y48950D02*Y48650D01*
X41720D01*
Y48950D01*
X40920D01*
G37*
G36*
X50725Y46775D02*Y45225D01*
X52275D01*
Y46775D01*
X50725D01*
G37*
G36*
X53350Y46750D02*Y45250D01*
X54850D01*
Y46750D01*
X53350D01*
G37*
G36*
X54360Y48190D02*Y47810D01*
X55640D01*
Y48190D01*
X54360D01*
G37*
G36*
Y48690D02*Y48310D01*
X55640D01*
Y48690D01*
X54360D01*
G37*
G36*
Y49190D02*Y48810D01*
X55640D01*
Y49190D01*
X54360D01*
G37*
G36*
X49960Y48190D02*Y47810D01*
X51240D01*
Y48190D01*
X49960D01*
G37*
G36*
Y48690D02*Y48310D01*
X51240D01*
Y48690D01*
X49960D01*
G37*
G36*
Y49190D02*Y48810D01*
X51240D01*
Y49190D01*
X49960D01*
G37*
G36*
Y49690D02*Y49310D01*
X51240D01*
Y49690D01*
X49960D01*
G37*
G36*
Y50190D02*Y49810D01*
X51240D01*
Y50190D01*
X49960D01*
G37*
G36*
X41075Y47725D02*X40825D01*
Y46975D01*
X41075D01*
Y47725D01*
G37*
G36*
X40650Y47750D02*X40350D01*
Y46950D01*
X40650D01*
Y47750D01*
G37*
G36*
X40200D02*X39900D01*
Y46950D01*
X40200D01*
Y47750D01*
G37*
G36*
X39750D02*X39450D01*
Y46950D01*
X39750D01*
Y47750D01*
G37*
G36*
X40945Y48125D02*Y47875D01*
X41695D01*
Y48125D01*
X40945D01*
G37*
G36*
X54360Y49690D02*Y49310D01*
X55640D01*
Y49690D01*
X54360D01*
G37*
G36*
Y50190D02*Y49810D01*
X55640D01*
Y50190D01*
X54360D01*
G37*
G36*
X39175Y42325D02*Y41275D01*
X55825D01*
Y42325D01*
X39175D01*
G37*
G36*
X53350Y44850D02*Y43350D01*
X54850D01*
Y44850D01*
X53350D01*
G37*
G36*
X50750D02*Y43350D01*
X52250D01*
Y44850D01*
X50750D01*
G37*
G36*
X65971Y35969D02*X65971Y35631D01*
X67229Y35631D01*
X67229Y35969D01*
X65971Y35969D01*
G37*
G36*
X65971Y36469D02*X65971Y36131D01*
X67229Y36131D01*
X67229Y36469D01*
X65971Y36469D01*
G37*
G36*
X65971Y34969D02*X65971Y34631D01*
X67229Y34631D01*
X67229Y34969D01*
X65971Y34969D01*
G37*
G36*
X65971Y35469D02*X65971Y35131D01*
X67229Y35131D01*
X67229Y35469D01*
X65971Y35469D01*
G37*
G36*
X24500Y69500D02*X19500D01*
Y61500D01*
X24500D01*
Y69500D01*
G37*
G36*
Y33500D02*X19500D01*
Y25500D01*
X24500D01*
Y33500D01*
G37*
G36*
X26155Y60625D02*Y60375D01*
X26905D01*
Y60625D01*
X26155D01*
G37*
G36*
Y61025D02*Y60775D01*
X26905D01*
Y61025D01*
X26155D01*
G37*
G36*
Y61425D02*Y61175D01*
X26905D01*
Y61425D01*
X26155D01*
G37*
G36*
X27050Y62350D02*X26750D01*
Y61550D01*
X27050D01*
Y62350D01*
G37*
G36*
X27475Y62325D02*X27225D01*
Y61575D01*
X27475D01*
Y62325D01*
G37*
G36*
X27950Y62350D02*X27650D01*
Y61550D01*
X27950D01*
Y62350D01*
G37*
G36*
X28400D02*X28100D01*
Y61550D01*
X28400D01*
Y62350D01*
G37*
G36*
X27025Y60225D02*X26775D01*
Y59475D01*
X27025D01*
Y60225D01*
G37*
G36*
X27475D02*X27225D01*
Y59475D01*
X27475D01*
Y60225D01*
G37*
G36*
X27950Y60250D02*X27650D01*
Y59450D01*
X27950D01*
Y60250D01*
G37*
G36*
X28400D02*X28100D01*
Y59450D01*
X28400D01*
Y60250D01*
G37*
G36*
X28230Y60650D02*Y60350D01*
X29030D01*
Y60650D01*
X28230D01*
G37*
G36*
X28255Y61025D02*Y60775D01*
X29005D01*
Y61025D01*
X28255D01*
G37*
G36*
X28230Y61450D02*Y61150D01*
X29030D01*
Y61450D01*
X28230D01*
G37*
G36*
X27055Y61425D02*Y60375D01*
X28105D01*
Y61425D01*
X27055D01*
G37*
G36*
X53125Y62675D02*Y61525D01*
X54875D01*
Y62675D01*
X53125D01*
G37*
G36*
Y64175D02*Y63025D01*
X54875D01*
Y64175D01*
X53125D01*
G37*
G36*
X53175Y65625D02*Y64575D01*
X54825D01*
Y65625D01*
X53175D01*
G37*
G36*
X63750Y68950D02*X63450D01*
Y68150D01*
X63750D01*
Y68950D01*
G37*
G36*
X63275Y68925D02*X63025D01*
Y68175D01*
X63275D01*
Y68925D01*
G37*
G36*
X61470Y67250D02*Y66950D01*
X62270D01*
Y67250D01*
X61470D01*
G37*
G36*
X62825Y68925D02*X62575D01*
Y68175D01*
X62825D01*
Y68925D01*
G37*
G36*
X62400Y68950D02*X62100D01*
Y68150D01*
X62400D01*
Y68950D01*
G37*
G36*
X61470Y68050D02*Y67750D01*
X62270D01*
Y68050D01*
X61470D01*
G37*
G36*
X61495Y67625D02*Y67375D01*
X62245D01*
Y67625D01*
X61495D01*
G37*
G36*
X62395Y68025D02*Y66975D01*
X63445D01*
Y68025D01*
X62395D01*
G37*
G36*
X57225Y70225D02*X56175D01*
Y54575D01*
X57225D01*
Y70225D01*
G37*
G36*
X48725Y62675D02*Y61525D01*
X50475D01*
Y62675D01*
X48725D01*
G37*
G36*
Y65675D02*Y64525D01*
X50475D01*
Y65675D01*
X48725D01*
G37*
G36*
X41925Y61775D02*Y60625D01*
X43675D01*
Y61775D01*
X41925D01*
G37*
G36*
X46325Y64775D02*Y63625D01*
X48075D01*
Y64775D01*
X46325D01*
G37*
G36*
Y61775D02*Y60625D01*
X48075D01*
Y61775D01*
X46325D01*
G37*
G36*
X50575Y58325D02*Y58075D01*
X51325D01*
Y58325D01*
X50575D01*
G37*
G36*
X50550Y58800D02*Y58500D01*
X51350D01*
Y58800D01*
X50550D01*
G37*
G36*
Y59250D02*Y58950D01*
X51350D01*
Y59250D01*
X50550D01*
G37*
G36*
Y59700D02*Y59400D01*
X51350D01*
Y59700D01*
X50550D01*
G37*
G36*
X52650Y58350D02*Y58050D01*
X53450D01*
Y58350D01*
X52650D01*
G37*
G36*
X52675Y58775D02*Y58525D01*
X53425D01*
Y58775D01*
X52675D01*
G37*
G36*
X51750Y60330D02*X51450D01*
Y59530D01*
X51750D01*
Y60330D01*
G37*
G36*
X52550Y58230D02*X52250D01*
Y57430D01*
X52550D01*
Y58230D01*
G37*
G36*
X52150D02*X51850D01*
Y57430D01*
X52150D01*
Y58230D01*
G37*
G36*
X51725Y58205D02*X51475D01*
Y57455D01*
X51725D01*
Y58205D01*
G37*
G36*
X52650Y59250D02*Y58950D01*
X53450D01*
Y59250D01*
X52650D01*
G37*
G36*
Y59700D02*Y59400D01*
X53450D01*
Y59700D01*
X52650D01*
G37*
G36*
X52550Y60330D02*X52250D01*
Y59530D01*
X52550D01*
Y60330D01*
G37*
G36*
X52125Y60305D02*X51875D01*
Y59555D01*
X52125D01*
Y60305D01*
G37*
G36*
X51475Y59405D02*Y58355D01*
X52525D01*
Y59405D01*
X51475D01*
G37*
G36*
X40575Y55625D02*Y54575D01*
X57225D01*
Y55625D01*
X40575D01*
G37*
G36*
X41625Y70225D02*X40575D01*
Y54575D01*
X41625D01*
Y70225D01*
G37*
G36*
X41925Y64775D02*Y63625D01*
X43675D01*
Y64775D01*
X41925D01*
G37*
G36*
Y63275D02*Y62125D01*
X43675D01*
Y63275D01*
X41925D01*
G37*
G36*
X63725Y66825D02*X63475D01*
Y66075D01*
X63725D01*
Y66825D01*
G37*
G36*
X63275D02*X63025D01*
Y66075D01*
X63275D01*
Y66825D01*
G37*
G36*
X62825D02*X62575D01*
Y66075D01*
X62825D01*
Y66825D01*
G37*
G36*
X62400Y66850D02*X62100D01*
Y66050D01*
X62400D01*
Y66850D01*
G37*
G36*
X63570Y68050D02*Y67750D01*
X64370D01*
Y68050D01*
X63570D01*
G37*
G36*
X40575Y70225D02*Y69175D01*
X57225D01*
Y70225D01*
X40575D01*
G37*
G36*
X63570Y67650D02*Y67350D01*
X64370D01*
Y67650D01*
X63570D01*
G37*
G36*
X63595Y67225D02*Y66975D01*
X64345D01*
Y67225D01*
X63595D01*
G37*
G36*
X65971Y36969D02*X65971Y36631D01*
X67229Y36631D01*
X67229Y36969D01*
X65971Y36969D01*
G37*
G36*
X60671D02*X60671Y36631D01*
X61929Y36631D01*
X61929Y36969D01*
X60671Y36969D01*
G37*
G36*
X60671Y37469D02*Y37131D01*
X61929D01*
Y37469D01*
X60671D01*
G37*
G36*
X60671Y37969D02*X60671Y37631D01*
X61929Y37631D01*
X61929Y37969D01*
X60671Y37969D01*
G37*
G36*
X60671Y38469D02*X60671Y38131D01*
X61929Y38131D01*
X61929Y38469D01*
X60671Y38469D01*
G37*
G36*
X65971Y37469D02*Y37131D01*
X67229D01*
Y37469D01*
X65971D01*
G37*
G36*
X65971Y37969D02*X65971Y37631D01*
X67229Y37631D01*
X67229Y37969D01*
X65971Y37969D01*
G37*
G36*
X65971Y38469D02*Y38131D01*
X67229D01*
Y38469D01*
X65971D01*
G37*
G36*
X65869Y39829D02*X65531Y39829D01*
X65531Y38571D01*
X65869Y38571D01*
X65869Y39829D01*
G37*
G36*
X65369Y39829D02*X65031Y39829D01*
X65031Y38571D01*
X65369Y38571D01*
X65369Y39829D01*
G37*
G36*
X64869Y39829D02*X64531Y39829D01*
X64531Y38571D01*
X64869Y38571D01*
X64869Y39829D01*
G37*
G36*
X64369Y39829D02*X64031Y39829D01*
X64031Y38571D01*
X64369Y38571D01*
X64369Y39829D01*
G37*
G36*
X63869Y39829D02*X63531Y39829D01*
X63531Y38571D01*
X63869Y38571D01*
X63869Y39829D01*
G37*
G36*
X63369Y39829D02*X63031D01*
Y38571D01*
X63369D01*
Y39829D01*
G37*
G36*
X62869Y39829D02*X62531Y39829D01*
X62531Y38571D01*
X62869Y38571D01*
X62869Y39829D01*
G37*
G36*
X62369Y39829D02*X62031D01*
Y38571D01*
X62369D01*
Y39829D01*
G37*
G36*
X77369Y58529D02*X77031D01*
Y57271D01*
X77369D01*
Y58529D01*
G37*
G36*
X77471Y60469D02*X77471Y60131D01*
X78729Y60131D01*
X78729Y60469D01*
X77471Y60469D01*
G37*
G36*
X77471Y59969D02*Y59631D01*
X78729D01*
Y59969D01*
X77471D01*
G37*
G36*
X77471Y59469D02*X77471Y59131D01*
X78729Y59131D01*
X78729Y59469D01*
X77471Y59469D01*
G37*
G36*
X77471Y58969D02*X77471Y58631D01*
X78729Y58631D01*
X78729Y58969D01*
X77471Y58969D01*
G37*
G36*
X72171Y60969D02*X72171Y60631D01*
X73429Y60631D01*
X73429Y60969D01*
X72171Y60969D01*
G37*
G36*
X72171Y60469D02*X72171Y60131D01*
X73429Y60131D01*
X73429Y60469D01*
X72171Y60469D01*
G37*
G36*
X72171Y59969D02*Y59631D01*
X73429D01*
Y59969D01*
X72171D01*
G37*
G36*
X72171Y59469D02*X72171Y59131D01*
X73429Y59131D01*
X73429Y59469D01*
X72171Y59469D01*
G37*
G36*
X72171Y58969D02*Y58631D01*
X73429D01*
Y58969D01*
X72171D01*
G37*
G36*
X72171Y61969D02*X72171Y61631D01*
X73429Y61631D01*
X73429Y61969D01*
X72171Y61969D01*
G37*
G36*
X72171Y61469D02*X72171Y61131D01*
X73429Y61131D01*
X73429Y61469D01*
X72171Y61469D01*
G37*
G36*
Y62469D02*X72171Y62131D01*
X73429Y62131D01*
X73429Y62469D01*
X72171Y62469D01*
G37*
G36*
X73850Y62150D02*Y58950D01*
X77050D01*
Y62150D01*
X73850D01*
G37*
G36*
X73869Y58529D02*X73531Y58529D01*
X73531Y57271D01*
X73869Y57271D01*
X73869Y58529D01*
G37*
G36*
X74369Y58529D02*X74031Y58529D01*
X74031Y57271D01*
X74369Y57271D01*
X74369Y58529D01*
G37*
G36*
X74869Y58529D02*X74531Y58529D01*
X74531Y57271D01*
X74869Y57271D01*
X74869Y58529D01*
G37*
G36*
X75369Y58529D02*X75031Y58529D01*
X75031Y57271D01*
X75369Y57271D01*
X75369Y58529D01*
G37*
G36*
X75869Y58529D02*X75531Y58529D01*
X75531Y57271D01*
X75869Y57271D01*
X75869Y58529D01*
G37*
G36*
X76369Y58529D02*X76031D01*
Y57271D01*
X76369D01*
Y58529D01*
G37*
G36*
X76869Y58529D02*X76531Y58529D01*
X76531Y57271D01*
X76869Y57271D01*
X76869Y58529D01*
G37*
G36*
X74869Y63829D02*X74531Y63829D01*
X74531Y62571D01*
X74869Y62571D01*
X74869Y63829D01*
G37*
G36*
X75369Y63829D02*X75031Y63829D01*
X75031Y62571D01*
X75369Y62571D01*
X75369Y63829D01*
G37*
G36*
X73869Y63829D02*X73531Y63829D01*
X73531Y62571D01*
X73869Y62571D01*
X73869Y63829D01*
G37*
G36*
X74369Y63829D02*X74031Y63829D01*
X74031Y62571D01*
X74369Y62571D01*
X74369Y63829D01*
G37*
G36*
X74050Y67450D02*Y66450D01*
X75150D01*
Y67450D01*
X74050D01*
G37*
G36*
X75750D02*Y66450D01*
X76850D01*
Y67450D01*
X75750D01*
G37*
G36*
X74050Y65950D02*Y64950D01*
X75150D01*
Y65950D01*
X74050D01*
G37*
G36*
X75750D02*Y64950D01*
X76850D01*
Y65950D01*
X75750D01*
G37*
G36*
X77471Y61969D02*X77471Y61631D01*
X78729Y61631D01*
X78729Y61969D01*
X77471Y61969D01*
G37*
G36*
X77471Y61469D02*X77471Y61131D01*
X78729Y61131D01*
X78729Y61469D01*
X77471Y61469D01*
G37*
G36*
X77471Y60969D02*X77471Y60631D01*
X78729Y60631D01*
X78729Y60969D01*
X77471Y60969D01*
G37*
G36*
X77369Y63829D02*X77031Y63829D01*
X77031Y62571D01*
X77369Y62571D01*
X77369Y63829D01*
G37*
G36*
X77471Y62469D02*X77471Y62131D01*
X78729Y62131D01*
X78729Y62469D01*
X77471Y62469D01*
G37*
G36*
X88350Y68850D02*X86450D01*
Y65950D01*
X88350D01*
Y68850D01*
G37*
G36*
X80150D02*X78250D01*
Y65950D01*
X80150D01*
Y68850D01*
G37*
G36*
X70524Y48576D02*Y47424D01*
X72876D01*
Y48576D01*
X70524D01*
G37*
G36*
X70499Y46001D02*Y44799D01*
X72901D01*
Y46001D01*
X70499D01*
G37*
G36*
X73536Y48061D02*Y47339D01*
X74664D01*
Y48061D01*
X73536D01*
G37*
G36*
X73561Y47045D02*Y46374D01*
X74639D01*
Y47045D01*
X73561D01*
G37*
G36*
Y46055D02*Y45383D01*
X74639D01*
Y46055D01*
X73561D01*
G37*
G36*
X75669Y46030D02*Y45408D01*
X76697D01*
Y46030D01*
X75669D01*
G37*
G36*
X75619Y47070D02*Y46349D01*
X76747D01*
Y47070D01*
X75619D01*
G37*
G36*
Y48061D02*Y47339D01*
X76747D01*
Y48061D01*
X75619D01*
G37*
G36*
X80553Y47278D02*Y46303D01*
X81681D01*
Y47278D01*
X80553D01*
G37*
G36*
X82636Y46288D02*Y45312D01*
X83764D01*
Y46288D01*
X82636D01*
G37*
G36*
X83764Y47293D02*X83764Y48269D01*
X82636Y48269D01*
X82636Y47293D01*
X83764Y47293D01*
G37*
G36*
X94526Y66426D02*X93074D01*
Y64374D01*
X94526D01*
Y66426D01*
G37*
G36*
X91526D02*X90074D01*
Y64374D01*
X91526D01*
Y66426D01*
G37*
G36*
X75869Y63829D02*X75531Y63829D01*
X75531Y62571D01*
X75869Y62571D01*
X75869Y63829D01*
G37*
G36*
X76369Y63829D02*X76031D01*
Y62571D01*
X76369D01*
Y63829D01*
G37*
G36*
X76869Y63829D02*X76531Y63829D01*
X76531Y62571D01*
X76869Y62571D01*
X76869Y63829D01*
G37*
G36*
X92901Y62501D02*X91699D01*
Y60099D01*
X92901D01*
Y62501D01*
G37*
G36*
X95476Y62476D02*X94324D01*
Y60124D01*
X95476D01*
Y62476D01*
G37*
G36*
X95411Y59285D02*X94799D01*
Y57022D01*
X95411D01*
Y59285D01*
G37*
G36*
X94091Y59235D02*X93579D01*
Y57072D01*
X94091D01*
Y59235D01*
G37*
G36*
X92821D02*X92309D01*
Y57072D01*
X92821D01*
Y59235D01*
G37*
G36*
X91576Y59260D02*X91014D01*
Y57047D01*
X91576D01*
Y59260D01*
G37*
G36*
X91650Y56650D02*Y54450D01*
X94750D01*
Y56650D01*
X91650D01*
G37*
M02*
