G04 start of page 14 for group -3984 idx -3984 *
G04 Title: v2_0, fab *
G04 Creator: pcb 4.2.0 *
G04 CreationDate: Sun Sep 29 12:02:10 2019 UTC *
G04 For: user *
G04 Format: Gerber/RS-274X *
G04 PCB-Dimensions (mm): 140.00 90.00 *
G04 PCB-Coordinate-Origin: lower left *
%MOMM*%
%FSLAX43Y43*%
%LNFAB*%
%ADD155C,0.254*%
%ADD154C,0.191*%
%ADD153C,0.152*%
%ADD152R,0.203X0.203*%
G54D152*X98797Y65000D02*G75*G03X99203Y65000I203J0D01*G01*
G75*G03X98797Y65000I-203J0D01*G01*
X98390D02*G75*G03X99610Y65000I610J0D01*G01*
G75*G03X98390Y65000I-610J0D01*G01*
X98797Y28500D02*G75*G03X99203Y28500I203J0D01*G01*
G75*G03X98797Y28500I-203J0D01*G01*
X98390D02*G75*G03X99610Y28500I610J0D01*G01*
G75*G03X98390Y28500I-610J0D01*G01*
X31297D02*G75*G03X31703Y28500I203J0D01*G01*
G75*G03X31297Y28500I-203J0D01*G01*
X30890D02*G75*G03X32110Y28500I610J0D01*G01*
G75*G03X30890Y28500I-610J0D01*G01*
X31297Y65000D02*G75*G03X31703Y65000I203J0D01*G01*
G75*G03X31297Y65000I-203J0D01*G01*
X30890D02*G75*G03X32110Y65000I610J0D01*G01*
G75*G03X30890Y65000I-610J0D01*G01*
X3607Y92858D02*G75*G03X4013Y92858I203J0D01*G01*
G75*G03X3607Y92858I-203J0D01*G01*
X3200D02*G75*G03X4420Y92858I610J0D01*G01*
G75*G03X3200Y92858I-610J0D01*G01*
G54D153*X34290Y93429D02*X34671Y92667D01*
X35052Y93429D01*
X34671Y92667D02*Y91905D01*
X35509Y92743D02*X36081D01*
X35509Y91905D02*X36271D01*
X35509Y93429D02*Y91905D01*
Y93429D02*X36271D01*
X37490D02*X37681Y93238D01*
X36919Y93429D02*X37490D01*
X36728Y93238D02*X36919Y93429D01*
X36728Y93238D02*Y92858D01*
X36919Y92667D01*
X37490D01*
X37681Y92476D01*
Y92096D01*
X37490Y91905D02*X37681Y92096D01*
X36919Y91905D02*X37490D01*
X36728Y92096D02*X36919Y91905D01*
X24892Y92476D02*X25654Y93429D01*
X24892Y92476D02*X25844D01*
X25654Y93429D02*Y91905D01*
X11430Y92096D02*X11620Y91905D01*
X11430Y93238D02*Y92096D01*
Y93238D02*X11620Y93429D01*
X12002D01*
X12192Y93238D01*
Y92096D01*
X12002Y91905D02*X12192Y92096D01*
X11620Y91905D02*X12002D01*
X11430Y92286D02*X12192Y93048D01*
X12649Y91905D02*X12840D01*
X13297Y93124D02*X13602Y93429D01*
Y91905D01*
X13297D02*X13868D01*
X14326Y93124D02*X14630Y93429D01*
Y91905D01*
X14326D02*X14897D01*
X15354Y92096D02*X15545Y91905D01*
X15354Y92400D02*Y92096D01*
Y92400D02*X15621Y92667D01*
X15850D01*
X16116Y92400D01*
Y92096D01*
X15926Y91905D02*X16116Y92096D01*
X15545Y91905D02*X15926D01*
X15354Y92934D02*X15621Y92667D01*
X15354Y93238D02*Y92934D01*
Y93238D02*X15545Y93429D01*
X15926D01*
X16116Y93238D01*
Y92934D01*
X15850Y92667D02*X16116Y92934D01*
X86740Y25910D02*X87960Y24690D01*
X86740D02*X87960Y25910D01*
X86944Y25706D02*X87756D01*
X86944D02*Y24894D01*
X87756D01*
Y25706D02*Y24894D01*
X94040Y25910D02*X95260Y24690D01*
X94040D02*X95260Y25910D01*
X94244Y25706D02*X95056D01*
X94244D02*Y24894D01*
X95056D01*
Y25706D02*Y24894D01*
X3200Y97277D02*X4420Y96058D01*
X3200D02*X4420Y97277D01*
X3404Y97074D02*X4216D01*
X3404D02*Y96261D01*
X4216D01*
Y97074D02*Y96261D01*
X34290Y97239D02*X34671Y96477D01*
X35052Y97239D01*
X34671Y96477D02*Y95715D01*
X35509Y96553D02*X36081D01*
X35509Y95715D02*X36271D01*
X35509Y97239D02*Y95715D01*
Y97239D02*X36271D01*
X37490D02*X37681Y97048D01*
X36919Y97239D02*X37490D01*
X36728Y97048D02*X36919Y97239D01*
X36728Y97048D02*Y96668D01*
X36919Y96477D01*
X37490D01*
X37681Y96286D01*
Y95906D01*
X37490Y95715D02*X37681Y95906D01*
X36919Y95715D02*X37490D01*
X36728Y95906D02*X36919Y95715D01*
X24892Y97048D02*X25082Y97239D01*
X25654D01*
X25844Y97048D01*
Y96668D01*
X24892Y95715D02*X25844Y96668D01*
X24892Y95715D02*X25844D01*
X11430Y95906D02*X11620Y95715D01*
X11430Y97048D02*Y95906D01*
Y97048D02*X11620Y97239D01*
X12002D01*
X12192Y97048D01*
Y95906D01*
X12002Y95715D02*X12192Y95906D01*
X11620Y95715D02*X12002D01*
X11430Y96096D02*X12192Y96858D01*
X12649Y95715D02*X12840D01*
X13297Y95906D02*X13487Y95715D01*
X13297Y97048D02*Y95906D01*
Y97048D02*X13487Y97239D01*
X13868D01*
X14059Y97048D01*
Y95906D01*
X13868Y95715D02*X14059Y95906D01*
X13487Y95715D02*X13868D01*
X13297Y96096D02*X14059Y96858D01*
X14516Y96286D02*X15278Y97239D01*
X14516Y96286D02*X15469D01*
X15278Y97239D02*Y95715D01*
X16116D02*X16878Y97239D01*
X15926D02*X16878D01*
X78700Y26913D02*Y25287D01*
X77887Y26100D02*X79513D01*
X78294Y26506D02*X79106D01*
X78294D02*Y25694D01*
X79106D01*
Y26506D02*Y25694D01*
X73700Y26913D02*Y25287D01*
X72887Y26100D02*X74513D01*
X73294Y26506D02*X74106D01*
X73294D02*Y25694D01*
X74106D01*
Y26506D02*Y25694D01*
X3810Y101290D02*Y99665D01*
X2997Y100478D02*X4623D01*
X3404Y100884D02*X4216D01*
X3404D02*Y100071D01*
X4216D01*
Y100884D02*Y100071D01*
X34290Y101049D02*X34671Y100287D01*
X35052Y101049D01*
X34671Y100287D02*Y99525D01*
X35509Y100363D02*X36081D01*
X35509Y99525D02*X36271D01*
X35509Y101049D02*Y99525D01*
Y101049D02*X36271D01*
X37490D02*X37681Y100858D01*
X36919Y101049D02*X37490D01*
X36728Y100858D02*X36919Y101049D01*
X36728Y100858D02*Y100478D01*
X36919Y100287D01*
X37490D01*
X37681Y100096D01*
Y99716D01*
X37490Y99525D02*X37681Y99716D01*
X36919Y99525D02*X37490D01*
X36728Y99716D02*X36919Y99525D01*
X24892Y100858D02*X25082Y101049D01*
X25654D01*
X25844Y100858D01*
Y100478D01*
X24892Y99525D02*X25844Y100478D01*
X24892Y99525D02*X25844D01*
X11430Y99716D02*X11620Y99525D01*
X11430Y100858D02*Y99716D01*
Y100858D02*X11620Y101049D01*
X12002D01*
X12192Y100858D01*
Y99716D01*
X12002Y99525D02*X12192Y99716D01*
X11620Y99525D02*X12002D01*
X11430Y99906D02*X12192Y100668D01*
X12649Y99525D02*X12840D01*
X13297Y99716D02*X13487Y99525D01*
X13297Y100858D02*Y99716D01*
Y100858D02*X13487Y101049D01*
X13868D01*
X14059Y100858D01*
Y99716D01*
X13868Y99525D02*X14059Y99716D01*
X13487Y99525D02*X13868D01*
X13297Y99906D02*X14059Y100668D01*
X14516Y100096D02*X15278Y101049D01*
X14516Y100096D02*X15469D01*
X15278Y101049D02*Y99525D01*
X15926Y100858D02*X16116Y101049D01*
X16497D01*
X16688Y100858D01*
X16497Y99525D02*X16688Y99716D01*
X16116Y99525D02*X16497D01*
X15926Y99716D02*X16116Y99525D01*
Y100363D02*X16497D01*
X16688Y100858D02*Y100554D01*
Y100173D02*Y99716D01*
Y100173D02*X16497Y100363D01*
X16688Y100554D02*X16497Y100363D01*
X103700Y63300D02*Y62487D01*
Y63300D02*X104404Y63706D01*
X103700Y63300D02*X102996Y63706D01*
X103294Y63300D02*G75*G03X104106Y63300I406J0D01*G01*
G75*G03X103294Y63300I-406J0D01*G01*
X103700Y60750D02*Y59937D01*
Y60750D02*X104404Y61156D01*
X103700Y60750D02*X102996Y61156D01*
X103294Y60750D02*G75*G03X104106Y60750I406J0D01*G01*
G75*G03X103294Y60750I-406J0D01*G01*
X103700Y58200D02*Y57387D01*
Y58200D02*X104404Y58606D01*
X103700Y58200D02*X102996Y58606D01*
X103294Y58200D02*G75*G03X104106Y58200I406J0D01*G01*
G75*G03X103294Y58200I-406J0D01*G01*
X103700Y55700D02*Y54887D01*
Y55700D02*X104404Y56106D01*
X103700Y55700D02*X102996Y56106D01*
X103294Y55700D02*G75*G03X104106Y55700I406J0D01*G01*
G75*G03X103294Y55700I-406J0D01*G01*
X103700Y53150D02*Y52337D01*
Y53150D02*X104404Y53556D01*
X103700Y53150D02*X102996Y53556D01*
X103294Y53150D02*G75*G03X104106Y53150I406J0D01*G01*
G75*G03X103294Y53150I-406J0D01*G01*
X103700Y50600D02*Y49787D01*
Y50600D02*X104404Y51006D01*
X103700Y50600D02*X102996Y51006D01*
X103294Y50600D02*G75*G03X104106Y50600I406J0D01*G01*
G75*G03X103294Y50600I-406J0D01*G01*
X103700Y48050D02*Y47237D01*
Y48050D02*X104404Y48456D01*
X103700Y48050D02*X102996Y48456D01*
X103294Y48050D02*G75*G03X104106Y48050I406J0D01*G01*
G75*G03X103294Y48050I-406J0D01*G01*
X103700Y45500D02*Y44687D01*
Y45500D02*X104404Y45906D01*
X103700Y45500D02*X102996Y45906D01*
X103294Y45500D02*G75*G03X104106Y45500I406J0D01*G01*
G75*G03X103294Y45500I-406J0D01*G01*
X103700Y43000D02*Y42187D01*
Y43000D02*X104404Y43406D01*
X103700Y43000D02*X102996Y43406D01*
X103294Y43000D02*G75*G03X104106Y43000I406J0D01*G01*
G75*G03X103294Y43000I-406J0D01*G01*
X103700Y40450D02*Y39637D01*
Y40450D02*X104404Y40856D01*
X103700Y40450D02*X102996Y40856D01*
X103294Y40450D02*G75*G03X104106Y40450I406J0D01*G01*
G75*G03X103294Y40450I-406J0D01*G01*
X103700Y37900D02*Y37087D01*
Y37900D02*X104404Y38306D01*
X103700Y37900D02*X102996Y38306D01*
X103294Y37900D02*G75*G03X104106Y37900I406J0D01*G01*
G75*G03X103294Y37900I-406J0D01*G01*
X103700Y35350D02*Y34537D01*
Y35350D02*X104404Y35756D01*
X103700Y35350D02*X102996Y35756D01*
X103294Y35350D02*G75*G03X104106Y35350I406J0D01*G01*
G75*G03X103294Y35350I-406J0D01*G01*
X103700Y32800D02*Y31987D01*
Y32800D02*X104404Y33206D01*
X103700Y32800D02*X102996Y33206D01*
X103294Y32800D02*G75*G03X104106Y32800I406J0D01*G01*
G75*G03X103294Y32800I-406J0D01*G01*
X103700Y30250D02*Y29437D01*
Y30250D02*X104404Y30656D01*
X103700Y30250D02*X102996Y30656D01*
X103294Y30250D02*G75*G03X104106Y30250I406J0D01*G01*
G75*G03X103294Y30250I-406J0D01*G01*
X30200Y50600D02*Y49787D01*
Y50600D02*X30904Y51006D01*
X30200Y50600D02*X29496Y51006D01*
X29794Y50600D02*G75*G03X30606Y50600I406J0D01*G01*
G75*G03X29794Y50600I-406J0D01*G01*
X30200Y48050D02*Y47237D01*
Y48050D02*X30904Y48456D01*
X30200Y48050D02*X29496Y48456D01*
X29794Y48050D02*G75*G03X30606Y48050I406J0D01*G01*
G75*G03X29794Y48050I-406J0D01*G01*
X30200Y45500D02*Y44687D01*
Y45500D02*X30904Y45906D01*
X30200Y45500D02*X29496Y45906D01*
X29794Y45500D02*G75*G03X30606Y45500I406J0D01*G01*
G75*G03X29794Y45500I-406J0D01*G01*
X30200Y43000D02*Y42187D01*
Y43000D02*X30904Y43406D01*
X30200Y43000D02*X29496Y43406D01*
X29794Y43000D02*G75*G03X30606Y43000I406J0D01*G01*
G75*G03X29794Y43000I-406J0D01*G01*
X85200Y35100D02*Y34287D01*
Y35100D02*X85904Y35506D01*
X85200Y35100D02*X84496Y35506D01*
X84794Y35100D02*G75*G03X85606Y35100I406J0D01*G01*
G75*G03X84794Y35100I-406J0D01*G01*
X85200Y27500D02*Y26687D01*
Y27500D02*X85904Y27906D01*
X85200Y27500D02*X84496Y27906D01*
X84794Y27500D02*G75*G03X85606Y27500I406J0D01*G01*
G75*G03X84794Y27500I-406J0D01*G01*
X107500Y35000D02*Y34187D01*
Y35000D02*X108204Y35406D01*
X107500Y35000D02*X106796Y35406D01*
X107094Y35000D02*G75*G03X107906Y35000I406J0D01*G01*
G75*G03X107094Y35000I-406J0D01*G01*
X107500Y37550D02*Y36737D01*
Y37550D02*X108204Y37956D01*
X107500Y37550D02*X106796Y37956D01*
X107094Y37550D02*G75*G03X107906Y37550I406J0D01*G01*
G75*G03X107094Y37550I-406J0D01*G01*
X107500Y40100D02*Y39287D01*
Y40100D02*X108204Y40506D01*
X107500Y40100D02*X106796Y40506D01*
X107094Y40100D02*G75*G03X107906Y40100I406J0D01*G01*
G75*G03X107094Y40100I-406J0D01*G01*
X107500Y32500D02*Y31687D01*
Y32500D02*X108204Y32906D01*
X107500Y32500D02*X106796Y32906D01*
X107094Y32500D02*G75*G03X107906Y32500I406J0D01*G01*
G75*G03X107094Y32500I-406J0D01*G01*
X107500Y29950D02*Y29137D01*
Y29950D02*X108204Y30356D01*
X107500Y29950D02*X106796Y30356D01*
X107094Y29950D02*G75*G03X107906Y29950I406J0D01*G01*
G75*G03X107094Y29950I-406J0D01*G01*
X3810Y104288D02*Y103475D01*
Y104288D02*X4514Y104694D01*
X3810Y104288D02*X3106Y104694D01*
X3404Y104288D02*G75*G03X4216Y104288I406J0D01*G01*
G75*G03X3404Y104288I-406J0D01*G01*
X34290Y104859D02*X34671Y104097D01*
X35052Y104859D01*
X34671Y104097D02*Y103335D01*
X35509Y104173D02*X36081D01*
X35509Y103335D02*X36271D01*
X35509Y104859D02*Y103335D01*
Y104859D02*X36271D01*
X37490D02*X37681Y104668D01*
X36919Y104859D02*X37490D01*
X36728Y104668D02*X36919Y104859D01*
X36728Y104668D02*Y104288D01*
X36919Y104097D01*
X37490D01*
X37681Y103906D01*
Y103526D01*
X37490Y103335D02*X37681Y103526D01*
X36919Y103335D02*X37490D01*
X36728Y103526D02*X36919Y103335D01*
X24892Y104668D02*X25082Y104859D01*
X25654D01*
X25844Y104668D01*
Y104288D01*
X24892Y103335D02*X25844Y104288D01*
X24892Y103335D02*X25844D01*
X26302Y104859D02*X27064D01*
X26302D02*Y104097D01*
X26492Y104288D01*
X26873D01*
X27064Y104097D01*
Y103526D01*
X26873Y103335D02*X27064Y103526D01*
X26492Y103335D02*X26873D01*
X26302Y103526D02*X26492Y103335D01*
X11430Y103526D02*X11620Y103335D01*
X11430Y104668D02*Y103526D01*
Y104668D02*X11620Y104859D01*
X12002D01*
X12192Y104668D01*
Y103526D01*
X12002Y103335D02*X12192Y103526D01*
X11620Y103335D02*X12002D01*
X11430Y103716D02*X12192Y104478D01*
X12649Y103335D02*X12840D01*
X13297Y103526D02*X13487Y103335D01*
X13297Y104668D02*Y103526D01*
Y104668D02*X13487Y104859D01*
X13868D01*
X14059Y104668D01*
Y103526D01*
X13868Y103335D02*X14059Y103526D01*
X13487Y103335D02*X13868D01*
X13297Y103716D02*X14059Y104478D01*
X14516Y104668D02*X14707Y104859D01*
X15088D01*
X15278Y104668D01*
X15088Y103335D02*X15278Y103526D01*
X14707Y103335D02*X15088D01*
X14516Y103526D02*X14707Y103335D01*
Y104173D02*X15088D01*
X15278Y104668D02*Y104364D01*
Y103983D02*Y103526D01*
Y103983D02*X15088Y104173D01*
X15278Y104364D02*X15088Y104173D01*
X15926Y103335D02*X16497Y104097D01*
Y104668D02*Y104097D01*
X16307Y104859D02*X16497Y104668D01*
X15926Y104859D02*X16307D01*
X15735Y104668D02*X15926Y104859D01*
X15735Y104668D02*Y104288D01*
X15926Y104097D01*
X16497D01*
X92894Y69606D02*X93706D01*
X92894D02*Y68794D01*
X93706D01*
Y69606D02*Y68794D01*
X90354Y69606D02*X91166D01*
X90354D02*Y68794D01*
X91166D01*
Y69606D02*Y68794D01*
X3404Y108504D02*X4216D01*
X3404D02*Y107691D01*
X4216D01*
Y108504D02*Y107691D01*
X34290Y108669D02*X34671Y107907D01*
X35052Y108669D01*
X34671Y107907D02*Y107145D01*
X35509Y107983D02*X36081D01*
X35509Y107145D02*X36271D01*
X35509Y108669D02*Y107145D01*
Y108669D02*X36271D01*
X37490D02*X37681Y108478D01*
X36919Y108669D02*X37490D01*
X36728Y108478D02*X36919Y108669D01*
X36728Y108478D02*Y108098D01*
X36919Y107907D01*
X37490D01*
X37681Y107716D01*
Y107336D01*
X37490Y107145D02*X37681Y107336D01*
X36919Y107145D02*X37490D01*
X36728Y107336D02*X36919Y107145D01*
X24892Y108478D02*X25082Y108669D01*
X25654D01*
X25844Y108478D01*
Y108098D01*
X24892Y107145D02*X25844Y108098D01*
X24892Y107145D02*X25844D01*
X11430Y107336D02*X11620Y107145D01*
X11430Y108478D02*Y107336D01*
Y108478D02*X11620Y108669D01*
X12002D01*
X12192Y108478D01*
Y107336D01*
X12002Y107145D02*X12192Y107336D01*
X11620Y107145D02*X12002D01*
X11430Y107526D02*X12192Y108288D01*
X12649Y107145D02*X12840D01*
X13297Y107336D02*X13487Y107145D01*
X13297Y108478D02*Y107336D01*
Y108478D02*X13487Y108669D01*
X13868D01*
X14059Y108478D01*
Y107336D01*
X13868Y107145D02*X14059Y107336D01*
X13487Y107145D02*X13868D01*
X13297Y107526D02*X14059Y108288D01*
X14516Y108478D02*X14707Y108669D01*
X15088D01*
X15278Y108478D01*
X15088Y107145D02*X15278Y107336D01*
X14707Y107145D02*X15088D01*
X14516Y107336D02*X14707Y107145D01*
Y107983D02*X15088D01*
X15278Y108478D02*Y108174D01*
Y107793D02*Y107336D01*
Y107793D02*X15088Y107983D01*
X15278Y108174D02*X15088Y107983D01*
X15735Y107336D02*X15926Y107145D01*
X15735Y107640D02*Y107336D01*
Y107640D02*X16002Y107907D01*
X16231D01*
X16497Y107640D01*
Y107336D01*
X16307Y107145D02*X16497Y107336D01*
X15926Y107145D02*X16307D01*
X15735Y108174D02*X16002Y107907D01*
X15735Y108478D02*Y108174D01*
Y108478D02*X15926Y108669D01*
X16307D01*
X16497Y108478D01*
Y108174D01*
X16231Y107907D02*X16497Y108174D01*
X85097Y67400D02*G75*G03X85503Y67400I203J0D01*G01*
G75*G03X85097Y67400I-203J0D01*G01*
X83097D02*G75*G03X83503Y67400I203J0D01*G01*
G75*G03X83097Y67400I-203J0D01*G01*
X81097D02*G75*G03X81503Y67400I203J0D01*G01*
G75*G03X81097Y67400I-203J0D01*G01*
X3607Y111908D02*G75*G03X4013Y111908I203J0D01*G01*
G75*G03X3607Y111908I-203J0D01*G01*
X34290Y112479D02*X34671Y111717D01*
X35052Y112479D01*
X34671Y111717D02*Y110955D01*
X35509Y111793D02*X36081D01*
X35509Y110955D02*X36271D01*
X35509Y112479D02*Y110955D01*
Y112479D02*X36271D01*
X37490D02*X37681Y112288D01*
X36919Y112479D02*X37490D01*
X36728Y112288D02*X36919Y112479D01*
X36728Y112288D02*Y111908D01*
X36919Y111717D01*
X37490D01*
X37681Y111526D01*
Y111146D01*
X37490Y110955D02*X37681Y111146D01*
X36919Y110955D02*X37490D01*
X36728Y111146D02*X36919Y110955D01*
X24892Y112288D02*X25082Y112479D01*
X25464D01*
X25654Y112288D01*
X25464Y110955D02*X25654Y111146D01*
X25082Y110955D02*X25464D01*
X24892Y111146D02*X25082Y110955D01*
Y111793D02*X25464D01*
X25654Y112288D02*Y111984D01*
Y111603D02*Y111146D01*
Y111603D02*X25464Y111793D01*
X25654Y111984D02*X25464Y111793D01*
X11430Y111146D02*X11620Y110955D01*
X11430Y112288D02*Y111146D01*
Y112288D02*X11620Y112479D01*
X12002D01*
X12192Y112288D01*
Y111146D01*
X12002Y110955D02*X12192Y111146D01*
X11620Y110955D02*X12002D01*
X11430Y111336D02*X12192Y112098D01*
X12649Y110955D02*X12840D01*
X13297Y111146D02*X13487Y110955D01*
X13297Y112288D02*Y111146D01*
Y112288D02*X13487Y112479D01*
X13868D01*
X14059Y112288D01*
Y111146D01*
X13868Y110955D02*X14059Y111146D01*
X13487Y110955D02*X13868D01*
X13297Y111336D02*X14059Y112098D01*
X14516Y112288D02*X14707Y112479D01*
X15088D01*
X15278Y112288D01*
X15088Y110955D02*X15278Y111146D01*
X14707Y110955D02*X15088D01*
X14516Y111146D02*X14707Y110955D01*
Y111793D02*X15088D01*
X15278Y112288D02*Y111984D01*
Y111603D02*Y111146D01*
Y111603D02*X15088Y111793D01*
X15278Y111984D02*X15088Y111793D01*
X15735Y112174D02*X16040Y112479D01*
Y110955D01*
X15735D02*X16307D01*
X19895Y69105D02*X20505Y68495D01*
X19895D02*X20505Y69105D01*
X19895Y68005D02*X20505Y67395D01*
X19895D02*X20505Y68005D01*
X21095Y69105D02*X21705Y68495D01*
X21095D02*X21705Y69105D01*
X21095Y68005D02*X21705Y67395D01*
X21095D02*X21705Y68005D01*
X22295Y69105D02*X22905Y68495D01*
X22295D02*X22905Y69105D01*
X22295Y68005D02*X22905Y67395D01*
X22295D02*X22905Y68005D01*
X23495Y69105D02*X24105Y68495D01*
X23495D02*X24105Y69105D01*
X23495Y68005D02*X24105Y67395D01*
X23495D02*X24105Y68005D01*
X19895Y63605D02*X20505Y62995D01*
X19895D02*X20505Y63605D01*
X19895Y62505D02*X20505Y61895D01*
X19895D02*X20505Y62505D01*
X21095Y63605D02*X21705Y62995D01*
X21095D02*X21705Y63605D01*
X21095Y62505D02*X21705Y61895D01*
X21095D02*X21705Y62505D01*
X22295Y63605D02*X22905Y62995D01*
X22295D02*X22905Y63605D01*
X22295Y62505D02*X22905Y61895D01*
X22295D02*X22905Y62505D01*
X23495Y63605D02*X24105Y62995D01*
X23495D02*X24105Y63605D01*
X23495Y62505D02*X24105Y61895D01*
X23495D02*X24105Y62505D01*
X23495Y26505D02*X24105Y25895D01*
X23495D02*X24105Y26505D01*
X23495Y27605D02*X24105Y26995D01*
X23495D02*X24105Y27605D01*
X22295Y26505D02*X22905Y25895D01*
X22295D02*X22905Y26505D01*
X22295Y27605D02*X22905Y26995D01*
X22295D02*X22905Y27605D01*
X21095Y26505D02*X21705Y25895D01*
X21095D02*X21705Y26505D01*
X21095Y27605D02*X21705Y26995D01*
X21095D02*X21705Y27605D01*
X19895Y26505D02*X20505Y25895D01*
X19895D02*X20505Y26505D01*
X19895Y27605D02*X20505Y26995D01*
X19895D02*X20505Y27605D01*
X23495Y32005D02*X24105Y31395D01*
X23495D02*X24105Y32005D01*
X23495Y33105D02*X24105Y32495D01*
X23495D02*X24105Y33105D01*
X22295Y32005D02*X22905Y31395D01*
X22295D02*X22905Y32005D01*
X22295Y33105D02*X22905Y32495D01*
X22295D02*X22905Y33105D01*
X21095Y32005D02*X21705Y31395D01*
X21095D02*X21705Y32005D01*
X21095Y33105D02*X21705Y32495D01*
X21095D02*X21705Y33105D01*
X19895Y32005D02*X20505Y31395D01*
X19895D02*X20505Y32005D01*
X19895Y33105D02*X20505Y32495D01*
X19895D02*X20505Y33105D01*
X88245Y28305D02*X88855Y27695D01*
X88245D02*X88855Y28305D01*
X93145D02*X93755Y27695D01*
X93145D02*X93755Y28305D01*
X3505Y116022D02*X4115Y115413D01*
X3505D02*X4115Y116022D01*
X34290Y116289D02*X34671Y115527D01*
X35052Y116289D01*
X34671Y115527D02*Y114765D01*
X35509Y115603D02*X36081D01*
X35509Y114765D02*X36271D01*
X35509Y116289D02*Y114765D01*
Y116289D02*X36271D01*
X37490D02*X37681Y116098D01*
X36919Y116289D02*X37490D01*
X36728Y116098D02*X36919Y116289D01*
X36728Y116098D02*Y115718D01*
X36919Y115527D01*
X37490D01*
X37681Y115336D01*
Y114956D01*
X37490Y114765D02*X37681Y114956D01*
X36919Y114765D02*X37490D01*
X36728Y114956D02*X36919Y114765D01*
X24892Y116098D02*X25082Y116289D01*
X25464D01*
X25654Y116098D01*
X25464Y114765D02*X25654Y114956D01*
X25082Y114765D02*X25464D01*
X24892Y114956D02*X25082Y114765D01*
Y115603D02*X25464D01*
X25654Y116098D02*Y115794D01*
Y115413D02*Y114956D01*
Y115413D02*X25464Y115603D01*
X25654Y115794D02*X25464Y115603D01*
X26111Y115336D02*X26873Y116289D01*
X26111Y115336D02*X27064D01*
X26873Y116289D02*Y114765D01*
X11430Y114956D02*X11620Y114765D01*
X11430Y116098D02*Y114956D01*
Y116098D02*X11620Y116289D01*
X12002D01*
X12192Y116098D01*
Y114956D01*
X12002Y114765D02*X12192Y114956D01*
X11620Y114765D02*X12002D01*
X11430Y115146D02*X12192Y115908D01*
X12649Y114765D02*X12840D01*
X13297Y114956D02*X13487Y114765D01*
X13297Y116098D02*Y114956D01*
Y116098D02*X13487Y116289D01*
X13868D01*
X14059Y116098D01*
Y114956D01*
X13868Y114765D02*X14059Y114956D01*
X13487Y114765D02*X13868D01*
X13297Y115146D02*X14059Y115908D01*
X14516Y116098D02*X14707Y116289D01*
X15278D01*
X15469Y116098D01*
Y115718D01*
X14516Y114765D02*X15469Y115718D01*
X14516Y114765D02*X15469D01*
X15926Y114956D02*X16116Y114765D01*
X15926Y115260D02*Y114956D01*
Y115260D02*X16193Y115527D01*
X16421D01*
X16688Y115260D01*
Y114956D01*
X16497Y114765D02*X16688Y114956D01*
X16116Y114765D02*X16497D01*
X15926Y115794D02*X16193Y115527D01*
X15926Y116098D02*Y115794D01*
Y116098D02*X16116Y116289D01*
X16497D01*
X16688Y116098D01*
Y115794D01*
X16421Y115527D02*X16688Y115794D01*
X41500Y40706D02*Y39894D01*
X41094Y40300D02*X41906D01*
X41700Y28606D02*Y27794D01*
X41294Y28200D02*X42106D01*
X40700Y31806D02*Y30994D01*
X40294Y31400D02*X41106D01*
X41500Y39206D02*Y38394D01*
X41094Y38800D02*X41906D01*
X46400Y29306D02*Y28494D01*
X45994Y28900D02*X46806D01*
X36700Y31906D02*Y31094D01*
X36294Y31500D02*X37106D01*
X36700Y33906D02*Y33094D01*
X36294Y33500D02*X37106D01*
X38500Y31906D02*Y31094D01*
X38094Y31500D02*X38906D01*
X38500Y33906D02*Y33094D01*
X38094Y33500D02*X38906D01*
X40700Y34006D02*Y33194D01*
X40294Y33600D02*X41106D01*
X40700Y30706D02*Y29894D01*
X40294Y30300D02*X41106D01*
X38500Y28106D02*Y27294D01*
X38094Y27700D02*X38906D01*
X43300Y26406D02*Y25594D01*
X42894Y26000D02*X43706D01*
X46800Y26606D02*Y25794D01*
X46394Y26200D02*X47206D01*
X50300Y52106D02*Y51294D01*
X49894Y51700D02*X50706D01*
X52500Y52406D02*Y51594D01*
X52094Y52000D02*X52906D01*
X41500Y52506D02*Y51694D01*
X41094Y52100D02*X41906D01*
X43800Y52506D02*Y51694D01*
X43394Y52100D02*X44206D01*
X49300Y54306D02*Y53494D01*
X48894Y53900D02*X49706D01*
X51300Y54506D02*Y53694D01*
X50894Y54100D02*X51706D01*
X48000Y53106D02*Y52294D01*
X47594Y52700D02*X48406D01*
X46300Y52506D02*Y51694D01*
X45894Y52100D02*X46706D01*
X48900Y51006D02*Y50194D01*
X48494Y50600D02*X49306D01*
X46900Y50506D02*Y49694D01*
X46494Y50100D02*X47306D01*
X43600Y50506D02*Y49694D01*
X43194Y50100D02*X44006D01*
X44400Y58306D02*Y57494D01*
X43994Y57900D02*X44806D01*
X60700Y65406D02*Y64594D01*
X60294Y65000D02*X61106D01*
X68000Y67606D02*Y66794D01*
X67594Y67200D02*X68406D01*
X69200Y69206D02*Y68394D01*
X68794Y68800D02*X69606D01*
X67400Y70406D02*Y69594D01*
X66994Y70000D02*X67806D01*
X65900Y70906D02*Y70094D01*
X65494Y70500D02*X66306D01*
X63800Y50806D02*Y49994D01*
X63394Y50400D02*X64206D01*
X65300Y52006D02*Y51194D01*
X64894Y51600D02*X65706D01*
X62000Y52906D02*Y52094D01*
X61594Y52500D02*X62406D01*
X64200Y54906D02*Y54094D01*
X63794Y54500D02*X64606D01*
X62100Y55106D02*Y54294D01*
X61694Y54700D02*X62506D01*
X64500Y57806D02*Y56994D01*
X64094Y57400D02*X64906D01*
X62100Y60106D02*Y59294D01*
X61694Y59700D02*X62506D01*
X64400Y60606D02*Y59794D01*
X63994Y60200D02*X64806D01*
X62100Y63306D02*Y62494D01*
X61694Y62900D02*X62506D01*
X64100Y63506D02*Y62694D01*
X63694Y63100D02*X64506D01*
X70600Y65006D02*Y64194D01*
X70194Y64600D02*X71006D01*
X69600Y63406D02*Y62594D01*
X69194Y63000D02*X70006D01*
X77800Y47406D02*Y46594D01*
X77394Y47000D02*X78206D01*
X80700Y45706D02*Y44894D01*
X80294Y45300D02*X81106D01*
X84700Y46006D02*Y45194D01*
X84294Y45600D02*X85106D01*
X36700Y36906D02*Y36094D01*
X36294Y36500D02*X37106D01*
X38500Y36906D02*Y36094D01*
X38094Y36500D02*X38906D01*
X36700Y39706D02*Y38894D01*
X36294Y39300D02*X37106D01*
X38500Y39706D02*Y38894D01*
X38094Y39300D02*X38906D01*
X36700Y43006D02*Y42194D01*
X36294Y42600D02*X37106D01*
X38500Y42206D02*Y41394D01*
X38094Y41800D02*X38906D01*
X38500Y45306D02*Y44494D01*
X38094Y44900D02*X38906D01*
X36700Y46206D02*Y45394D01*
X36294Y45800D02*X37106D01*
X30900Y60306D02*Y59494D01*
X30494Y59900D02*X31306D01*
X31500Y63206D02*Y62394D01*
X31094Y62800D02*X31906D01*
X33600Y65506D02*Y64694D01*
X33194Y65100D02*X34006D01*
X33000Y63906D02*Y63094D01*
X32594Y63500D02*X33406D01*
X29300Y65406D02*Y64594D01*
X28894Y65000D02*X29706D01*
X31500Y67606D02*Y66794D01*
X31094Y67200D02*X31906D01*
X29900Y63906D02*Y63094D01*
X29494Y63500D02*X30306D01*
X30000Y67006D02*Y66194D01*
X29594Y66600D02*X30406D01*
X33100Y66906D02*Y66094D01*
X32694Y66500D02*X33506D01*
X66800Y68306D02*Y67494D01*
X66394Y67900D02*X67206D01*
X56500Y35706D02*Y34894D01*
X56094Y35300D02*X56906D01*
X54300Y39606D02*Y38794D01*
X53894Y39200D02*X54706D01*
X32400Y34406D02*Y33594D01*
X31994Y34000D02*X32806D01*
X34200Y31906D02*Y31094D01*
X33794Y31500D02*X34606D01*
X34400Y34006D02*Y33194D01*
X33994Y33600D02*X34806D01*
X85200Y44706D02*Y43894D01*
X84794Y44300D02*X85606D01*
X96000Y36806D02*Y35994D01*
X95594Y36400D02*X96406D01*
X99000Y36806D02*Y35994D01*
X98594Y36400D02*X99406D01*
X99000Y34906D02*Y34094D01*
X98594Y34500D02*X99406D01*
X96000Y34806D02*Y33994D01*
X95594Y34400D02*X96406D01*
X101500Y46806D02*Y45994D01*
X101094Y46400D02*X101906D01*
X98000Y46306D02*Y45494D01*
X97594Y45900D02*X98406D01*
X22200Y57306D02*Y56494D01*
X21794Y56900D02*X22606D01*
X22500Y55006D02*Y54194D01*
X22094Y54600D02*X22906D01*
X25700Y54406D02*Y53594D01*
X25294Y54000D02*X26106D01*
X27100Y48606D02*Y47794D01*
X26694Y48200D02*X27506D01*
X23300Y50606D02*Y49794D01*
X22894Y50200D02*X23706D01*
X23100Y42506D02*Y41694D01*
X22694Y42100D02*X23506D01*
X27100Y40106D02*Y39294D01*
X26694Y39700D02*X27506D01*
X21900Y38406D02*Y37594D01*
X21494Y38000D02*X22306D01*
X27000Y37306D02*Y36494D01*
X26594Y36900D02*X27406D01*
X26000Y45106D02*Y44294D01*
X25594Y44700D02*X26406D01*
X34000Y40706D02*Y39894D01*
X33594Y40300D02*X34406D01*
X30700Y36906D02*Y36094D01*
X30294Y36500D02*X31106D01*
X34500Y48106D02*Y47294D01*
X34094Y47700D02*X34906D01*
X34600Y52606D02*Y51794D01*
X34194Y52200D02*X35006D01*
X36500Y51106D02*Y50294D01*
X36094Y50700D02*X36906D01*
X31100Y54406D02*Y53594D01*
X30694Y54000D02*X31506D01*
X32400Y57606D02*Y56794D01*
X31994Y57200D02*X32806D01*
X38100Y54206D02*Y53394D01*
X37694Y53800D02*X38506D01*
X27400Y66706D02*Y65894D01*
X26994Y66300D02*X27806D01*
X35700Y56006D02*Y55194D01*
X35294Y55600D02*X36106D01*
X90300Y59006D02*Y58194D01*
X89894Y58600D02*X90706D01*
X90300Y60506D02*Y59694D01*
X89894Y60100D02*X90706D01*
X87200Y55506D02*Y54694D01*
X86794Y55100D02*X87606D01*
X90000Y54306D02*Y53494D01*
X89594Y53900D02*X90406D01*
X96500Y56806D02*Y55994D01*
X96094Y56400D02*X96906D01*
X90300Y52506D02*Y51694D01*
X89894Y52100D02*X90706D01*
X90300Y51406D02*Y50594D01*
X89894Y51000D02*X90706D01*
X90200Y55706D02*Y54894D01*
X89794Y55300D02*X90606D01*
X85700Y55006D02*Y54194D01*
X85294Y54600D02*X86106D01*
X98500Y58106D02*Y57294D01*
X98094Y57700D02*X98906D01*
X99500Y59306D02*Y58494D01*
X99094Y58900D02*X99906D01*
X96300Y54206D02*Y53394D01*
X95894Y53800D02*X96706D01*
X87500Y63806D02*Y62994D01*
X87094Y63400D02*X87906D01*
X81200Y55806D02*Y54994D01*
X80794Y55400D02*X81606D01*
X81400Y63106D02*Y62294D01*
X80994Y62700D02*X81806D01*
X27400Y70306D02*Y69494D01*
X26994Y69900D02*X27806D01*
X28100Y31406D02*Y30594D01*
X27694Y31000D02*X28506D01*
X25900Y33006D02*Y32194D01*
X25494Y32600D02*X26306D01*
X25100Y31606D02*Y30794D01*
X24694Y31200D02*X25506D01*
X27700Y29206D02*Y28394D01*
X27294Y28800D02*X28106D01*
X28400Y26806D02*Y25994D01*
X27994Y26400D02*X28806D01*
X25800Y27006D02*Y26194D01*
X25394Y26600D02*X26206D01*
X30400Y34806D02*Y33994D01*
X29994Y34400D02*X30806D01*
X30300Y32406D02*Y31594D01*
X29894Y32000D02*X30706D01*
X26700Y34806D02*Y33994D01*
X26294Y34400D02*X27106D01*
X28400Y35406D02*Y34594D01*
X27994Y35000D02*X28806D01*
X33400Y36806D02*Y35994D01*
X32994Y36400D02*X33806D01*
X32300Y32306D02*Y31494D01*
X31894Y31900D02*X32706D01*
X29100Y32206D02*Y31394D01*
X28694Y31800D02*X29506D01*
X63400Y46406D02*Y45594D01*
X62994Y46000D02*X63806D01*
X78300Y50806D02*Y49994D01*
X77894Y50400D02*X78706D01*
X68300Y50706D02*Y49894D01*
X67894Y50300D02*X68706D01*
X74500Y35906D02*Y35094D01*
X74094Y35500D02*X74906D01*
X81200Y31306D02*Y30494D01*
X80794Y30900D02*X81606D01*
X60800Y58306D02*Y57494D01*
X60394Y57900D02*X61206D01*
X43100Y41106D02*Y40294D01*
X42694Y40700D02*X43506D01*
X83200Y40106D02*Y39294D01*
X82794Y39700D02*X83606D01*
X81900Y61906D02*Y61094D01*
X81494Y61500D02*X82306D01*
X107100Y54706D02*Y53894D01*
X106694Y54300D02*X107506D01*
X56600Y30406D02*Y29594D01*
X56194Y30000D02*X57006D01*
X58700Y30406D02*Y29594D01*
X58294Y30000D02*X59106D01*
X56800Y28306D02*Y27494D01*
X56394Y27900D02*X57206D01*
X58700Y28306D02*Y27494D01*
X58294Y27900D02*X59106D01*
X60400Y28306D02*Y27494D01*
X59994Y27900D02*X60806D01*
X61900Y30106D02*Y29294D01*
X61494Y29700D02*X62306D01*
X61100Y31006D02*Y30194D01*
X60694Y30600D02*X61506D01*
X57600Y39806D02*Y38994D01*
X57194Y39400D02*X58006D01*
X58000Y42206D02*Y41394D01*
X57594Y41800D02*X58406D01*
X57500Y33806D02*Y32994D01*
X57094Y33400D02*X57906D01*
X52700Y41206D02*Y40394D01*
X52294Y40800D02*X53106D01*
X67100Y59106D02*Y58294D01*
X66694Y58700D02*X67506D01*
X90300Y62206D02*Y61394D01*
X89894Y61800D02*X90706D01*
X55400Y56706D02*Y55894D01*
X54994Y56300D02*X55806D01*
X55700Y58306D02*Y57494D01*
X55294Y57900D02*X56106D01*
X55400Y65206D02*Y64394D01*
X54994Y64800D02*X55806D01*
X44400Y63106D02*Y62294D01*
X43994Y62700D02*X44806D01*
X46100Y63106D02*Y62294D01*
X45694Y62700D02*X46506D01*
X36000Y58906D02*Y58094D01*
X35594Y58500D02*X36406D01*
X33500Y61806D02*Y60994D01*
X33094Y61400D02*X33906D01*
X36300Y61106D02*Y60294D01*
X35894Y60700D02*X36706D01*
X39200Y60406D02*Y59594D01*
X38794Y60000D02*X39606D01*
X38700Y58206D02*Y57394D01*
X38294Y57800D02*X39106D01*
X33400Y59606D02*Y58794D01*
X32994Y59200D02*X33806D01*
X40100Y57606D02*Y56794D01*
X39694Y57200D02*X40506D01*
X42900Y56706D02*Y55894D01*
X42494Y56300D02*X43306D01*
X39000Y62106D02*Y61294D01*
X38594Y61700D02*X39406D01*
X39000Y64106D02*Y63294D01*
X38594Y63700D02*X39406D01*
X36300Y63106D02*Y62294D01*
X35894Y62700D02*X36706D01*
X36300Y65206D02*Y64394D01*
X35894Y64800D02*X36706D01*
X36300Y69106D02*Y68294D01*
X35894Y68700D02*X36706D01*
X46300Y60306D02*Y59494D01*
X45894Y59900D02*X46706D01*
X47700Y63106D02*Y62294D01*
X47294Y62700D02*X48106D01*
X50000Y64006D02*Y63194D01*
X49594Y63600D02*X50406D01*
X51800Y65006D02*Y64194D01*
X51394Y64600D02*X52206D01*
X51800Y62606D02*Y61794D01*
X51394Y62200D02*X52206D01*
X55600Y62506D02*Y61694D01*
X55194Y62100D02*X56006D01*
X59600Y66806D02*Y65994D01*
X59194Y66400D02*X60006D01*
X59600Y68906D02*Y68094D01*
X59194Y68500D02*X60006D01*
X57700Y68906D02*Y68094D01*
X57294Y68500D02*X58106D01*
X57700Y66906D02*Y66094D01*
X57294Y66500D02*X58106D01*
X47200Y66006D02*Y65194D01*
X46794Y65600D02*X47606D01*
X44500Y66506D02*Y65694D01*
X44094Y66100D02*X44906D01*
X36300Y67306D02*Y66494D01*
X35894Y66900D02*X36706D01*
X34100Y69006D02*Y68194D01*
X33694Y68600D02*X34506D01*
X58400Y63506D02*Y62694D01*
X57994Y63100D02*X58806D01*
X58400Y60706D02*Y59894D01*
X57994Y60300D02*X58806D01*
X58600Y55806D02*Y54994D01*
X58194Y55400D02*X59006D01*
X44400Y43806D02*Y42994D01*
X43994Y43400D02*X44806D01*
X46800Y56506D02*Y55694D01*
X46394Y56100D02*X47206D01*
X47000Y59006D02*Y58194D01*
X46594Y58600D02*X47406D01*
X68400Y52806D02*Y51994D01*
X67994Y52400D02*X68806D01*
X46800Y43306D02*Y42494D01*
X46394Y42900D02*X47206D01*
X47800Y48206D02*Y47394D01*
X47394Y47800D02*X48206D01*
X40900Y45306D02*Y44494D01*
X40494Y44900D02*X41306D01*
X40000Y65606D02*Y64794D01*
X39594Y65200D02*X40406D01*
X57200Y53606D02*Y52794D01*
X56794Y53200D02*X57606D01*
X54900Y52806D02*Y51994D01*
X54494Y52400D02*X55306D01*
X49000Y56606D02*Y55794D01*
X48594Y56200D02*X49406D01*
X40500Y26406D02*Y25594D01*
X40094Y26000D02*X40906D01*
X89200Y30506D02*Y29694D01*
X88794Y30100D02*X89606D01*
X38400Y67206D02*Y66394D01*
X37994Y66800D02*X38806D01*
X39400Y68206D02*Y67394D01*
X38994Y67800D02*X39806D01*
X25700Y67906D02*Y67094D01*
X25294Y67500D02*X26106D01*
X54000Y54106D02*Y53294D01*
X53594Y53700D02*X54406D01*
X27300Y56806D02*Y55994D01*
X26894Y56400D02*X27706D01*
X23800Y59706D02*Y58894D01*
X23394Y59300D02*X24206D01*
X3810Y119934D02*Y119121D01*
X3404Y119528D02*X4216D01*
X34290Y120099D02*X34671Y119337D01*
X35052Y120099D01*
X34671Y119337D02*Y118575D01*
X35509Y119413D02*X36081D01*
X35509Y118575D02*X36271D01*
X35509Y120099D02*Y118575D01*
Y120099D02*X36271D01*
X37490D02*X37681Y119908D01*
X36919Y120099D02*X37490D01*
X36728Y119908D02*X36919Y120099D01*
X36728Y119908D02*Y119528D01*
X36919Y119337D01*
X37490D01*
X37681Y119146D01*
Y118766D01*
X37490Y118575D02*X37681Y118766D01*
X36919Y118575D02*X37490D01*
X36728Y118766D02*X36919Y118575D01*
X24892Y119908D02*X25082Y120099D01*
X25654D01*
X25844Y119908D01*
Y119528D01*
X24892Y118575D02*X25844Y119528D01*
X24892Y118575D02*X25844D01*
X26302Y118766D02*X26492Y118575D01*
X26302Y119908D02*Y118766D01*
Y119908D02*X26492Y120099D01*
X26873D01*
X27064Y119908D01*
Y118766D01*
X26873Y118575D02*X27064Y118766D01*
X26492Y118575D02*X26873D01*
X26302Y118956D02*X27064Y119718D01*
X27521Y119908D02*X27711Y120099D01*
X28283D01*
X28473Y119908D01*
Y119528D01*
X27521Y118575D02*X28473Y119528D01*
X27521Y118575D02*X28473D01*
X11430Y118766D02*X11620Y118575D01*
X11430Y119908D02*Y118766D01*
Y119908D02*X11620Y120099D01*
X12002D01*
X12192Y119908D01*
Y118766D01*
X12002Y118575D02*X12192Y118766D01*
X11620Y118575D02*X12002D01*
X11430Y118956D02*X12192Y119718D01*
X12649Y118575D02*X12840D01*
X13297Y118766D02*X13487Y118575D01*
X13297Y119908D02*Y118766D01*
Y119908D02*X13487Y120099D01*
X13868D01*
X14059Y119908D01*
Y118766D01*
X13868Y118575D02*X14059Y118766D01*
X13487Y118575D02*X13868D01*
X13297Y118956D02*X14059Y119718D01*
X14516Y119908D02*X14707Y120099D01*
X15278D01*
X15469Y119908D01*
Y119528D01*
X14516Y118575D02*X15469Y119528D01*
X14516Y118575D02*X15469D01*
X15926Y118766D02*X16116Y118575D01*
X15926Y119908D02*Y118766D01*
Y119908D02*X16116Y120099D01*
X16497D01*
X16688Y119908D01*
Y118766D01*
X16497Y118575D02*X16688Y118766D01*
X16116Y118575D02*X16497D01*
X15926Y118956D02*X16688Y119718D01*
X87400Y67400D02*Y66994D01*
Y67400D02*X87752Y67603D01*
X87400Y67400D02*X87048Y67603D01*
X79200Y67400D02*Y66994D01*
Y67400D02*X79552Y67603D01*
X79200Y67400D02*X78848Y67603D01*
X64300Y35400D02*Y34994D01*
Y35400D02*X64652Y35603D01*
X64300Y35400D02*X63948Y35603D01*
X63500Y35400D02*Y34994D01*
Y35400D02*X63852Y35603D01*
X63500Y35400D02*X63148Y35603D01*
X63900Y36600D02*Y36194D01*
Y36600D02*X64252Y36803D01*
X63900Y36600D02*X63548Y36803D01*
X62800Y37700D02*Y37294D01*
Y37700D02*X63152Y37903D01*
X62800Y37700D02*X62448Y37903D01*
X62800Y35400D02*Y34994D01*
Y35400D02*X63152Y35603D01*
X62800Y35400D02*X62448Y35603D01*
X62800Y37000D02*Y36594D01*
Y37000D02*X63152Y37203D01*
X62800Y37000D02*X62448Y37203D01*
X62800Y36200D02*Y35794D01*
Y36200D02*X63152Y36403D01*
X62800Y36200D02*X62448Y36403D01*
X63500Y37700D02*Y37294D01*
Y37700D02*X63852Y37903D01*
X63500Y37700D02*X63148Y37903D01*
X64200Y37700D02*Y37294D01*
Y37700D02*X64552Y37903D01*
X64200Y37700D02*X63848Y37903D01*
X66400Y34100D02*Y33694D01*
Y34100D02*X66752Y34303D01*
X66400Y34100D02*X66048Y34303D01*
X67900Y35300D02*Y34894D01*
Y35300D02*X68252Y35503D01*
X67900Y35300D02*X67548Y35503D01*
X67900Y36300D02*Y35894D01*
Y36300D02*X68252Y36503D01*
X67900Y36300D02*X67548Y36503D01*
X67900Y37200D02*Y36794D01*
Y37200D02*X68252Y37403D01*
X67900Y37200D02*X67548Y37403D01*
X67900Y38100D02*Y37694D01*
Y38100D02*X68252Y38303D01*
X67900Y38100D02*X67548Y38303D01*
X66800Y39200D02*Y38794D01*
Y39200D02*X67152Y39403D01*
X66800Y39200D02*X66448Y39403D01*
X62100Y31900D02*Y31494D01*
Y31900D02*X62452Y32103D01*
X62100Y31900D02*X61748Y32103D01*
X66000Y32400D02*Y31994D01*
Y32400D02*X66352Y32603D01*
X66000Y32400D02*X65648Y32603D01*
X67100Y30900D02*Y30494D01*
Y30900D02*X67452Y31103D01*
X67100Y30900D02*X66748Y31103D01*
X60100Y34500D02*Y34094D01*
Y34500D02*X60452Y34703D01*
X60100Y34500D02*X59748Y34703D01*
X59600Y35300D02*Y34894D01*
Y35300D02*X59952Y35503D01*
X59600Y35300D02*X59248Y35503D01*
X64400Y40400D02*Y39994D01*
Y40400D02*X64752Y40603D01*
X64400Y40400D02*X64048Y40603D01*
X63500Y40400D02*Y39994D01*
Y40400D02*X63852Y40603D01*
X63500Y40400D02*X63148Y40603D01*
X66800Y40400D02*Y39994D01*
Y40400D02*X67152Y40603D01*
X66800Y40400D02*X66448Y40603D01*
X68400Y40000D02*Y39594D01*
Y40000D02*X68752Y40203D01*
X68400Y40000D02*X68048Y40203D01*
X67200Y33200D02*Y32794D01*
Y33200D02*X67552Y33403D01*
X67200Y33200D02*X66848Y33403D01*
X61400Y39400D02*Y38994D01*
Y39400D02*X61752Y39603D01*
X61400Y39400D02*X61048Y39603D01*
X66200Y40900D02*Y40494D01*
Y40900D02*X66552Y41103D01*
X66200Y40900D02*X65848Y41103D01*
X62700Y32800D02*Y32394D01*
Y32800D02*X63052Y33003D01*
X62700Y32800D02*X62348Y33003D01*
X65100Y32700D02*Y32294D01*
Y32700D02*X65452Y32903D01*
X65100Y32700D02*X64748Y32903D01*
X63950Y30600D02*Y30194D01*
Y30600D02*X64302Y30803D01*
X63950Y30600D02*X63598Y30803D01*
X63950Y29950D02*Y29544D01*
Y29950D02*X64302Y30153D01*
X63950Y29950D02*X63598Y30153D01*
X66800Y30000D02*Y29594D01*
Y30000D02*X67152Y30203D01*
X66800Y30000D02*X66448Y30203D01*
X66800Y31800D02*Y31394D01*
Y31800D02*X67152Y32003D01*
X66800Y31800D02*X66448Y32003D01*
X61100Y31800D02*Y31394D01*
Y31800D02*X61452Y32003D01*
X61100Y31800D02*X60748Y32003D01*
X61700Y32800D02*Y32394D01*
Y32800D02*X62052Y33003D01*
X61700Y32800D02*X61348Y33003D01*
X68800Y34800D02*Y34394D01*
Y34800D02*X69152Y35003D01*
X68800Y34800D02*X68448Y35003D01*
X59700Y36200D02*Y35794D01*
Y36200D02*X60052Y36403D01*
X59700Y36200D02*X59348Y36403D01*
X60800Y40500D02*Y40094D01*
Y40500D02*X61152Y40703D01*
X60800Y40500D02*X60448Y40703D01*
X64900Y29000D02*Y28594D01*
Y29000D02*X65252Y29203D01*
X64900Y29000D02*X64548Y29203D01*
X63100Y29000D02*Y28594D01*
Y29000D02*X63452Y29203D01*
X63100Y29000D02*X62748Y29203D01*
X64000Y27400D02*Y26994D01*
Y27400D02*X64352Y27603D01*
X64000Y27400D02*X63648Y27603D01*
X62100Y27400D02*Y26994D01*
Y27400D02*X62452Y27603D01*
X62100Y27400D02*X61748Y27603D01*
X67600Y29400D02*Y28994D01*
Y29400D02*X67952Y29603D01*
X67600Y29400D02*X67248Y29603D01*
X66100Y29300D02*Y28894D01*
Y29300D02*X66452Y29503D01*
X66100Y29300D02*X65748Y29503D01*
X68600Y29500D02*Y29094D01*
Y29500D02*X68952Y29703D01*
X68600Y29500D02*X68248Y29703D01*
X68200Y28600D02*Y28194D01*
Y28600D02*X68552Y28803D01*
X68200Y28600D02*X67848Y28803D01*
X46250Y36850D02*Y36444D01*
Y36850D02*X46602Y37053D01*
X46250Y36850D02*X45898Y37053D01*
X47050Y36850D02*Y36444D01*
Y36850D02*X47402Y37053D01*
X47050Y36850D02*X46698Y37053D01*
X46250Y36050D02*Y35644D01*
Y36050D02*X46602Y36253D01*
X46250Y36050D02*X45898Y36253D01*
X47050Y36050D02*Y35644D01*
Y36050D02*X47402Y36253D01*
X47050Y36050D02*X46698Y36253D01*
X44850Y35150D02*Y34744D01*
Y35150D02*X45202Y35353D01*
X44850Y35150D02*X44498Y35353D01*
X45350Y34650D02*Y34244D01*
Y34650D02*X45702Y34853D01*
X45350Y34650D02*X44998Y34853D01*
X44000Y36900D02*Y36494D01*
Y36900D02*X44352Y37103D01*
X44000Y36900D02*X43648Y37103D01*
X44000Y36000D02*Y35594D01*
Y36000D02*X44352Y36203D01*
X44000Y36000D02*X43648Y36203D01*
X45300Y38100D02*Y37694D01*
Y38100D02*X45652Y38303D01*
X45300Y38100D02*X44948Y38303D01*
X46850Y39050D02*Y38644D01*
Y39050D02*X47202Y39253D01*
X46850Y39050D02*X46498Y39253D01*
X49300Y36900D02*Y36494D01*
Y36900D02*X49652Y37103D01*
X49300Y36900D02*X48948Y37103D01*
X49300Y36000D02*Y35594D01*
Y36000D02*X49652Y36203D01*
X49300Y36000D02*X48948Y36203D01*
X48600Y39800D02*Y39394D01*
Y39800D02*X48952Y40003D01*
X48600Y39800D02*X48248Y40003D01*
X48000Y37800D02*Y37394D01*
Y37800D02*X48352Y38003D01*
X48000Y37800D02*X47648Y38003D01*
X49000Y38100D02*Y37694D01*
Y38100D02*X49352Y38303D01*
X49000Y38100D02*X48648Y38303D01*
X46200Y33800D02*Y33394D01*
Y33800D02*X46552Y34003D01*
X46200Y33800D02*X45848Y34003D01*
X47100Y33800D02*Y33394D01*
Y33800D02*X47452Y34003D01*
X47100Y33800D02*X46748Y34003D01*
X48400Y34500D02*Y34094D01*
Y34500D02*X48752Y34703D01*
X48400Y34500D02*X48048Y34703D01*
X49400Y34300D02*Y33894D01*
Y34300D02*X49752Y34503D01*
X49400Y34300D02*X49048Y34503D01*
X49400Y39000D02*Y38594D01*
Y39000D02*X49752Y39203D01*
X49400Y39000D02*X49048Y39203D01*
X53100Y37100D02*Y36694D01*
Y37100D02*X53452Y37303D01*
X53100Y37100D02*X52748Y37303D01*
X53100Y35900D02*Y35494D01*
Y35900D02*X53452Y36103D01*
X53100Y35900D02*X52748Y36103D01*
X48800Y32000D02*Y31594D01*
Y32000D02*X49152Y32203D01*
X48800Y32000D02*X48448Y32203D01*
X50700Y32000D02*Y31594D01*
Y32000D02*X51052Y32203D01*
X50700Y32000D02*X50348Y32203D01*
X51000Y30000D02*Y29594D01*
Y30000D02*X51352Y30203D01*
X51000Y30000D02*X50648Y30203D01*
X50000Y30000D02*Y29594D01*
Y30000D02*X50352Y30203D01*
X50000Y30000D02*X49648Y30203D01*
X52000Y30000D02*Y29594D01*
Y30000D02*X52352Y30203D01*
X52000Y30000D02*X51648Y30203D01*
X50600Y29100D02*Y28694D01*
Y29100D02*X50952Y29303D01*
X50600Y29100D02*X50248Y29303D01*
X52000Y30900D02*Y30494D01*
Y30900D02*X52352Y31103D01*
X52000Y30900D02*X51648Y31103D01*
X53000Y30000D02*Y29594D01*
Y30000D02*X53352Y30203D01*
X53000Y30000D02*X52648Y30203D01*
X54000Y30000D02*Y29594D01*
Y30000D02*X54352Y30203D01*
X54000Y30000D02*X53648Y30203D01*
X51300Y28400D02*Y27994D01*
Y28400D02*X51652Y28603D01*
X51300Y28400D02*X50948Y28603D01*
X53300Y28300D02*Y27894D01*
Y28300D02*X53652Y28503D01*
X53300Y28300D02*X52948Y28503D01*
X54300Y28300D02*Y27894D01*
Y28300D02*X54652Y28503D01*
X54300Y28300D02*X53948Y28503D01*
X52300Y28300D02*Y27894D01*
Y28300D02*X52652Y28503D01*
X52300Y28300D02*X51948Y28503D01*
X52200Y33600D02*Y33194D01*
Y33600D02*X52552Y33803D01*
X52200Y33600D02*X51848Y33803D01*
X54200Y33600D02*Y33194D01*
Y33600D02*X54552Y33803D01*
X54200Y33600D02*X53848Y33803D01*
X51000Y40900D02*Y40494D01*
Y40900D02*X51352Y41103D01*
X51000Y40900D02*X50648Y41103D01*
X61300Y42500D02*Y42094D01*
Y42500D02*X61652Y42703D01*
X61300Y42500D02*X60948Y42703D01*
X64200Y42500D02*Y42094D01*
Y42500D02*X64552Y42703D01*
X64200Y42500D02*X63848Y42703D01*
X67300Y42500D02*Y42094D01*
Y42500D02*X67652Y42703D01*
X67300Y42500D02*X66948Y42703D01*
X69000Y41900D02*Y41494D01*
Y41900D02*X69352Y42103D01*
X69000Y41900D02*X68648Y42103D01*
X70100Y39300D02*Y38894D01*
Y39300D02*X70452Y39503D01*
X70100Y39300D02*X69748Y39503D01*
X70100Y37400D02*Y36994D01*
Y37400D02*X70452Y37603D01*
X70100Y37400D02*X69748Y37603D01*
X70000Y40800D02*Y40394D01*
Y40800D02*X70352Y41003D01*
X70000Y40800D02*X69648Y41003D01*
X70100Y35900D02*Y35494D01*
Y35900D02*X70452Y36103D01*
X70100Y35900D02*X69748Y36103D01*
X69900Y34000D02*Y33594D01*
Y34000D02*X70252Y34203D01*
X69900Y34000D02*X69548Y34203D01*
X68600Y33200D02*Y32794D01*
Y33200D02*X68952Y33403D01*
X68600Y33200D02*X68248Y33403D01*
X69200Y31800D02*Y31394D01*
Y31800D02*X69552Y32003D01*
X69200Y31800D02*X68848Y32003D01*
X65900Y27400D02*Y26994D01*
Y27400D02*X66252Y27603D01*
X65900Y27400D02*X65548Y27603D01*
X67300Y27800D02*Y27394D01*
Y27800D02*X67652Y28003D01*
X67300Y27800D02*X66948Y28003D01*
X45300Y40000D02*Y39594D01*
Y40000D02*X45652Y40203D01*
X45300Y40000D02*X44948Y40203D01*
X44500Y40700D02*Y40294D01*
Y40700D02*X44852Y40903D01*
X44500Y40700D02*X44148Y40903D01*
X46100Y40800D02*Y40394D01*
Y40800D02*X46452Y41003D01*
X46100Y40800D02*X45748Y41003D01*
X47500Y40900D02*Y40494D01*
Y40900D02*X47852Y41103D01*
X47500Y40900D02*X47148Y41103D01*
X53800Y32400D02*Y31994D01*
Y32400D02*X54152Y32603D01*
X53800Y32400D02*X53448Y32603D01*
X45900Y31700D02*Y31294D01*
Y31700D02*X46252Y31903D01*
X45900Y31700D02*X45548Y31903D01*
X42800Y32700D02*Y32294D01*
Y32700D02*X43152Y32903D01*
X42800Y32700D02*X42448Y32903D01*
X44200Y30900D02*Y30494D01*
Y30900D02*X44552Y31103D01*
X44200Y30900D02*X43848Y31103D01*
X42800Y34800D02*Y34394D01*
Y34800D02*X43152Y35003D01*
X42800Y34800D02*X42448Y35003D01*
X40700Y37100D02*Y36694D01*
Y37100D02*X41052Y37303D01*
X40700Y37100D02*X40348Y37303D01*
X49100Y28400D02*Y27994D01*
Y28400D02*X49452Y28603D01*
X49100Y28400D02*X48748Y28603D01*
X49600Y28900D02*Y28494D01*
Y28900D02*X49952Y29103D01*
X49600Y28900D02*X49248Y29103D01*
X40800Y32500D02*Y32094D01*
Y32500D02*X41152Y32703D01*
X40800Y32500D02*X40448Y32703D01*
X41300Y29300D02*Y28894D01*
Y29300D02*X41652Y29503D01*
X41300Y29300D02*X40948Y29503D01*
X37600Y29900D02*Y29494D01*
Y29900D02*X37952Y30103D01*
X37600Y29900D02*X37248Y30103D01*
X36700Y29900D02*Y29494D01*
Y29900D02*X37052Y30103D01*
X36700Y29900D02*X36348Y30103D01*
X38500Y29900D02*Y29494D01*
Y29900D02*X38852Y30103D01*
X38500Y29900D02*X38148Y30103D01*
X37600Y35100D02*Y34694D01*
Y35100D02*X37952Y35303D01*
X37600Y35100D02*X37248Y35303D01*
X36700Y35100D02*Y34694D01*
Y35100D02*X37052Y35303D01*
X36700Y35100D02*X36348Y35303D01*
X38500Y35100D02*Y34694D01*
Y35100D02*X38852Y35303D01*
X38500Y35100D02*X38148Y35303D01*
X43700Y34800D02*Y34394D01*
Y34800D02*X44052Y35003D01*
X43700Y34800D02*X43348Y35003D01*
X40700Y35100D02*Y34694D01*
Y35100D02*X41052Y35303D01*
X40700Y35100D02*X40348Y35303D01*
X59800Y26100D02*Y25694D01*
Y26100D02*X60152Y26303D01*
X59800Y26100D02*X59448Y26303D01*
X40250Y48400D02*Y47994D01*
Y48400D02*X40602Y48603D01*
X40250Y48400D02*X39898Y48603D01*
X40500Y50700D02*Y50294D01*
Y50700D02*X40852Y50903D01*
X40500Y50700D02*X40148Y50903D01*
X38200Y48400D02*Y47994D01*
Y48400D02*X38552Y48603D01*
X38200Y48400D02*X37848Y48603D01*
X42300Y47800D02*Y47394D01*
Y47800D02*X42652Y48003D01*
X42300Y47800D02*X41948Y48003D01*
X41500Y46600D02*Y46194D01*
Y46600D02*X41852Y46803D01*
X41500Y46600D02*X41148Y46803D01*
X38400Y49400D02*Y48994D01*
Y49400D02*X38752Y49603D01*
X38400Y49400D02*X38048Y49603D01*
X38300Y47400D02*Y46994D01*
Y47400D02*X38652Y47603D01*
X38300Y47400D02*X37948Y47603D01*
X37300Y48700D02*Y48294D01*
Y48700D02*X37652Y48903D01*
X37300Y48700D02*X36948Y48903D01*
X51800Y49800D02*Y49394D01*
Y49800D02*X52152Y50003D01*
X51800Y49800D02*X51448Y50003D01*
X53800Y47700D02*Y47294D01*
Y47700D02*X54152Y47903D01*
X53800Y47700D02*X53448Y47903D01*
X51800Y48900D02*Y48494D01*
Y48900D02*X52152Y49103D01*
X51800Y48900D02*X51448Y49103D01*
X54500Y47100D02*Y46694D01*
Y47100D02*X54852Y47303D01*
X54500Y47100D02*X54148Y47303D01*
X53400Y48600D02*Y48194D01*
Y48600D02*X53752Y48803D01*
X53400Y48600D02*X53048Y48803D01*
X55200Y44300D02*Y43894D01*
Y44300D02*X55552Y44503D01*
X55200Y44300D02*X54848Y44503D01*
X53900Y43000D02*Y42594D01*
Y43000D02*X54252Y43203D01*
X53900Y43000D02*X53548Y43203D01*
X39600Y50400D02*Y49994D01*
Y50400D02*X39952Y50603D01*
X39600Y50400D02*X39248Y50603D01*
X41400Y50300D02*Y49894D01*
Y50300D02*X41752Y50503D01*
X41400Y50300D02*X41048Y50503D01*
X40100Y51600D02*Y51194D01*
Y51600D02*X40452Y51803D01*
X40100Y51600D02*X39748Y51803D01*
X44600Y39300D02*Y38894D01*
Y39300D02*X44952Y39503D01*
X44600Y39300D02*X44248Y39503D01*
X49400Y47700D02*Y47294D01*
Y47700D02*X49752Y47903D01*
X49400Y47700D02*X49048Y47903D01*
X49100Y43900D02*Y43494D01*
Y43900D02*X49452Y44103D01*
X49100Y43900D02*X48748Y44103D01*
X48100Y43100D02*Y42694D01*
Y43100D02*X48452Y43303D01*
X48100Y43100D02*X47748Y43303D01*
X49700Y44800D02*Y44394D01*
Y44800D02*X50052Y45003D01*
X49700Y44800D02*X49348Y45003D01*
X49400Y43000D02*Y42594D01*
Y43000D02*X49752Y43203D01*
X49400Y43000D02*X49048Y43203D01*
X61000Y67500D02*Y67094D01*
Y67500D02*X61352Y67703D01*
X61000Y67500D02*X60648Y67703D01*
X62900Y67500D02*Y67094D01*
Y67500D02*X63252Y67703D01*
X62900Y67500D02*X62548Y67703D01*
X64300Y66200D02*Y65794D01*
Y66200D02*X64652Y66403D01*
X64300Y66200D02*X63948Y66403D01*
X64900Y67000D02*Y66594D01*
Y67000D02*X65252Y67203D01*
X64900Y67000D02*X64548Y67203D01*
X61000Y68500D02*Y68094D01*
Y68500D02*X61352Y68703D01*
X61000Y68500D02*X60648Y68703D01*
X61000Y66500D02*Y66094D01*
Y66500D02*X61352Y66703D01*
X61000Y66500D02*X60648Y66703D01*
X75100Y61700D02*Y61294D01*
Y61700D02*X75452Y61903D01*
X75100Y61700D02*X74748Y61903D01*
X75900Y61700D02*Y61294D01*
Y61700D02*X76252Y61903D01*
X75900Y61700D02*X75548Y61903D01*
X75500Y60500D02*Y60094D01*
Y60500D02*X75852Y60703D01*
X75500Y60500D02*X75148Y60703D01*
X76600Y59400D02*Y58994D01*
Y59400D02*X76952Y59603D01*
X76600Y59400D02*X76248Y59603D01*
X76600Y61700D02*Y61294D01*
Y61700D02*X76952Y61903D01*
X76600Y61700D02*X76248Y61903D01*
X76600Y60100D02*Y59694D01*
Y60100D02*X76952Y60303D01*
X76600Y60100D02*X76248Y60303D01*
X76600Y60900D02*Y60494D01*
Y60900D02*X76952Y61103D01*
X76600Y60900D02*X76248Y61103D01*
X75900Y59400D02*Y58994D01*
Y59400D02*X76252Y59603D01*
X75900Y59400D02*X75548Y59603D01*
X75200Y59400D02*Y58994D01*
Y59400D02*X75552Y59603D01*
X75200Y59400D02*X74848Y59603D01*
X73000Y63000D02*Y62594D01*
Y63000D02*X73352Y63203D01*
X73000Y63000D02*X72648Y63203D01*
X71500Y61800D02*Y61394D01*
Y61800D02*X71852Y62003D01*
X71500Y61800D02*X71148Y62003D01*
X71500Y60800D02*Y60394D01*
Y60800D02*X71852Y61003D01*
X71500Y60800D02*X71148Y61003D01*
X71500Y59900D02*Y59494D01*
Y59900D02*X71852Y60103D01*
X71500Y59900D02*X71148Y60103D01*
X71500Y59000D02*Y58594D01*
Y59000D02*X71852Y59203D01*
X71500Y59000D02*X71148Y59203D01*
X72600Y57900D02*Y57494D01*
Y57900D02*X72952Y58103D01*
X72600Y57900D02*X72248Y58103D01*
X77300Y65200D02*Y64794D01*
Y65200D02*X77652Y65403D01*
X77300Y65200D02*X76948Y65403D01*
X73400Y64700D02*Y64294D01*
Y64700D02*X73752Y64903D01*
X73400Y64700D02*X73048Y64903D01*
X72300Y66200D02*Y65794D01*
Y66200D02*X72652Y66403D01*
X72300Y66200D02*X71948Y66403D01*
X79300Y62600D02*Y62194D01*
Y62600D02*X79652Y62803D01*
X79300Y62600D02*X78948Y62803D01*
X79800Y61800D02*Y61394D01*
Y61800D02*X80152Y62003D01*
X79800Y61800D02*X79448Y62003D01*
X75000Y56700D02*Y56294D01*
Y56700D02*X75352Y56903D01*
X75000Y56700D02*X74648Y56903D01*
X75900Y56700D02*Y56294D01*
Y56700D02*X76252Y56903D01*
X75900Y56700D02*X75548Y56903D01*
X72600Y56700D02*Y56294D01*
Y56700D02*X72952Y56903D01*
X72600Y56700D02*X72248Y56903D01*
X71000Y57100D02*Y56694D01*
Y57100D02*X71352Y57303D01*
X71000Y57100D02*X70648Y57303D01*
X72200Y63900D02*Y63494D01*
Y63900D02*X72552Y64103D01*
X72200Y63900D02*X71848Y64103D01*
X78000Y57700D02*Y57294D01*
Y57700D02*X78352Y57903D01*
X78000Y57700D02*X77648Y57903D01*
X73200Y56200D02*Y55794D01*
Y56200D02*X73552Y56403D01*
X73200Y56200D02*X72848Y56403D01*
X76700Y64300D02*Y63894D01*
Y64300D02*X77052Y64503D01*
X76700Y64300D02*X76348Y64503D01*
X74300Y64400D02*Y63994D01*
Y64400D02*X74652Y64603D01*
X74300Y64400D02*X73948Y64603D01*
X75450Y66500D02*Y66094D01*
Y66500D02*X75802Y66703D01*
X75450Y66500D02*X75098Y66703D01*
X75450Y67150D02*Y66744D01*
Y67150D02*X75802Y67353D01*
X75450Y67150D02*X75098Y67353D01*
X72600Y67100D02*Y66694D01*
Y67100D02*X72952Y67303D01*
X72600Y67100D02*X72248Y67303D01*
X72600Y65300D02*Y64894D01*
Y65300D02*X72952Y65503D01*
X72600Y65300D02*X72248Y65503D01*
X77700Y66200D02*Y65794D01*
Y66200D02*X78052Y66403D01*
X77700Y66200D02*X77348Y66403D01*
X78200Y65500D02*Y65094D01*
Y65500D02*X78552Y65703D01*
X78200Y65500D02*X77848Y65703D01*
X77700Y64300D02*Y63894D01*
Y64300D02*X78052Y64503D01*
X77700Y64300D02*X77348Y64503D01*
X70600Y62300D02*Y61894D01*
Y62300D02*X70952Y62503D01*
X70600Y62300D02*X70248Y62503D01*
X79700Y60900D02*Y60494D01*
Y60900D02*X80052Y61103D01*
X79700Y60900D02*X79348Y61103D01*
X74500Y68100D02*Y67694D01*
Y68100D02*X74852Y68303D01*
X74500Y68100D02*X74148Y68303D01*
X76300Y68100D02*Y67694D01*
Y68100D02*X76652Y68303D01*
X76300Y68100D02*X75948Y68303D01*
X70400Y66900D02*Y66494D01*
Y66900D02*X70752Y67103D01*
X70400Y66900D02*X70048Y67103D01*
X73300Y67800D02*Y67394D01*
Y67800D02*X73652Y68003D01*
X73300Y67800D02*X72948Y68003D01*
X72700Y54600D02*Y54194D01*
Y54600D02*X73052Y54803D01*
X72700Y54600D02*X72348Y54803D01*
X70400Y55200D02*Y54794D01*
Y55200D02*X70752Y55403D01*
X70400Y55200D02*X70048Y55403D01*
X69300Y57800D02*Y57394D01*
Y57800D02*X69652Y58003D01*
X69300Y57800D02*X68948Y58003D01*
X69300Y59700D02*Y59294D01*
Y59700D02*X69652Y59903D01*
X69300Y59700D02*X68948Y59903D01*
X69400Y56300D02*Y55894D01*
Y56300D02*X69752Y56503D01*
X69400Y56300D02*X69048Y56503D01*
X69300Y61200D02*Y60794D01*
Y61200D02*X69652Y61403D01*
X69300Y61200D02*X68948Y61403D01*
X70100Y65900D02*Y65494D01*
Y65900D02*X70452Y66103D01*
X70100Y65900D02*X69748Y66103D01*
X77500Y67200D02*Y66794D01*
Y67200D02*X77852Y67403D01*
X77500Y67200D02*X77148Y67403D01*
X75100Y54600D02*Y54194D01*
Y54600D02*X75452Y54803D01*
X75100Y54600D02*X74748Y54803D01*
X49400Y48900D02*Y48494D01*
Y48900D02*X49752Y49103D01*
X49400Y48900D02*X49048Y49103D01*
X53600Y50000D02*Y49594D01*
Y50000D02*X53952Y50203D01*
X53600Y50000D02*X53248Y50203D01*
X63100Y65200D02*Y64794D01*
Y65200D02*X63452Y65403D01*
X63100Y65200D02*X62748Y65403D01*
X62100Y65200D02*Y64794D01*
Y65200D02*X62452Y65403D01*
X62100Y65200D02*X61748Y65403D01*
X64100Y65200D02*Y64794D01*
Y65200D02*X64452Y65403D01*
X64100Y65200D02*X63748Y65403D01*
X63200Y69500D02*Y69094D01*
Y69500D02*X63552Y69703D01*
X63200Y69500D02*X62848Y69703D01*
X62200Y69600D02*Y69194D01*
Y69600D02*X62552Y69803D01*
X62200Y69600D02*X61848Y69803D01*
X64100Y70300D02*Y69894D01*
Y70300D02*X64452Y70503D01*
X64100Y70300D02*X63748Y70503D01*
X62900Y70500D02*Y70094D01*
Y70500D02*X63252Y70703D01*
X62900Y70500D02*X62548Y70703D01*
X71400Y67300D02*Y66894D01*
Y67300D02*X71752Y67503D01*
X71400Y67300D02*X71048Y67503D01*
X70300Y67900D02*Y67494D01*
Y67900D02*X70652Y68103D01*
X70300Y67900D02*X69948Y68103D01*
X69200Y66600D02*Y66194D01*
Y66600D02*X69552Y66803D01*
X69200Y66600D02*X68848Y66803D01*
X64300Y68600D02*Y68194D01*
Y68600D02*X64652Y68803D01*
X64300Y68600D02*X63948Y68803D01*
X67100Y65700D02*Y65294D01*
Y65700D02*X67452Y65903D01*
X67100Y65700D02*X66748Y65903D01*
X64100Y51600D02*Y51194D01*
Y51600D02*X64452Y51803D01*
X64100Y51600D02*X63748Y51803D01*
X87600Y46100D02*Y45694D01*
Y46100D02*X87952Y46303D01*
X87600Y46100D02*X87248Y46303D01*
X90600Y46900D02*Y46494D01*
Y46900D02*X90952Y47103D01*
X90600Y46900D02*X90248Y47103D01*
X95900Y45600D02*Y45194D01*
Y45600D02*X96252Y45803D01*
X95900Y45600D02*X95548Y45803D01*
X88600Y41000D02*Y40594D01*
Y41000D02*X88952Y41203D01*
X88600Y41000D02*X88248Y41203D01*
X90400Y40200D02*Y39794D01*
Y40200D02*X90752Y40403D01*
X90400Y40200D02*X90048Y40403D01*
X90500Y38200D02*Y37794D01*
Y38200D02*X90852Y38403D01*
X90500Y38200D02*X90148Y38403D01*
X93400Y37900D02*Y37494D01*
Y37900D02*X93752Y38103D01*
X93400Y37900D02*X93048Y38103D01*
X94300Y38400D02*Y37994D01*
Y38400D02*X94652Y38603D01*
X94300Y38400D02*X93948Y38603D01*
X94200Y43600D02*Y43194D01*
Y43600D02*X94552Y43803D01*
X94200Y43600D02*X93848Y43803D01*
X89500Y38900D02*Y38494D01*
Y38900D02*X89852Y39103D01*
X89500Y38900D02*X89148Y39103D01*
X90100Y43500D02*Y43094D01*
Y43500D02*X90452Y43703D01*
X90100Y43500D02*X89748Y43703D01*
X91500Y41300D02*Y40894D01*
Y41300D02*X91852Y41503D01*
X91500Y41300D02*X91148Y41503D01*
X89200Y43600D02*Y43194D01*
Y43600D02*X89552Y43803D01*
X89200Y43600D02*X88848Y43803D01*
X94200Y42600D02*Y42194D01*
Y42600D02*X94552Y42803D01*
X94200Y42600D02*X93848Y42803D01*
X91000Y43600D02*Y43194D01*
Y43600D02*X91352Y43803D01*
X91000Y43600D02*X90648Y43803D01*
X88600Y38900D02*Y38494D01*
Y38900D02*X88952Y39103D01*
X88600Y38900D02*X88248Y39103D01*
X76900Y36800D02*Y36394D01*
Y36800D02*X77252Y37003D01*
X76900Y36800D02*X76548Y37003D01*
X79100Y40600D02*Y40194D01*
Y40600D02*X79452Y40803D01*
X79100Y40600D02*X78748Y40803D01*
X77000Y40600D02*Y40194D01*
Y40600D02*X77352Y40803D01*
X77000Y40600D02*X76648Y40803D01*
X77200Y38200D02*Y37794D01*
Y38200D02*X77552Y38403D01*
X77200Y38200D02*X76848Y38403D01*
X77200Y39200D02*Y38794D01*
Y39200D02*X77552Y39403D01*
X77200Y39200D02*X76848Y39403D01*
X82100Y39400D02*Y38994D01*
Y39400D02*X82452Y39603D01*
X82100Y39400D02*X81748Y39603D01*
X82100Y38100D02*Y37694D01*
Y38100D02*X82452Y38303D01*
X82100Y38100D02*X81748Y38303D01*
X82200Y36800D02*Y36394D01*
Y36800D02*X82552Y37003D01*
X82200Y36800D02*X81848Y37003D01*
X75600Y42000D02*Y41594D01*
Y42000D02*X75952Y42203D01*
X75600Y42000D02*X75248Y42203D01*
X79100Y42000D02*Y41594D01*
Y42000D02*X79452Y42203D01*
X79100Y42000D02*X78748Y42203D01*
X78100Y34000D02*Y33594D01*
Y34000D02*X78452Y34203D01*
X78100Y34000D02*X77748Y34203D01*
X76100Y34200D02*Y33794D01*
Y34200D02*X76452Y34403D01*
X76100Y34200D02*X75748Y34403D01*
X76100Y33300D02*Y32894D01*
Y33300D02*X76452Y33503D01*
X76100Y33300D02*X75748Y33503D01*
X80100Y34400D02*Y33994D01*
Y34400D02*X80452Y34603D01*
X80100Y34400D02*X79748Y34603D01*
X80100Y33500D02*Y33094D01*
Y33500D02*X80452Y33703D01*
X80100Y33500D02*X79748Y33703D01*
X78100Y36000D02*Y35594D01*
Y36000D02*X78452Y36203D01*
X78100Y36000D02*X77748Y36203D01*
X100800Y42400D02*Y41994D01*
Y42400D02*X101152Y42603D01*
X100800Y42400D02*X100448Y42603D01*
X99900Y42400D02*Y41994D01*
Y42400D02*X100252Y42603D01*
X99900Y42400D02*X99548Y42603D01*
X73200Y46700D02*Y46294D01*
Y46700D02*X73552Y46903D01*
X73200Y46700D02*X72848Y46903D01*
X72500Y46700D02*Y46294D01*
Y46700D02*X72852Y46903D01*
X72500Y46700D02*X72148Y46903D01*
X76500Y44900D02*Y44494D01*
Y44900D02*X76852Y45103D01*
X76500Y44900D02*X76148Y45103D01*
X75700Y44900D02*Y44494D01*
Y44900D02*X76052Y45103D01*
X75700Y44900D02*X75348Y45103D01*
X70800Y46800D02*Y46394D01*
Y46800D02*X71152Y47003D01*
X70800Y46800D02*X70448Y47003D01*
X71500Y46800D02*Y46394D01*
Y46800D02*X71852Y47003D01*
X71500Y46800D02*X71148Y47003D01*
X76500Y48500D02*Y48094D01*
Y48500D02*X76852Y48703D01*
X76500Y48500D02*X76148Y48703D01*
X75100Y48500D02*Y48094D01*
Y48500D02*X75452Y48703D01*
X75100Y48500D02*X74748Y48703D01*
X76700Y56200D02*Y55794D01*
Y56200D02*X77052Y56403D01*
X76700Y56200D02*X76348Y56403D01*
X76500Y54600D02*Y54194D01*
Y54600D02*X76852Y54803D01*
X76500Y54600D02*X76148Y54803D01*
X80200Y54400D02*Y53994D01*
Y54400D02*X80552Y54603D01*
X80200Y54400D02*X79848Y54603D01*
X86000Y39900D02*Y39494D01*
Y39900D02*X86352Y40103D01*
X86000Y39900D02*X85648Y40103D01*
X86000Y39000D02*Y38594D01*
Y39000D02*X86352Y39203D01*
X86000Y39000D02*X85648Y39203D01*
X56300Y48700D02*Y48294D01*
Y48700D02*X56652Y48903D01*
X56300Y48700D02*X55948Y48903D01*
X60200Y46800D02*Y46394D01*
Y46800D02*X60552Y47003D01*
X60200Y46800D02*X59848Y47003D01*
X57300Y48800D02*Y48394D01*
Y48800D02*X57652Y49003D01*
X57300Y48800D02*X56948Y49003D01*
X57400Y47000D02*Y46594D01*
Y47000D02*X57752Y47203D01*
X57400Y47000D02*X57048Y47203D01*
X60200Y47800D02*Y47394D01*
Y47800D02*X60552Y48003D01*
X60200Y47800D02*X59848Y48003D01*
X60200Y45800D02*Y45394D01*
Y45800D02*X60552Y46003D01*
X60200Y45800D02*X59848Y46003D01*
X94400Y41500D02*Y41094D01*
Y41500D02*X94752Y41703D01*
X94400Y41500D02*X94048Y41703D01*
X76200Y28300D02*Y27894D01*
Y28300D02*X76552Y28503D01*
X76200Y28300D02*X75848Y28503D01*
X73700Y28300D02*Y27894D01*
Y28300D02*X74052Y28503D01*
X73700Y28300D02*X73348Y28503D01*
X56700Y32400D02*Y31994D01*
Y32400D02*X57052Y32603D01*
X56700Y32400D02*X56348Y32603D01*
X56700Y31400D02*Y30994D01*
Y31400D02*X57052Y31603D01*
X56700Y31400D02*X56348Y31603D01*
X67600Y48300D02*Y47894D01*
Y48300D02*X67952Y48503D01*
X67600Y48300D02*X67248Y48503D01*
X66900Y47600D02*Y47194D01*
Y47600D02*X67252Y47803D01*
X66900Y47600D02*X66548Y47803D01*
X62100Y49500D02*Y49094D01*
Y49500D02*X62452Y49703D01*
X62100Y49500D02*X61748Y49703D01*
X61500Y48700D02*Y48294D01*
Y48700D02*X61852Y48903D01*
X61500Y48700D02*X61148Y48903D01*
X82100Y33400D02*Y32994D01*
Y33400D02*X82452Y33603D01*
X82100Y33400D02*X81748Y33603D01*
X73600Y32300D02*Y31894D01*
Y32300D02*X73952Y32503D01*
X73600Y32300D02*X73248Y32503D01*
X84700Y38100D02*Y37694D01*
Y38100D02*X85052Y38303D01*
X84700Y38100D02*X84348Y38303D01*
X60500Y25400D02*Y24994D01*
Y25400D02*X60852Y25603D01*
X60500Y25400D02*X60148Y25603D01*
X64200Y25400D02*Y24994D01*
Y25400D02*X64552Y25603D01*
X64200Y25400D02*X63848Y25603D01*
X63200Y25400D02*Y24994D01*
Y25400D02*X63552Y25603D01*
X63200Y25400D02*X62848Y25603D01*
X42900Y44700D02*Y44294D01*
Y44700D02*X43252Y44903D01*
X42900Y44700D02*X42548Y44903D01*
X43900Y45800D02*Y45394D01*
Y45800D02*X44252Y46003D01*
X43900Y45800D02*X43548Y46003D01*
X46500Y45600D02*Y45194D01*
Y45600D02*X46852Y45803D01*
X46500Y45600D02*X46148Y45803D01*
X83700Y40700D02*Y40294D01*
Y40700D02*X84052Y40903D01*
X83700Y40700D02*X83348Y40903D01*
X55600Y46400D02*Y45994D01*
Y46400D02*X55952Y46603D01*
X55600Y46400D02*X55248Y46603D01*
X66800Y45300D02*Y44894D01*
Y45300D02*X67152Y45503D01*
X66800Y45300D02*X66448Y45503D01*
X29500Y60900D02*Y60494D01*
Y60900D02*X29852Y61103D01*
X29500Y60900D02*X29148Y61103D01*
X29400Y61900D02*Y61494D01*
Y61900D02*X29752Y62103D01*
X29400Y61900D02*X29048Y62103D01*
X29500Y59900D02*Y59494D01*
Y59900D02*X29852Y60103D01*
X29500Y59900D02*X29148Y60103D01*
X27600Y60900D02*Y60494D01*
Y60900D02*X27952Y61103D01*
X27600Y60900D02*X27248Y61103D01*
X27300Y62800D02*Y62394D01*
Y62800D02*X27652Y63003D01*
X27300Y62800D02*X26948Y63003D01*
X26200Y62700D02*Y62294D01*
Y62700D02*X26552Y62903D01*
X26200Y62700D02*X25848Y62903D01*
X28300Y62900D02*Y62494D01*
Y62900D02*X28652Y63103D01*
X28300Y62900D02*X27948Y63103D01*
X25500Y62000D02*Y61594D01*
Y62000D02*X25852Y62203D01*
X25500Y62000D02*X25148Y62203D01*
X25000Y59600D02*Y59194D01*
Y59600D02*X25352Y59803D01*
X25000Y59600D02*X24648Y59803D01*
X25800Y58800D02*Y58394D01*
Y58800D02*X26152Y59003D01*
X25800Y58800D02*X25448Y59003D01*
X27800Y58900D02*Y58494D01*
Y58900D02*X28152Y59103D01*
X27800Y58900D02*X27448Y59103D01*
X28800Y58700D02*Y58294D01*
Y58700D02*X29152Y58903D01*
X28800Y58700D02*X28448Y58903D01*
X26800Y58700D02*Y58294D01*
Y58700D02*X27152Y58903D01*
X26800Y58700D02*X26448Y58903D01*
X61100Y69800D02*Y69394D01*
Y69800D02*X61452Y70003D01*
X61100Y69800D02*X60748Y70003D01*
X61000Y53500D02*Y53094D01*
Y53500D02*X61352Y53703D01*
X61000Y53500D02*X60648Y53703D01*
X65200Y53500D02*Y53094D01*
Y53500D02*X65552Y53703D01*
X65200Y53500D02*X64848Y53703D01*
X46200Y48100D02*Y47694D01*
Y48100D02*X46552Y48303D01*
X46200Y48100D02*X45848Y48303D01*
X45500Y48800D02*Y48394D01*
Y48800D02*X45852Y49003D01*
X45500Y48800D02*X45148Y49003D01*
X65500Y63700D02*Y63294D01*
Y63700D02*X65852Y63903D01*
X65500Y63700D02*X65148Y63903D01*
X66500Y63700D02*Y63294D01*
Y63700D02*X66852Y63903D01*
X66500Y63700D02*X66148Y63903D01*
X57600Y36200D02*Y35794D01*
Y36200D02*X57952Y36403D01*
X57600Y36200D02*X57248Y36403D01*
X56900Y37000D02*Y36594D01*
Y37000D02*X57252Y37203D01*
X56900Y37000D02*X56548Y37203D01*
X25300Y55900D02*Y55494D01*
Y55900D02*X25652Y56103D01*
X25300Y55900D02*X24948Y56103D01*
X24900Y56800D02*Y56394D01*
Y56800D02*X25252Y57003D01*
X24900Y56800D02*X24548Y57003D01*
X82600Y60600D02*Y60194D01*
Y60600D02*X82952Y60803D01*
X82600Y60600D02*X82248Y60803D01*
X82600Y59000D02*Y58594D01*
Y59000D02*X82952Y59203D01*
X82600Y59000D02*X82248Y59203D01*
X82500Y57400D02*Y56994D01*
Y57400D02*X82852Y57603D01*
X82500Y57400D02*X82148Y57603D01*
X81500Y57500D02*Y57094D01*
Y57500D02*X81852Y57703D01*
X81500Y57500D02*X81148Y57703D01*
X81600Y59000D02*Y58594D01*
Y59000D02*X81952Y59203D01*
X81600Y59000D02*X81248Y59203D01*
X81600Y60600D02*Y60194D01*
Y60600D02*X81952Y60803D01*
X81600Y60600D02*X81248Y60803D01*
X83800Y42200D02*Y41794D01*
Y42200D02*X84152Y42403D01*
X83800Y42200D02*X83448Y42403D01*
X83000Y41600D02*Y41194D01*
Y41600D02*X83352Y41803D01*
X83000Y41600D02*X82648Y41803D01*
X102100Y37900D02*Y37494D01*
Y37900D02*X102452Y38103D01*
X102100Y37900D02*X101748Y38103D01*
X27300Y67600D02*Y67194D01*
Y67600D02*X27652Y67803D01*
X27300Y67600D02*X26948Y67803D01*
X27800Y63800D02*Y63394D01*
Y63800D02*X28152Y64003D01*
X27800Y63800D02*X27448Y64003D01*
X27300Y65100D02*Y64694D01*
Y65100D02*X27652Y65303D01*
X27300Y65100D02*X26948Y65303D01*
X85400Y49300D02*Y48894D01*
Y49300D02*X85752Y49503D01*
X85400Y49300D02*X85048Y49503D01*
X92100Y54900D02*Y54494D01*
Y54900D02*X92452Y55103D01*
X92100Y54900D02*X91748Y55103D01*
X92800Y54900D02*Y54494D01*
Y54900D02*X93152Y55103D01*
X92800Y54900D02*X92448Y55103D01*
X93500Y54900D02*Y54494D01*
Y54900D02*X93852Y55103D01*
X93500Y54900D02*X93148Y55103D01*
X94200Y54900D02*Y54494D01*
Y54900D02*X94552Y55103D01*
X94200Y54900D02*X93848Y55103D01*
X94200Y56200D02*Y55794D01*
Y56200D02*X94552Y56403D01*
X94200Y56200D02*X93848Y56403D01*
X93500Y56200D02*Y55794D01*
Y56200D02*X93852Y56403D01*
X93500Y56200D02*X93148Y56403D01*
X92800Y56200D02*Y55794D01*
Y56200D02*X93152Y56403D01*
X92800Y56200D02*X92448Y56403D01*
X92100Y56200D02*Y55794D01*
Y56200D02*X92452Y56403D01*
X92100Y56200D02*X91748Y56403D01*
X92100Y55550D02*Y55144D01*
Y55550D02*X92452Y55753D01*
X92100Y55550D02*X91748Y55753D01*
X94200Y55550D02*Y55144D01*
Y55550D02*X94552Y55753D01*
X94200Y55550D02*X93848Y55753D01*
X93200Y55550D02*Y55144D01*
Y55550D02*X93552Y55753D01*
X93200Y55550D02*X92848Y55753D01*
X93900Y62100D02*Y61694D01*
Y62100D02*X94252Y62303D01*
X93900Y62100D02*X93548Y62303D01*
X93900Y61400D02*Y60994D01*
Y61400D02*X94252Y61603D01*
X93900Y61400D02*X93548Y61603D01*
X93900Y60700D02*Y60294D01*
Y60700D02*X94252Y60903D01*
X93900Y60700D02*X93548Y60903D01*
X42600Y30600D02*Y30194D01*
Y30600D02*X42952Y30803D01*
X42600Y30600D02*X42248Y30803D01*
X41700Y30900D02*Y30494D01*
Y30900D02*X42052Y31103D01*
X41700Y30900D02*X41348Y31103D01*
X99900Y50900D02*Y50494D01*
Y50900D02*X100252Y51103D01*
X99900Y50900D02*X99548Y51103D01*
X91500Y33200D02*Y32794D01*
Y33200D02*X91852Y33403D01*
X91500Y33200D02*X91148Y33403D01*
X90500Y32900D02*Y32494D01*
Y32900D02*X90852Y33103D01*
X90500Y32900D02*X90148Y33103D01*
X93000Y34700D02*Y34294D01*
Y34700D02*X93352Y34903D01*
X93000Y34700D02*X92648Y34903D01*
X28100Y32600D02*Y32194D01*
Y32600D02*X28452Y32803D01*
X28100Y32600D02*X27748Y32803D01*
X30300Y33200D02*Y32794D01*
Y33200D02*X30652Y33403D01*
X30300Y33200D02*X29948Y33403D01*
X91400Y46300D02*Y45894D01*
Y46300D02*X91752Y46503D01*
X91400Y46300D02*X91048Y46503D01*
X42500Y37400D02*Y36994D01*
Y37400D02*X42852Y37603D01*
X42500Y37400D02*X42148Y37603D01*
X44300Y37900D02*Y37494D01*
Y37900D02*X44652Y38103D01*
X44300Y37900D02*X43948Y38103D01*
X84000Y47100D02*Y46694D01*
Y47100D02*X84352Y47303D01*
X84000Y47100D02*X83648Y47303D01*
X72000Y38400D02*Y37994D01*
Y38400D02*X72352Y38603D01*
X72000Y38400D02*X71648Y38603D01*
X72000Y37400D02*Y36994D01*
Y37400D02*X72352Y37603D01*
X72000Y37400D02*X71648Y37603D01*
X71900Y36300D02*Y35894D01*
Y36300D02*X72252Y36503D01*
X71900Y36300D02*X71548Y36503D01*
X72400Y42000D02*Y41594D01*
Y42000D02*X72752Y42203D01*
X72400Y42000D02*X72048Y42203D01*
X73100Y34200D02*Y33794D01*
Y34200D02*X73452Y34403D01*
X73100Y34200D02*X72748Y34403D01*
X59400Y48800D02*Y48394D01*
Y48800D02*X59752Y49003D01*
X59400Y48800D02*X59048Y49003D01*
X65700Y68600D02*Y68194D01*
Y68600D02*X66052Y68803D01*
X65700Y68600D02*X65348Y68803D01*
X54100Y58600D02*Y58194D01*
Y58600D02*X54452Y58803D01*
X54100Y58600D02*X53748Y58803D01*
X54100Y59600D02*Y59194D01*
Y59600D02*X54452Y59803D01*
X54100Y59600D02*X53748Y59803D01*
X53800Y57600D02*Y57194D01*
Y57600D02*X54152Y57803D01*
X53800Y57600D02*X53448Y57803D01*
X55000Y59000D02*Y58594D01*
Y59000D02*X55352Y59203D01*
X55000Y59000D02*X54648Y59203D01*
X51300Y57100D02*Y56694D01*
Y57100D02*X51652Y57303D01*
X51300Y57100D02*X50948Y57303D01*
X50400Y57700D02*Y57294D01*
Y57700D02*X50752Y57903D01*
X50400Y57700D02*X50048Y57903D01*
X52000Y58900D02*Y58494D01*
Y58900D02*X52352Y59103D01*
X52000Y58900D02*X51648Y59103D01*
X50600Y60900D02*Y60494D01*
Y60900D02*X50952Y61103D01*
X50600Y60900D02*X50248Y61103D01*
X53100Y60300D02*Y59894D01*
Y60300D02*X53452Y60503D01*
X53100Y60300D02*X52748Y60503D01*
X55400Y60400D02*Y59994D01*
Y60400D02*X55752Y60603D01*
X55400Y60400D02*X55048Y60603D01*
X49900Y58600D02*Y58194D01*
Y58600D02*X50252Y58803D01*
X49900Y58600D02*X49548Y58803D01*
X50000Y59600D02*Y59194D01*
Y59600D02*X50352Y59803D01*
X50000Y59600D02*X49648Y59803D01*
X45500Y52900D02*Y52494D01*
Y52900D02*X45852Y53103D01*
X45500Y52900D02*X45148Y53103D01*
X44600Y52900D02*Y52494D01*
Y52900D02*X44952Y53103D01*
X44600Y52900D02*X44248Y53103D01*
X48900Y59500D02*Y59094D01*
Y59500D02*X49252Y59703D01*
X48900Y59500D02*X48548Y59703D01*
X41100Y66900D02*Y66494D01*
Y66900D02*X41452Y67103D01*
X41100Y66900D02*X40748Y67103D01*
X42300Y59000D02*Y58594D01*
Y59000D02*X42652Y59203D01*
X42300Y59000D02*X41948Y59203D01*
X44100Y61300D02*Y60894D01*
Y61300D02*X44452Y61503D01*
X44100Y61300D02*X43748Y61503D01*
X44100Y64100D02*Y63694D01*
Y64100D02*X44452Y64303D01*
X44100Y64100D02*X43748Y64303D01*
X39900Y62700D02*Y62294D01*
Y62700D02*X40252Y62903D01*
X39900Y62700D02*X39548Y62903D01*
X48400Y64600D02*Y64194D01*
Y64600D02*X48752Y64803D01*
X48400Y64600D02*X48048Y64803D01*
X48400Y61700D02*Y61294D01*
Y61700D02*X48752Y61903D01*
X48400Y61700D02*X48048Y61903D01*
X48700Y60700D02*Y60294D01*
Y60700D02*X49052Y60903D01*
X48700Y60700D02*X48348Y60903D01*
X41200Y59300D02*Y58894D01*
Y59300D02*X41552Y59503D01*
X41200Y59300D02*X40848Y59503D01*
X43300Y58600D02*Y58194D01*
Y58600D02*X43652Y58803D01*
X43300Y58600D02*X42948Y58803D01*
X42300Y58000D02*Y57594D01*
Y58000D02*X42652Y58203D01*
X42300Y58000D02*X41948Y58203D01*
X44400Y59900D02*Y59494D01*
Y59900D02*X44752Y60103D01*
X44400Y59900D02*X44048Y60103D01*
X41300Y62700D02*Y62294D01*
Y62700D02*X41652Y62903D01*
X41300Y62700D02*X40948Y62903D01*
X45700Y61100D02*Y60694D01*
Y61100D02*X46052Y61303D01*
X45700Y61100D02*X45348Y61303D01*
X45700Y64300D02*Y63894D01*
Y64300D02*X46052Y64503D01*
X45700Y64300D02*X45348Y64503D01*
X30400Y61800D02*Y61394D01*
Y61800D02*X30752Y62003D01*
X30400Y61800D02*X30048Y62003D01*
X74000Y50800D02*Y50394D01*
Y50800D02*X74352Y51003D01*
X74000Y50800D02*X73648Y51003D01*
X76100Y50800D02*Y50394D01*
Y50800D02*X76452Y51003D01*
X76100Y50800D02*X75748Y51003D01*
X105400Y59500D02*Y59094D01*
Y59500D02*X105752Y59703D01*
X105400Y59500D02*X105048Y59703D01*
X105800Y58400D02*Y57994D01*
Y58400D02*X106152Y58603D01*
X105800Y58400D02*X105448Y58603D01*
X105700Y67900D02*Y67494D01*
Y67900D02*X106052Y68103D01*
X105700Y67900D02*X105348Y68103D01*
X54400Y66000D02*Y65594D01*
Y66000D02*X54752Y66203D01*
X54400Y66000D02*X54048Y66203D01*
X52700Y66000D02*Y65594D01*
Y66000D02*X53052Y66203D01*
X52700Y66000D02*X52348Y66203D01*
X50100Y66300D02*Y65894D01*
Y66300D02*X50452Y66503D01*
X50100Y66300D02*X49748Y66503D01*
X44700Y68000D02*Y67594D01*
Y68000D02*X45052Y68203D01*
X44700Y68000D02*X44348Y68203D01*
X55500Y68000D02*Y67594D01*
Y68000D02*X55852Y68203D01*
X55500Y68000D02*X55148Y68203D01*
X53200Y68000D02*Y67594D01*
Y68000D02*X53552Y68203D01*
X53200Y68000D02*X52848Y68203D01*
X50900Y68000D02*Y67594D01*
Y68000D02*X51252Y68203D01*
X50900Y68000D02*X50548Y68203D01*
X48800Y68000D02*Y67594D01*
Y68000D02*X49152Y68203D01*
X48800Y68000D02*X48448Y68203D01*
X43000Y68000D02*Y67594D01*
Y68000D02*X43352Y68203D01*
X43000Y68000D02*X42648Y68203D01*
X42900Y69700D02*Y69294D01*
Y69700D02*X43252Y69903D01*
X42900Y69700D02*X42548Y69903D01*
X44800Y69700D02*Y69294D01*
Y69700D02*X45152Y69903D01*
X44800Y69700D02*X44448Y69903D01*
X54900Y69700D02*Y69294D01*
Y69700D02*X55252Y69903D01*
X54900Y69700D02*X54548Y69903D01*
X52900Y69700D02*Y69294D01*
Y69700D02*X53252Y69903D01*
X52900Y69700D02*X52548Y69903D01*
X42900Y55100D02*Y54694D01*
Y55100D02*X43252Y55303D01*
X42900Y55100D02*X42548Y55303D01*
X54900Y55100D02*Y54694D01*
Y55100D02*X55252Y55303D01*
X54900Y55100D02*X54548Y55303D01*
X44600Y55100D02*Y54694D01*
Y55100D02*X44952Y55303D01*
X44600Y55100D02*X44248Y55303D01*
X51300Y56000D02*Y55594D01*
Y56000D02*X51652Y56203D01*
X51300Y56000D02*X50948Y56203D01*
X39100Y69700D02*Y69294D01*
Y69700D02*X39452Y69903D01*
X39100Y69700D02*X38748Y69903D01*
X51100Y69700D02*Y69294D01*
Y69700D02*X51452Y69903D01*
X51100Y69700D02*X50748Y69903D01*
X39100Y55100D02*Y54694D01*
Y55100D02*X39452Y55303D01*
X39100Y55100D02*X38748Y55303D01*
X51100Y55100D02*Y54694D01*
Y55100D02*X51452Y55303D01*
X51100Y55100D02*X50748Y55303D01*
X41500Y27200D02*Y26794D01*
Y27200D02*X41852Y27403D01*
X41500Y27200D02*X41148Y27403D01*
X53500Y27200D02*Y26794D01*
Y27200D02*X53852Y27403D01*
X53500Y27200D02*X53148Y27403D01*
X53500Y41800D02*Y41394D01*
Y41800D02*X53852Y42003D01*
X53500Y41800D02*X53148Y42003D01*
X41500Y41800D02*Y41394D01*
Y41800D02*X41852Y42003D01*
X41500Y41800D02*X41148Y42003D01*
X47900Y69700D02*Y69294D01*
Y69700D02*X48252Y69903D01*
X47900Y69700D02*X47548Y69903D01*
X88800Y33100D02*Y32694D01*
Y33100D02*X89152Y33303D01*
X88800Y33100D02*X88448Y33303D01*
X87900Y33400D02*Y32994D01*
Y33400D02*X88252Y33603D01*
X87900Y33400D02*X87548Y33603D01*
X46500Y68000D02*Y67594D01*
Y68000D02*X46852Y68203D01*
X46500Y68000D02*X46148Y68203D01*
X74300Y61700D02*Y61294D01*
Y61700D02*X74652Y61903D01*
X74300Y61700D02*X73948Y61903D01*
X74300Y60900D02*Y60494D01*
Y60900D02*X74652Y61103D01*
X74300Y60900D02*X73948Y61103D01*
X74300Y60100D02*Y59694D01*
Y60100D02*X74652Y60303D01*
X74300Y60100D02*X73948Y60303D01*
X74300Y59400D02*Y58994D01*
Y59400D02*X74652Y59603D01*
X74300Y59400D02*X73948Y59603D01*
X65100Y35400D02*Y34994D01*
Y35400D02*X65452Y35603D01*
X65100Y35400D02*X64748Y35603D01*
X65100Y36200D02*Y35794D01*
Y36200D02*X65452Y36403D01*
X65100Y36200D02*X64748Y36403D01*
X65100Y37000D02*Y36594D01*
Y37000D02*X65452Y37203D01*
X65100Y37000D02*X64748Y37203D01*
X65100Y37700D02*Y37294D01*
Y37700D02*X65452Y37903D01*
X65100Y37700D02*X64748Y37903D01*
X54400Y34700D02*Y34294D01*
Y34700D02*X54752Y34903D01*
X54400Y34700D02*X54048Y34903D01*
X55300Y35400D02*Y34994D01*
Y35400D02*X55652Y35603D01*
X55300Y35400D02*X54948Y35603D01*
X55300Y37600D02*Y37194D01*
Y37600D02*X55652Y37803D01*
X55300Y37600D02*X54948Y37803D01*
X3810Y123338D02*Y122931D01*
Y123338D02*X4162Y123541D01*
X3810Y123338D02*X3458Y123541D01*
X34290Y123909D02*X34671Y123147D01*
X35052Y123909D01*
X34671Y123147D02*Y122385D01*
X35509Y123223D02*X36081D01*
X35509Y122385D02*X36271D01*
X35509Y123909D02*Y122385D01*
Y123909D02*X36271D01*
X37490D02*X37681Y123718D01*
X36919Y123909D02*X37490D01*
X36728Y123718D02*X36919Y123909D01*
X36728Y123718D02*Y123338D01*
X36919Y123147D01*
X37490D01*
X37681Y122956D01*
Y122576D01*
X37490Y122385D02*X37681Y122576D01*
X36919Y122385D02*X37490D01*
X36728Y122576D02*X36919Y122385D01*
X24892Y122956D02*X25654Y123909D01*
X24892Y122956D02*X25844D01*
X25654Y123909D02*Y122385D01*
X26302Y123718D02*X26492Y123909D01*
X26873D01*
X27064Y123718D01*
X26873Y122385D02*X27064Y122576D01*
X26492Y122385D02*X26873D01*
X26302Y122576D02*X26492Y122385D01*
Y123223D02*X26873D01*
X27064Y123718D02*Y123414D01*
Y123033D02*Y122576D01*
Y123033D02*X26873Y123223D01*
X27064Y123414D02*X26873Y123223D01*
X27521Y122576D02*X27711Y122385D01*
X27521Y122880D02*Y122576D01*
Y122880D02*X27788Y123147D01*
X28016D01*
X28283Y122880D01*
Y122576D01*
X28092Y122385D02*X28283Y122576D01*
X27711Y122385D02*X28092D01*
X27521Y123414D02*X27788Y123147D01*
X27521Y123718D02*Y123414D01*
Y123718D02*X27711Y123909D01*
X28092D01*
X28283Y123718D01*
Y123414D01*
X28016Y123147D02*X28283Y123414D01*
X11430Y122576D02*X11620Y122385D01*
X11430Y123718D02*Y122576D01*
Y123718D02*X11620Y123909D01*
X12002D01*
X12192Y123718D01*
Y122576D01*
X12002Y122385D02*X12192Y122576D01*
X11620Y122385D02*X12002D01*
X11430Y122766D02*X12192Y123528D01*
X12649Y122385D02*X12840D01*
X13297Y122576D02*X13487Y122385D01*
X13297Y123718D02*Y122576D01*
Y123718D02*X13487Y123909D01*
X13868D01*
X14059Y123718D01*
Y122576D01*
X13868Y122385D02*X14059Y122576D01*
X13487Y122385D02*X13868D01*
X13297Y122766D02*X14059Y123528D01*
X14516Y123604D02*X14821Y123909D01*
Y122385D01*
X14516D02*X15088D01*
X15545Y123718D02*X15735Y123909D01*
X16307D01*
X16497Y123718D01*
Y123338D01*
X15545Y122385D02*X16497Y123338D01*
X15545Y122385D02*X16497D01*
X762Y127719D02*X952Y127528D01*
X190Y127719D02*X762D01*
X0Y127528D02*X190Y127719D01*
X0Y127528D02*Y127148D01*
X190Y126957D01*
X762D01*
X952Y126766D01*
Y126386D01*
X762Y126195D02*X952Y126386D01*
X190Y126195D02*X762D01*
X0Y126386D02*X190Y126195D01*
X1410Y126957D02*Y126386D01*
X1600Y126195D01*
X2172Y126957D02*Y125814D01*
X1981Y125624D02*X2172Y125814D01*
X1600Y125624D02*X1981D01*
X1410Y125814D02*X1600Y125624D01*
Y126195D02*X1981D01*
X2172Y126386D01*
X2819Y126766D02*Y126195D01*
Y126766D02*X3010Y126957D01*
X3200D01*
X3391Y126766D01*
Y126195D01*
Y126766D02*X3581Y126957D01*
X3772D01*
X3962Y126766D01*
Y126195D01*
X2629Y126957D02*X2819Y126766D01*
X4420Y127719D02*Y126195D01*
Y126386D02*X4610Y126195D01*
X4991D01*
X5182Y126386D01*
Y126766D02*Y126386D01*
X4991Y126957D02*X5182Y126766D01*
X4610Y126957D02*X4991D01*
X4420Y126766D02*X4610Y126957D01*
X5639Y126766D02*Y126386D01*
Y126766D02*X5829Y126957D01*
X6210D01*
X6401Y126766D01*
Y126386D01*
X6210Y126195D02*X6401Y126386D01*
X5829Y126195D02*X6210D01*
X5639Y126386D02*X5829Y126195D01*
X6858Y127719D02*Y126386D01*
X7049Y126195D01*
X0Y125369D02*X7430D01*
X10604Y127719D02*Y126195D01*
X11100Y127719D02*X11366Y127452D01*
Y126462D01*
X11100Y126195D02*X11366Y126462D01*
X10414Y126195D02*X11100D01*
X10414Y127719D02*X11100D01*
G54D154*X11824Y127338D02*Y127300D01*
G54D153*Y126766D02*Y126195D01*
X12776Y126957D02*X12967Y126766D01*
X12395Y126957D02*X12776D01*
X12205Y126766D02*X12395Y126957D01*
X12205Y126766D02*Y126386D01*
X12395Y126195D01*
X12967Y126957D02*Y126386D01*
X13157Y126195D01*
X12395D02*X12776D01*
X12967Y126386D01*
X13805Y126766D02*Y126195D01*
Y126766D02*X13995Y126957D01*
X14186D01*
X14376Y126766D01*
Y126195D01*
Y126766D02*X14567Y126957D01*
X14757D01*
X14948Y126766D01*
Y126195D01*
X13614Y126957D02*X13805Y126766D01*
X15405Y126195D02*X15596D01*
X16739Y126386D02*X16929Y126195D01*
X16739Y127528D02*X16929Y127719D01*
X16739Y127528D02*Y126386D01*
X17386Y127719D02*X17767D01*
X17577D02*Y126195D01*
X17386D02*X17767D01*
X18415Y126766D02*Y126195D01*
Y126766D02*X18606Y126957D01*
X18796D01*
X18987Y126766D01*
Y126195D01*
X18225Y126957D02*X18415Y126766D01*
X19634Y126957D02*X20206D01*
X19444Y126766D02*X19634Y126957D01*
X19444Y126766D02*Y126386D01*
X19634Y126195D01*
X20206D01*
X20663Y127719D02*Y126195D01*
Y126766D02*X20853Y126957D01*
X21234D01*
X21425Y126766D01*
Y126195D01*
X21882Y127719D02*X22073Y127528D01*
Y126386D01*
X21882Y126195D02*X22073Y126386D01*
X10414Y125369D02*X22530D01*
X24397Y126195D02*X24892D01*
X24130Y126462D02*X24397Y126195D01*
X24130Y127452D02*Y126462D01*
Y127452D02*X24397Y127719D01*
X24892D01*
X25349Y126766D02*Y126386D01*
Y126766D02*X25540Y126957D01*
X25921D01*
X26111Y126766D01*
Y126386D01*
X25921Y126195D02*X26111Y126386D01*
X25540Y126195D02*X25921D01*
X25349Y126386D02*X25540Y126195D01*
X26568Y126957D02*Y126386D01*
X26759Y126195D01*
X27140D01*
X27330Y126386D01*
Y126957D02*Y126386D01*
X27978Y126766D02*Y126195D01*
Y126766D02*X28169Y126957D01*
X28359D01*
X28550Y126766D01*
Y126195D01*
X27788Y126957D02*X27978Y126766D01*
X29197Y127719D02*Y126386D01*
X29388Y126195D01*
X29007Y127148D02*X29388D01*
X24130Y125369D02*X29769D01*
X33210Y127719D02*Y126195D01*
X33020Y127719D02*X33782D01*
X33972Y127528D01*
Y127148D01*
X33782Y126957D02*X33972Y127148D01*
X33210Y126957D02*X33782D01*
X34430Y127719D02*Y126386D01*
X34620Y126195D01*
X35573Y126957D02*X35763Y126766D01*
X35192Y126957D02*X35573D01*
X35001Y126766D02*X35192Y126957D01*
X35001Y126766D02*Y126386D01*
X35192Y126195D01*
X35763Y126957D02*Y126386D01*
X35954Y126195D01*
X35192D02*X35573D01*
X35763Y126386D01*
X36601Y127719D02*Y126386D01*
X36792Y126195D01*
X36411Y127148D02*X36792D01*
X37363Y126195D02*X37935D01*
X37173Y126386D02*X37363Y126195D01*
X37173Y126766D02*Y126386D01*
Y126766D02*X37363Y126957D01*
X37744D01*
X37935Y126766D01*
X37173Y126576D02*X37935D01*
Y126766D02*Y126576D01*
X39154Y127719D02*Y126195D01*
X38964D02*X39154Y126386D01*
X38583Y126195D02*X38964D01*
X38392Y126386D02*X38583Y126195D01*
X38392Y126766D02*Y126386D01*
Y126766D02*X38583Y126957D01*
X38964D01*
X39154Y126766D01*
X39992Y126957D02*Y126766D01*
Y126386D02*Y126195D01*
X39611Y127528D02*Y127338D01*
Y127528D02*X39802Y127719D01*
X40183D01*
X40373Y127528D01*
Y127338D01*
X39992Y126957D02*X40373Y127338D01*
X33020Y125369D02*X40831D01*
X0Y131529D02*X762D01*
X381D02*Y130005D01*
X1219Y131529D02*Y130005D01*
Y130577D02*X1410Y130767D01*
X1791D01*
X1981Y130577D01*
Y130005D01*
X2629D02*X3200D01*
X2438Y130196D02*X2629Y130005D01*
X2438Y130577D02*Y130196D01*
Y130577D02*X2629Y130767D01*
X3010D01*
X3200Y130577D01*
X2438Y130386D02*X3200D01*
Y130577D02*Y130386D01*
X3848Y130577D02*Y130005D01*
Y130577D02*X4039Y130767D01*
X4420D01*
X3658D02*X3848Y130577D01*
X5067Y130005D02*X5639D01*
X4877Y130196D02*X5067Y130005D01*
X4877Y130577D02*Y130196D01*
Y130577D02*X5067Y130767D01*
X5448D01*
X5639Y130577D01*
X4877Y130386D02*X5639D01*
Y130577D02*Y130386D01*
X7353Y130767D02*X7544Y130577D01*
X6972Y130767D02*X7353D01*
X6782Y130577D02*X6972Y130767D01*
X6782Y130577D02*Y130196D01*
X6972Y130005D01*
X7544Y130767D02*Y130196D01*
X7734Y130005D01*
X6972D02*X7353D01*
X7544Y130196D01*
X8382Y130577D02*Y130005D01*
Y130577D02*X8573Y130767D01*
X8954D01*
X8192D02*X8382Y130577D01*
X9601Y130005D02*X10173D01*
X9411Y130196D02*X9601Y130005D01*
X9411Y130577D02*Y130196D01*
Y130577D02*X9601Y130767D01*
X9982D01*
X10173Y130577D01*
X9411Y130386D02*X10173D01*
Y130577D02*Y130386D01*
X11506Y130005D02*X12078Y130767D01*
Y131338D02*Y130767D01*
X11887Y131529D02*X12078Y131338D01*
X11506Y131529D02*X11887D01*
X11316Y131338D02*X11506Y131529D01*
X11316Y131338D02*Y130958D01*
X11506Y130767D01*
X12078D01*
X13983Y131529D02*Y130005D01*
X13792D02*X13983Y130196D01*
X13411Y130005D02*X13792D01*
X13221Y130196D02*X13411Y130005D01*
X13221Y130577D02*Y130196D01*
Y130577D02*X13411Y130767D01*
X13792D01*
X13983Y130577D01*
G54D154*X14440Y131148D02*Y131110D01*
G54D153*Y130577D02*Y130005D01*
X15011Y131338D02*Y130005D01*
Y131338D02*X15202Y131529D01*
X15392D01*
X14821Y130767D02*X15202D01*
X15964Y131338D02*Y130005D01*
Y131338D02*X16154Y131529D01*
X16345D01*
X15773Y130767D02*X16154D01*
X16916Y130005D02*X17488D01*
X16726Y130196D02*X16916Y130005D01*
X16726Y130577D02*Y130196D01*
Y130577D02*X16916Y130767D01*
X17297D01*
X17488Y130577D01*
X16726Y130386D02*X17488D01*
Y130577D02*Y130386D01*
X18136Y130577D02*Y130005D01*
Y130577D02*X18326Y130767D01*
X18707D01*
X17945D02*X18136Y130577D01*
X19355Y130005D02*X19926D01*
X19164Y130196D02*X19355Y130005D01*
X19164Y130577D02*Y130196D01*
Y130577D02*X19355Y130767D01*
X19736D01*
X19926Y130577D01*
X19164Y130386D02*X19926D01*
Y130577D02*Y130386D01*
X20574Y130577D02*Y130005D01*
Y130577D02*X20765Y130767D01*
X20955D01*
X21146Y130577D01*
Y130005D01*
X20384Y130767D02*X20574Y130577D01*
X21793Y131529D02*Y130196D01*
X21984Y130005D01*
X21603Y130958D02*X21984D01*
X23813Y131529D02*Y130005D01*
X23622D02*X23813Y130196D01*
X23241Y130005D02*X23622D01*
X23051Y130196D02*X23241Y130005D01*
X23051Y130577D02*Y130196D01*
Y130577D02*X23241Y130767D01*
X23622D01*
X23813Y130577D01*
X24460D02*Y130005D01*
Y130577D02*X24651Y130767D01*
X25032D01*
X24270D02*X24460Y130577D01*
G54D154*X25489Y131148D02*Y131110D01*
G54D153*Y130577D02*Y130005D01*
X25870Y131529D02*Y130196D01*
X26060Y130005D01*
X26441Y131529D02*Y130196D01*
X26632Y130005D01*
X27889D02*X28461D01*
X28651Y130196D01*
X28461Y130386D02*X28651Y130196D01*
X27889Y130386D02*X28461D01*
X27699Y130577D02*X27889Y130386D01*
X27699Y130577D02*X27889Y130767D01*
X28461D01*
X28651Y130577D01*
X27699Y130196D02*X27889Y130005D01*
G54D154*X29108Y131148D02*Y131110D01*
G54D153*Y130577D02*Y130005D01*
X29489Y130767D02*X30251D01*
X29489Y130005D02*X30251Y130767D01*
X29489Y130005D02*X30251D01*
X30899D02*X31471D01*
X30709Y130196D02*X30899Y130005D01*
X30709Y130577D02*Y130196D01*
Y130577D02*X30899Y130767D01*
X31280D01*
X31471Y130577D01*
X30709Y130386D02*X31471D01*
Y130577D02*Y130386D01*
X32118Y130005D02*X32690D01*
X32880Y130196D01*
X32690Y130386D02*X32880Y130196D01*
X32118Y130386D02*X32690D01*
X31928Y130577D02*X32118Y130386D01*
X31928Y130577D02*X32118Y130767D01*
X32690D01*
X32880Y130577D01*
X31928Y130196D02*X32118Y130005D01*
X34023Y130767D02*Y130196D01*
X34214Y130005D01*
X34595D01*
X34785Y130196D01*
Y130767D02*Y130196D01*
X35433Y130005D02*X36005D01*
X36195Y130196D01*
X36005Y130386D02*X36195Y130196D01*
X35433Y130386D02*X36005D01*
X35243Y130577D02*X35433Y130386D01*
X35243Y130577D02*X35433Y130767D01*
X36005D01*
X36195Y130577D01*
X35243Y130196D02*X35433Y130005D01*
X36843D02*X37414D01*
X36652Y130196D02*X36843Y130005D01*
X36652Y130577D02*Y130196D01*
Y130577D02*X36843Y130767D01*
X37224D01*
X37414Y130577D01*
X36652Y130386D02*X37414D01*
Y130577D02*Y130386D01*
X38633Y131529D02*Y130005D01*
X38443D02*X38633Y130196D01*
X38062Y130005D02*X38443D01*
X37871Y130196D02*X38062Y130005D01*
X37871Y130577D02*Y130196D01*
Y130577D02*X38062Y130767D01*
X38443D01*
X38633Y130577D01*
G54D154*X39776Y131148D02*Y131110D01*
G54D153*Y130577D02*Y130005D01*
X40348Y130577D02*Y130005D01*
Y130577D02*X40538Y130767D01*
X40729D01*
X40919Y130577D01*
Y130005D01*
X40157Y130767D02*X40348Y130577D01*
X42253Y131529D02*Y130196D01*
X42443Y130005D01*
X42062Y130958D02*X42443D01*
X42824Y131529D02*Y130005D01*
Y130577D02*X43015Y130767D01*
X43396D01*
X43586Y130577D01*
Y130005D01*
G54D154*X44044Y131148D02*Y131110D01*
G54D153*Y130577D02*Y130005D01*
X44615D02*X45187D01*
X45377Y130196D01*
X45187Y130386D02*X45377Y130196D01*
X44615Y130386D02*X45187D01*
X44425Y130577D02*X44615Y130386D01*
X44425Y130577D02*X44615Y130767D01*
X45187D01*
X45377Y130577D01*
X44425Y130196D02*X44615Y130005D01*
X46520Y131529D02*Y130196D01*
X46711Y130005D01*
X47663Y130767D02*X47854Y130577D01*
X47282Y130767D02*X47663D01*
X47092Y130577D02*X47282Y130767D01*
X47092Y130577D02*Y130196D01*
X47282Y130005D01*
X47854Y130767D02*Y130196D01*
X48044Y130005D01*
X47282D02*X47663D01*
X47854Y130196D01*
X48501Y130767D02*Y130196D01*
X48692Y130005D01*
X49263Y130767D02*Y129624D01*
X49073Y129434D02*X49263Y129624D01*
X48692Y129434D02*X49073D01*
X48501Y129624D02*X48692Y129434D01*
Y130005D02*X49073D01*
X49263Y130196D01*
X49721Y130577D02*Y130196D01*
Y130577D02*X49911Y130767D01*
X50292D01*
X50483Y130577D01*
Y130196D01*
X50292Y130005D02*X50483Y130196D01*
X49911Y130005D02*X50292D01*
X49721Y130196D02*X49911Y130005D01*
X50940Y130767D02*Y130196D01*
X51130Y130005D01*
X51511D01*
X51702Y130196D01*
Y130767D02*Y130196D01*
X52349Y131529D02*Y130196D01*
X52540Y130005D01*
X52159Y130958D02*X52540D01*
X52921Y129624D02*X53302Y130005D01*
X54635D02*X55397Y131529D01*
X54445D02*X55397D01*
X55855Y131224D02*X56159Y131529D01*
Y130005D01*
X55855D02*X56426D01*
X56883Y131338D02*X57074Y131529D01*
X57645D01*
X57836Y131338D01*
Y130958D01*
X56883Y130005D02*X57836Y130958D01*
X56883Y130005D02*X57836D01*
X58979Y131529D02*Y130005D01*
Y130577D02*X59169Y130767D01*
X59550D01*
X59741Y130577D01*
Y130005D01*
X60198Y130577D02*Y130196D01*
Y130577D02*X60389Y130767D01*
X60770D01*
X60960Y130577D01*
Y130196D01*
X60770Y130005D02*X60960Y130196D01*
X60389Y130005D02*X60770D01*
X60198Y130196D02*X60389Y130005D01*
X61417Y131529D02*Y130196D01*
X61608Y130005D01*
X62179D02*X62751D01*
X61989Y130196D02*X62179Y130005D01*
X61989Y130577D02*Y130196D01*
Y130577D02*X62179Y130767D01*
X62560D01*
X62751Y130577D01*
X61989Y130386D02*X62751D01*
Y130577D02*Y130386D01*
X63398Y130005D02*X63970D01*
X64160Y130196D01*
X63970Y130386D02*X64160Y130196D01*
X63398Y130386D02*X63970D01*
X63208Y130577D02*X63398Y130386D01*
X63208Y130577D02*X63398Y130767D01*
X63970D01*
X64160Y130577D01*
X63208Y130196D02*X63398Y130005D01*
X65494Y131529D02*Y130196D01*
X65684Y130005D01*
X65303Y130958D02*X65684D01*
X66065Y130577D02*Y130196D01*
Y130577D02*X66256Y130767D01*
X66637D01*
X66827Y130577D01*
Y130196D01*
X66637Y130005D02*X66827Y130196D01*
X66256Y130005D02*X66637D01*
X66065Y130196D02*X66256Y130005D01*
X67475Y131529D02*Y130196D01*
X67666Y130005D01*
X67285Y130958D02*X67666D01*
X68618Y130767D02*X68809Y130577D01*
X68237Y130767D02*X68618D01*
X68047Y130577D02*X68237Y130767D01*
X68047Y130577D02*Y130196D01*
X68237Y130005D01*
X68809Y130767D02*Y130196D01*
X68999Y130005D01*
X68237D02*X68618D01*
X68809Y130196D01*
X69456Y131529D02*Y130196D01*
X69647Y130005D01*
G54D155*X79700Y67000D02*Y67800D01*
X78700D02*Y67000D01*
X87900D02*Y67800D01*
X86900D02*Y67000D01*
X19500Y71500D02*Y23500D01*
X109500D01*
Y71500D01*
X19500D01*
X42400Y70100D02*X43400D01*
Y69300D02*X42400D01*
X54400Y70100D02*X55400D01*
Y69300D02*X54400D01*
X42400Y55500D02*X43400D01*
Y54700D02*X42400D01*
X54400Y55500D02*X55400D01*
Y54700D02*X54400D01*
X38600Y70100D02*X39600D01*
Y69300D02*X38600D01*
X50600Y70100D02*X51600D01*
Y69300D02*X50600D01*
X38600Y55500D02*X39600D01*
Y54700D02*X38600D01*
X50600Y55500D02*X51600D01*
Y54700D02*X50600D01*
X41000Y27600D02*X42000D01*
Y26800D02*X41000D01*
X53000Y27600D02*X54000D01*
Y26800D02*X53000D01*
Y42200D02*X54000D01*
Y41400D02*X53000D01*
X41000Y42200D02*X42000D01*
Y41400D02*X41000D01*
X79200Y68300D02*G75*G02X79700Y67800I0J-500D01*G01*
X79200Y68300D02*G75*G03X78700Y67800I0J-500D01*G01*
X79200Y66500D02*G75*G03X79700Y67000I0J500D01*G01*
X79200Y66500D02*G75*G02X78700Y67000I0J500D01*G01*
X87400Y68300D02*G75*G02X87900Y67800I0J-500D01*G01*
X87400Y68300D02*G75*G03X86900Y67800I0J-500D01*G01*
X87400Y66500D02*G75*G03X87900Y67000I0J500D01*G01*
X87400Y66500D02*G75*G02X86900Y67000I0J500D01*G01*
X42000Y69700D02*G75*G02X42400Y70100I400J0D01*G01*
X42000Y69700D02*G75*G03X42400Y69300I400J0D01*G01*
X43400Y70100D02*G75*G02X43800Y69700I0J-400D01*G01*
G75*G02X43400Y69300I-400J0D01*G01*
X54000Y69700D02*G75*G02X54400Y70100I400J0D01*G01*
X54000Y69700D02*G75*G03X54400Y69300I400J0D01*G01*
X55400Y70100D02*G75*G02X55800Y69700I0J-400D01*G01*
G75*G02X55400Y69300I-400J0D01*G01*
X42000Y55100D02*G75*G02X42400Y55500I400J0D01*G01*
X42000Y55100D02*G75*G03X42400Y54700I400J0D01*G01*
X43400Y55500D02*G75*G02X43800Y55100I0J-400D01*G01*
G75*G02X43400Y54700I-400J0D01*G01*
X54000Y55100D02*G75*G02X54400Y55500I400J0D01*G01*
X54000Y55100D02*G75*G03X54400Y54700I400J0D01*G01*
X55400Y55500D02*G75*G02X55800Y55100I0J-400D01*G01*
G75*G02X55400Y54700I-400J0D01*G01*
X38200Y69700D02*G75*G02X38600Y70100I400J0D01*G01*
X38200Y69700D02*G75*G03X38600Y69300I400J0D01*G01*
X39600Y70100D02*G75*G02X40000Y69700I0J-400D01*G01*
G75*G02X39600Y69300I-400J0D01*G01*
X50200Y69700D02*G75*G02X50600Y70100I400J0D01*G01*
X50200Y69700D02*G75*G03X50600Y69300I400J0D01*G01*
X51600Y70100D02*G75*G02X52000Y69700I0J-400D01*G01*
G75*G02X51600Y69300I-400J0D01*G01*
X38200Y55100D02*G75*G02X38600Y55500I400J0D01*G01*
X38200Y55100D02*G75*G03X38600Y54700I400J0D01*G01*
X39600Y55500D02*G75*G02X40000Y55100I0J-400D01*G01*
G75*G02X39600Y54700I-400J0D01*G01*
X50200Y55100D02*G75*G02X50600Y55500I400J0D01*G01*
X50200Y55100D02*G75*G03X50600Y54700I400J0D01*G01*
X51600Y55500D02*G75*G02X52000Y55100I0J-400D01*G01*
G75*G02X51600Y54700I-400J0D01*G01*
X40600Y27200D02*G75*G02X41000Y27600I400J0D01*G01*
X40600Y27200D02*G75*G03X41000Y26800I400J0D01*G01*
X42000Y27600D02*G75*G02X42400Y27200I0J-400D01*G01*
G75*G02X42000Y26800I-400J0D01*G01*
X52600Y27200D02*G75*G02X53000Y27600I400J0D01*G01*
X52600Y27200D02*G75*G03X53000Y26800I400J0D01*G01*
X54000Y27600D02*G75*G02X54400Y27200I0J-400D01*G01*
G75*G02X54000Y26800I-400J0D01*G01*
X52600Y41800D02*G75*G02X53000Y42200I400J0D01*G01*
X52600Y41800D02*G75*G03X53000Y41400I400J0D01*G01*
X54000Y42200D02*G75*G02X54400Y41800I0J-400D01*G01*
G75*G02X54000Y41400I-400J0D01*G01*
X40600Y41800D02*G75*G02X41000Y42200I400J0D01*G01*
X40600Y41800D02*G75*G03X41000Y41400I400J0D01*G01*
X42000Y42200D02*G75*G02X42400Y41800I0J-400D01*G01*
G75*G02X42000Y41400I-400J0D01*G01*
G54D153*X48073Y-2413D02*X48835D01*
X49026Y-2222D01*
Y-1765D02*Y-2222D01*
X48835Y-1575D02*X49026Y-1765D01*
X48264Y-1575D02*X48835D01*
X48264Y-889D02*Y-2413D01*
X48073Y-889D02*X48835D01*
X49026Y-1080D01*
Y-1384D01*
X48835Y-1575D02*X49026Y-1384D01*
X49483Y-1842D02*Y-2222D01*
Y-1842D02*X49674Y-1651D01*
X50055D01*
X50245Y-1842D01*
Y-2222D01*
X50055Y-2413D02*X50245Y-2222D01*
X49674Y-2413D02*X50055D01*
X49483Y-2222D02*X49674Y-2413D01*
X51274Y-1651D02*X51464Y-1842D01*
X50893Y-1651D02*X51274D01*
X50702Y-1842D02*X50893Y-1651D01*
X50702Y-1842D02*Y-2222D01*
X50893Y-2413D01*
X51464Y-1651D02*Y-2222D01*
X51655Y-2413D01*
X50893D02*X51274D01*
X51464Y-2222D01*
X52303Y-1842D02*Y-2413D01*
Y-1842D02*X52493Y-1651D01*
X52874D01*
X52112D02*X52303Y-1842D01*
X54093Y-889D02*Y-2413D01*
X53903D02*X54093Y-2222D01*
X53522Y-2413D02*X53903D01*
X53331Y-2222D02*X53522Y-2413D01*
X53331Y-1842D02*Y-2222D01*
Y-1842D02*X53522Y-1651D01*
X53903D01*
X54093Y-1842D01*
X55236D02*Y-2222D01*
Y-1842D02*X55427Y-1651D01*
X55808D01*
X55998Y-1842D01*
Y-2222D01*
X55808Y-2413D02*X55998Y-2222D01*
X55427Y-2413D02*X55808D01*
X55236Y-2222D02*X55427Y-2413D01*
X56455Y-1651D02*Y-2222D01*
X56646Y-2413D01*
X57027D01*
X57217Y-2222D01*
Y-1651D02*Y-2222D01*
X57865Y-889D02*Y-2222D01*
X58056Y-2413D01*
X57675Y-1460D02*X58056D01*
X58437Y-889D02*Y-2222D01*
X58627Y-2413D01*
G54D154*X59008Y-1270D02*Y-1308D01*
G54D153*Y-1842D02*Y-2413D01*
X59580Y-1842D02*Y-2413D01*
Y-1842D02*X59770Y-1651D01*
X59961D01*
X60151Y-1842D01*
Y-2413D01*
X59389Y-1651D02*X59580Y-1842D01*
X60799Y-2413D02*X61370D01*
X60608Y-2222D02*X60799Y-2413D01*
X60608Y-1842D02*Y-2222D01*
Y-1842D02*X60799Y-1651D01*
X61180D01*
X61370Y-1842D01*
X60608Y-2032D02*X61370D01*
Y-1842D02*Y-2032D01*
G54D154*X62513Y-1270D02*Y-1308D01*
G54D153*Y-1842D02*Y-2413D01*
X63085D02*X63656D01*
X63847Y-2222D01*
X63656Y-2032D02*X63847Y-2222D01*
X63085Y-2032D02*X63656D01*
X62894Y-1842D02*X63085Y-2032D01*
X62894Y-1842D02*X63085Y-1651D01*
X63656D01*
X63847Y-1842D01*
X62894Y-2222D02*X63085Y-2413D01*
X65180Y-889D02*Y-2222D01*
X65371Y-2413D01*
X64990Y-1460D02*X65371D01*
X65752Y-889D02*Y-2413D01*
Y-1842D02*X65942Y-1651D01*
X66323D01*
X66514Y-1842D01*
Y-2413D01*
X67162D02*X67733D01*
X66971Y-2222D02*X67162Y-2413D01*
X66971Y-1842D02*Y-2222D01*
Y-1842D02*X67162Y-1651D01*
X67543D01*
X67733Y-1842D01*
X66971Y-2032D02*X67733D01*
Y-1842D02*Y-2032D01*
X69067Y-1651D02*X69638D01*
X68876Y-1842D02*X69067Y-1651D01*
X68876Y-1842D02*Y-2222D01*
X69067Y-2413D01*
X69638D01*
X70286D02*X70857D01*
X70095Y-2222D02*X70286Y-2413D01*
X70095Y-1842D02*Y-2222D01*
Y-1842D02*X70286Y-1651D01*
X70667D01*
X70857Y-1842D01*
X70095Y-2032D02*X70857D01*
Y-1842D02*Y-2032D01*
X71505Y-1842D02*Y-2413D01*
Y-1842D02*X71695Y-1651D01*
X71886D01*
X72076Y-1842D01*
Y-2413D01*
X71314Y-1651D02*X71505Y-1842D01*
X72724Y-889D02*Y-2222D01*
X72915Y-2413D01*
X72534Y-1460D02*X72915D01*
X73486Y-2413D02*X74058D01*
X73296Y-2222D02*X73486Y-2413D01*
X73296Y-1842D02*Y-2222D01*
Y-1842D02*X73486Y-1651D01*
X73867D01*
X74058Y-1842D01*
X73296Y-2032D02*X74058D01*
Y-1842D02*Y-2032D01*
X74705Y-1842D02*Y-2413D01*
Y-1842D02*X74896Y-1651D01*
X75277D01*
X74515D02*X74705Y-1842D01*
X75734Y-889D02*Y-2222D01*
X75925Y-2413D01*
G54D154*X76306Y-1270D02*Y-1308D01*
G54D153*Y-1842D02*Y-2413D01*
X76877Y-1842D02*Y-2413D01*
Y-1842D02*X77068Y-1651D01*
X77258D01*
X77449Y-1842D01*
Y-2413D01*
X76687Y-1651D02*X76877Y-1842D01*
X78096Y-2413D02*X78668D01*
X77906Y-2222D02*X78096Y-2413D01*
X77906Y-1842D02*Y-2222D01*
Y-1842D02*X78096Y-1651D01*
X78477D01*
X78668Y-1842D01*
X77906Y-2032D02*X78668D01*
Y-1842D02*Y-2032D01*
X79811Y-1842D02*Y-2222D01*
Y-1842D02*X80001Y-1651D01*
X80382D01*
X80573Y-1842D01*
Y-2222D01*
X80382Y-2413D02*X80573Y-2222D01*
X80001Y-2413D02*X80382D01*
X79811Y-2222D02*X80001Y-2413D01*
X81220Y-1080D02*Y-2413D01*
Y-1080D02*X81411Y-889D01*
X81601D01*
X81030Y-1651D02*X81411D01*
X82859Y-889D02*Y-2222D01*
X83049Y-2413D01*
X82668Y-1460D02*X83049D01*
X83430Y-889D02*Y-2413D01*
Y-1842D02*X83621Y-1651D01*
X84002D01*
X84192Y-1842D01*
Y-2413D01*
G54D154*X84649Y-1270D02*Y-1308D01*
G54D153*Y-1842D02*Y-2413D01*
X85221D02*X85792D01*
X85983Y-2222D01*
X85792Y-2032D02*X85983Y-2222D01*
X85221Y-2032D02*X85792D01*
X85030Y-1842D02*X85221Y-2032D01*
X85030Y-1842D02*X85221Y-1651D01*
X85792D01*
X85983Y-1842D01*
X85030Y-2222D02*X85221Y-2413D01*
X87316Y-1842D02*Y-2984D01*
X87126Y-1651D02*X87316Y-1842D01*
X87507Y-1651D01*
X87888D01*
X88078Y-1842D01*
Y-2222D01*
X87888Y-2413D02*X88078Y-2222D01*
X87507Y-2413D02*X87888D01*
X87316Y-2222D02*X87507Y-2413D01*
X89107Y-1651D02*X89298Y-1842D01*
X88726Y-1651D02*X89107D01*
X88536Y-1842D02*X88726Y-1651D01*
X88536Y-1842D02*Y-2222D01*
X88726Y-2413D01*
X89298Y-1651D02*Y-2222D01*
X89488Y-2413D01*
X88726D02*X89107D01*
X89298Y-2222D01*
X90136Y-889D02*Y-2222D01*
X90326Y-2413D01*
X89945Y-1460D02*X90326D01*
X90707Y-889D02*Y-2413D01*
Y-1842D02*X90898Y-1651D01*
X91279D01*
X91469Y-1842D01*
Y-2413D01*
X50990Y97239D02*Y95715D01*
X51486Y97239D02*X51752Y96972D01*
Y95982D01*
X51486Y95715D02*X51752Y95982D01*
X50800Y95715D02*X51486D01*
X50800Y97239D02*X51486D01*
X52781Y96477D02*X52972Y96286D01*
X52400Y96477D02*X52781D01*
X52210Y96286D02*X52400Y96477D01*
X52210Y96286D02*Y95906D01*
X52400Y95715D01*
X52972Y96477D02*Y95906D01*
X53162Y95715D01*
X52400D02*X52781D01*
X52972Y95906D01*
X53810Y97239D02*Y95906D01*
X54000Y95715D01*
X53619Y96668D02*X54000D01*
X54572Y95715D02*X55143D01*
X54381Y95906D02*X54572Y95715D01*
X54381Y96286D02*Y95906D01*
Y96286D02*X54572Y96477D01*
X54953D01*
X55143Y96286D01*
X54381Y96096D02*X55143D01*
Y96286D02*Y96096D01*
X55601Y96668D02*X55791D01*
X55601Y96286D02*X55791D01*
X57696Y97239D02*X57887Y97048D01*
X57125Y97239D02*X57696D01*
X56934Y97048D02*X57125Y97239D01*
X56934Y97048D02*Y96668D01*
X57125Y96477D01*
X57696D01*
X57887Y96286D01*
Y95906D01*
X57696Y95715D02*X57887Y95906D01*
X57125Y95715D02*X57696D01*
X56934Y95906D02*X57125Y95715D01*
X58344Y96477D02*Y95906D01*
X58534Y95715D01*
X58915D01*
X59106Y95906D01*
Y96477D02*Y95906D01*
X59754Y96286D02*Y95715D01*
Y96286D02*X59944Y96477D01*
X60135D01*
X60325Y96286D01*
Y95715D01*
X59563Y96477D02*X59754Y96286D01*
X62230Y97239D02*X62421Y97048D01*
X61659Y97239D02*X62230D01*
X61468Y97048D02*X61659Y97239D01*
X61468Y97048D02*Y96668D01*
X61659Y96477D01*
X62230D01*
X62421Y96286D01*
Y95906D01*
X62230Y95715D02*X62421Y95906D01*
X61659Y95715D02*X62230D01*
X61468Y95906D02*X61659Y95715D01*
X63068D02*X63640D01*
X62878Y95906D02*X63068Y95715D01*
X62878Y96286D02*Y95906D01*
Y96286D02*X63068Y96477D01*
X63449D01*
X63640Y96286D01*
X62878Y96096D02*X63640D01*
Y96286D02*Y96096D01*
X64287Y96286D02*Y95144D01*
X64097Y96477D02*X64287Y96286D01*
X64478Y96477D01*
X64859D01*
X65049Y96286D01*
Y95906D01*
X64859Y95715D02*X65049Y95906D01*
X64478Y95715D02*X64859D01*
X64287Y95906D02*X64478Y95715D01*
X66192Y97048D02*X66383Y97239D01*
X66954D01*
X67145Y97048D01*
Y96668D01*
X66192Y95715D02*X67145Y96668D01*
X66192Y95715D02*X67145D01*
X67793D02*X68364Y96477D01*
Y97048D02*Y96477D01*
X68174Y97239D02*X68364Y97048D01*
X67793Y97239D02*X68174D01*
X67602Y97048D02*X67793Y97239D01*
X67602Y97048D02*Y96668D01*
X67793Y96477D01*
X68364D01*
X69507Y96934D02*X69812Y97239D01*
Y95715D01*
X69507D02*X70079D01*
X70536Y97048D02*X70726Y97239D01*
X71298D01*
X71488Y97048D01*
Y96668D01*
X70536Y95715D02*X71488Y96668D01*
X70536Y95715D02*X71488D01*
X71946Y96668D02*X72136D01*
X71946Y96286D02*X72136D01*
X72593Y95906D02*X72784Y95715D01*
X72593Y97048D02*Y95906D01*
Y97048D02*X72784Y97239D01*
X73165D01*
X73355Y97048D01*
Y95906D01*
X73165Y95715D02*X73355Y95906D01*
X72784Y95715D02*X73165D01*
X72593Y96096D02*X73355Y96858D01*
X73812Y97048D02*X74003Y97239D01*
X74574D01*
X74765Y97048D01*
Y96668D01*
X73812Y95715D02*X74765Y96668D01*
X73812Y95715D02*X74765D01*
X75222Y96668D02*X75413D01*
X75222Y96286D02*X75413D01*
X75870Y96934D02*X76175Y97239D01*
Y95715D01*
X75870D02*X76441D01*
X76899Y95906D02*X77089Y95715D01*
X76899Y97048D02*Y95906D01*
Y97048D02*X77089Y97239D01*
X77470D01*
X77661Y97048D01*
Y95906D01*
X77470Y95715D02*X77661Y95906D01*
X77089Y95715D02*X77470D01*
X76899Y96096D02*X77661Y96858D01*
X78804Y97048D02*X78994Y97239D01*
X79566D01*
X79756Y97048D01*
Y96668D01*
X78804Y95715D02*X79756Y96668D01*
X78804Y95715D02*X79756D01*
X80213Y95906D02*X80404Y95715D01*
X80213Y97048D02*Y95906D01*
Y97048D02*X80404Y97239D01*
X80785D01*
X80975Y97048D01*
Y95906D01*
X80785Y95715D02*X80975Y95906D01*
X80404Y95715D02*X80785D01*
X80213Y96096D02*X80975Y96858D01*
X81432Y96934D02*X81737Y97239D01*
Y95715D01*
X81432D02*X82004D01*
X82652D02*X83223Y96477D01*
Y97048D02*Y96477D01*
X83033Y97239D02*X83223Y97048D01*
X82652Y97239D02*X83033D01*
X82461Y97048D02*X82652Y97239D01*
X82461Y97048D02*Y96668D01*
X82652Y96477D01*
X83223D01*
X84366Y97239D02*Y95906D01*
X84557Y95715D01*
X84938D01*
X85128Y95906D01*
Y97239D02*Y95906D01*
X85585Y97239D02*X86347D01*
X85966D02*Y95715D01*
X87071D02*X87567D01*
X86805Y95982D02*X87071Y95715D01*
X86805Y96972D02*Y95982D01*
Y96972D02*X87071Y97239D01*
X87567D01*
X50800Y100668D02*Y99525D01*
Y100668D02*X51067Y101049D01*
X51486D01*
X51752Y100668D01*
Y99525D01*
X50800Y100287D02*X51752D01*
X52210D02*Y99716D01*
X52400Y99525D01*
X52781D01*
X52972Y99716D01*
Y100287D02*Y99716D01*
X53619Y101049D02*Y99716D01*
X53810Y99525D01*
X53429Y100478D02*X53810D01*
X54191Y101049D02*Y99525D01*
Y100096D02*X54381Y100287D01*
X54762D01*
X54953Y100096D01*
Y99525D01*
X55410Y100096D02*Y99716D01*
Y100096D02*X55601Y100287D01*
X55982D01*
X56172Y100096D01*
Y99716D01*
X55982Y99525D02*X56172Y99716D01*
X55601Y99525D02*X55982D01*
X55410Y99716D02*X55601Y99525D01*
X56820Y100096D02*Y99525D01*
Y100096D02*X57010Y100287D01*
X57391D01*
X56629D02*X56820Y100096D01*
X57849Y100478D02*X58039D01*
X57849Y100096D02*X58039D01*
X50800Y104859D02*X51562D01*
X51181D02*Y103335D01*
G54D154*X52019Y104478D02*Y104440D01*
G54D153*Y103906D02*Y103335D01*
X52591Y104859D02*Y103526D01*
X52781Y103335D01*
X52400Y104288D02*X52781D01*
X53162Y104859D02*Y103526D01*
X53353Y103335D01*
X53924D02*X54496D01*
X53734Y103526D02*X53924Y103335D01*
X53734Y103906D02*Y103526D01*
Y103906D02*X53924Y104097D01*
X54305D01*
X54496Y103906D01*
X53734Y103716D02*X54496D01*
Y103906D02*Y103716D01*
X54953Y104288D02*X55143D01*
X54953Y103906D02*X55143D01*
X56286Y104097D02*X56667Y103335D01*
X57048Y104097D02*X56667Y103335D01*
X57506Y104668D02*X57696Y104859D01*
X58268D01*
X58458Y104668D01*
Y104288D01*
X57506Y103335D02*X58458Y104288D01*
X57506Y103335D02*X58458D01*
X58915D02*X59677D01*
X60135Y103526D02*X60325Y103335D01*
X60135Y104668D02*Y103526D01*
Y104668D02*X60325Y104859D01*
X60706D01*
X60897Y104668D01*
Y103526D01*
X60706Y103335D02*X60897Y103526D01*
X60325Y103335D02*X60706D01*
X60135Y103716D02*X60897Y104478D01*
X62040Y104097D02*X62802D01*
X63945Y104859D02*Y103335D01*
Y104859D02*X64707D01*
X63945Y104173D02*X64516D01*
X65735Y104097D02*X65926Y103906D01*
X65354Y104097D02*X65735D01*
X65164Y103906D02*X65354Y104097D01*
X65164Y103906D02*Y103526D01*
X65354Y103335D01*
X65926Y104097D02*Y103526D01*
X66116Y103335D01*
X65354D02*X65735D01*
X65926Y103526D01*
X66573Y104859D02*Y103335D01*
Y103526D02*X66764Y103335D01*
X67145D01*
X67335Y103526D01*
Y103906D02*Y103526D01*
X67145Y104097D02*X67335Y103906D01*
X66764Y104097D02*X67145D01*
X66573Y103906D02*X66764Y104097D01*
X67983Y103906D02*Y103335D01*
Y103906D02*X68174Y104097D01*
X68555D01*
X67793D02*X67983Y103906D01*
G54D154*X69012Y104478D02*Y104440D01*
G54D153*Y103906D02*Y103335D01*
X69583Y104097D02*X70155D01*
X69393Y103906D02*X69583Y104097D01*
X69393Y103906D02*Y103526D01*
X69583Y103335D01*
X70155D01*
X71184Y104097D02*X71374Y103906D01*
X70803Y104097D02*X71184D01*
X70612Y103906D02*X70803Y104097D01*
X70612Y103906D02*Y103526D01*
X70803Y103335D01*
X71374Y104097D02*Y103526D01*
X71565Y103335D01*
X70803D02*X71184D01*
X71374Y103526D01*
X72212Y104859D02*Y103526D01*
X72403Y103335D01*
X72022Y104288D02*X72403D01*
G54D154*X72784Y104478D02*Y104440D01*
G54D153*Y103906D02*Y103335D01*
X73165Y103906D02*Y103526D01*
Y103906D02*X73355Y104097D01*
X73736D01*
X73927Y103906D01*
Y103526D01*
X73736Y103335D02*X73927Y103526D01*
X73355Y103335D02*X73736D01*
X73165Y103526D02*X73355Y103335D01*
X74574Y103906D02*Y103335D01*
Y103906D02*X74765Y104097D01*
X74955D01*
X75146Y103906D01*
Y103335D01*
X74384Y104097D02*X74574Y103906D01*
X76479Y104859D02*Y103335D01*
X76975Y104859D02*X77241Y104592D01*
Y103602D01*
X76975Y103335D02*X77241Y103602D01*
X76289Y103335D02*X76975D01*
X76289Y104859D02*X76975D01*
X77889Y103906D02*Y103335D01*
Y103906D02*X78080Y104097D01*
X78461D01*
X77699D02*X77889Y103906D01*
X79489Y104097D02*X79680Y103906D01*
X79108Y104097D02*X79489D01*
X78918Y103906D02*X79108Y104097D01*
X78918Y103906D02*Y103526D01*
X79108Y103335D01*
X79680Y104097D02*Y103526D01*
X79870Y103335D01*
X79108D02*X79489D01*
X79680Y103526D01*
X80328Y104097D02*Y103526D01*
X80518Y103335D01*
X80709D01*
X80899Y103526D01*
Y104097D02*Y103526D01*
X81090Y103335D01*
X81280D01*
X81471Y103526D01*
Y104097D02*Y103526D01*
G54D154*X81928Y104478D02*Y104440D01*
G54D153*Y103906D02*Y103335D01*
X82499Y103906D02*Y103335D01*
Y103906D02*X82690Y104097D01*
X82880D01*
X83071Y103906D01*
Y103335D01*
X82309Y104097D02*X82499Y103906D01*
X84099Y104097D02*X84290Y103906D01*
X83718Y104097D02*X84099D01*
X83528Y103906D02*X83718Y104097D01*
X83528Y103906D02*Y103526D01*
X83718Y103335D01*
X84099D01*
X84290Y103526D01*
X83528Y102954D02*X83718Y102764D01*
X84099D01*
X84290Y102954D01*
Y104097D02*Y102954D01*
M02*
