G04 start of page 11 for group -4078 idx -4078 *
G04 Title: v2_0, bottomsilk *
G04 Creator: pcb 4.2.0 *
G04 CreationDate: Sun Sep 29 12:02:10 2019 UTC *
G04 For: user *
G04 Format: Gerber/RS-274X *
G04 PCB-Dimensions (mm): 140.00 90.00 *
G04 PCB-Coordinate-Origin: lower left *
%MOMM*%
%FSLAX43Y43*%
%LNGBO*%
%ADD146C,0.254*%
%ADD145C,0.200*%
%ADD144C,0.280*%
G54D144*X89500Y69200D02*X88300D01*
X94600D02*X95800D01*
X88300D02*Y59200D01*
X95800Y69200D02*Y59200D01*
X88300D01*
G54D145*X81915Y28543D02*X83175D01*
X81915Y28133D02*X82135Y27913D01*
X82954D01*
X83175Y28133D02*X82954Y27913D01*
X83175Y28133D02*Y28700D01*
X81915Y28133D02*Y28700D01*
Y27535D02*X83175D01*
X81915Y26905D02*Y27535D01*
X82482Y27062D02*Y27535D01*
X81915Y26527D02*X83017D01*
X83175Y26369D01*
Y26054D02*Y26369D01*
Y26054D02*X83017Y25897D01*
X81915D02*X83017D01*
X88800Y35360D02*X89440D01*
X89120Y35040D02*Y35680D01*
X94300Y31660D02*X94940D01*
X94620Y31340D02*Y31980D01*
X58000Y38960D02*X58640D01*
X58320Y38640D02*Y39280D01*
X86300Y65372D02*X86849D01*
X86986Y65234D01*
Y64905D02*Y65234D01*
X86849Y64768D02*X86986Y64905D01*
X86437Y64768D02*X86849D01*
X86437Y64274D02*Y65372D01*
X86300Y64274D02*X86849D01*
X86986Y64411D01*
Y64631D01*
X86849Y64768D02*X86986Y64631D01*
X87315Y64823D02*X87864D01*
X87589Y64549D02*Y65097D01*
X96400Y68872D02*X96949D01*
X97086Y68734D01*
Y68405D02*Y68734D01*
X96949Y68268D02*X97086Y68405D01*
X96537Y68268D02*X96949D01*
X96537Y67774D02*Y68872D01*
X96400Y67774D02*X96949D01*
X97086Y67911D01*
Y68131D01*
X96949Y68268D02*X97086Y68131D01*
X97415Y68323D02*X97964D01*
X78400Y57960D02*X79040D01*
X78720Y57640D02*Y58280D01*
X107900Y56260D02*X108540D01*
X108220Y55940D02*Y56580D01*
X107900Y61160D02*X108540D01*
X108220Y60840D02*Y61480D01*
X107900Y63060D02*X108540D01*
X108220Y62740D02*Y63380D01*
X107900Y68060D02*X108540D01*
X108220Y67740D02*Y68380D01*
G54D146*X94570Y70470D02*Y67930D01*
X89490D02*X94570D01*
X89490Y70470D02*Y67930D01*
Y70470D02*X94570D01*
X92030Y67930D02*X94570D01*
X92030Y70470D02*Y67930D01*
X83900Y36400D02*X86500D01*
Y26240D01*
X83920Y26200D02*X86500D01*
X83900Y36400D02*Y26200D01*
G54D145*X20678Y60570D02*X21008D01*
X20500Y60392D02*X20678Y60570D01*
X20500Y59732D02*Y60392D01*
Y59732D02*X20678Y59554D01*
X21008D01*
X21313Y59681D02*Y60443D01*
Y59681D02*X21440Y59554D01*
X21694D01*
X21821Y59681D01*
Y60443D01*
X21694Y60570D02*X21821Y60443D01*
X21440Y60570D02*X21694D01*
X21313Y60443D02*X21440Y60570D01*
X22126Y59554D02*Y60570D01*
Y59554D02*X22761Y60570D01*
Y59554D02*Y60570D01*
X23065Y59554D02*Y60570D01*
Y59554D02*X23700Y60570D01*
Y59554D02*Y60570D01*
X24005Y59757D02*X24208Y59554D01*
Y60570D01*
X24005D02*X24386D01*
X24192Y34330D02*X24522D01*
X24700Y34508D02*X24522Y34330D01*
X24700Y34508D02*Y35168D01*
X24522Y35346D01*
X24192D02*X24522D01*
X23887Y34457D02*Y35219D01*
X23760Y35346D01*
X23506D02*X23760D01*
X23506D02*X23379Y35219D01*
Y34457D02*Y35219D01*
X23506Y34330D02*X23379Y34457D01*
X23506Y34330D02*X23760D01*
X23887Y34457D02*X23760Y34330D01*
X23074D02*Y35346D01*
X22439Y34330D01*
Y35346D01*
X22135Y34330D02*Y35346D01*
X21500Y34330D01*
Y35346D01*
X21195Y34711D02*X20687Y35346D01*
X20560Y34711D02*X21195D01*
X20687Y34330D02*Y35346D01*
X90178Y67270D02*X90508D01*
X90000Y67092D02*X90178Y67270D01*
X90000Y66432D02*Y67092D01*
Y66432D02*X90178Y66254D01*
X90508D01*
X90813Y66381D02*Y67143D01*
Y66381D02*X90940Y66254D01*
X91194D01*
X91321Y66381D01*
Y67143D01*
X91194Y67270D02*X91321Y67143D01*
X90940Y67270D02*X91194D01*
X90813Y67143D02*X90940Y67270D01*
X91626Y66254D02*Y67270D01*
Y66254D02*X92261Y67270D01*
Y66254D02*Y67270D01*
X92565Y66254D02*Y67270D01*
Y66254D02*X93200Y67270D01*
Y66254D02*Y67270D01*
X93505Y66381D02*X93632Y66254D01*
X93886D01*
X94013Y66381D01*
X93886Y67270D02*X94013Y67143D01*
X93632Y67270D02*X93886D01*
X93505Y67143D02*X93632Y67270D01*
Y66711D02*X93886D01*
X94013Y66381D02*Y66584D01*
Y66838D02*Y67143D01*
Y66838D02*X93886Y66711D01*
X94013Y66584D02*X93886Y66711D01*
X82154Y32492D02*X82281Y32365D01*
X82154Y32492D02*Y32873D01*
X82281Y33000D02*X82154Y32873D01*
X82281Y33000D02*X82535D01*
X82662Y32873D01*
Y32492D02*Y32873D01*
Y32492D02*X82789Y32365D01*
X83043D01*
X83170Y32492D02*X83043Y32365D01*
X83170Y32492D02*Y32873D01*
X83043Y33000D02*X83170Y32873D01*
X82281Y32060D02*X82154Y31933D01*
Y31679D02*Y31933D01*
Y31679D02*X82281Y31552D01*
X83170Y31679D02*X83043Y31552D01*
X83170Y31679D02*Y31933D01*
X83043Y32060D02*X83170Y31933D01*
X82611Y31679D02*Y31933D01*
X82281Y31552D02*X82484D01*
X82738D02*X83043D01*
X82738D02*X82611Y31679D01*
X82484Y31552D02*X82611Y31679D01*
X83043Y31247D02*X83170Y31120D01*
X82281Y31247D02*X83043D01*
X82281D02*X82154Y31120D01*
Y30866D02*Y31120D01*
Y30866D02*X82281Y30739D01*
X83043D01*
X83170Y30866D02*X83043Y30739D01*
X83170Y30866D02*Y31120D01*
X82916Y31247D02*X82408Y30739D01*
X82357Y30435D02*X82154Y30231D01*
X83170D01*
Y30054D02*Y30435D01*
M02*
