G04 start of page 6 for group 6 idx 6 *
G04 Title: v2_0, outline *
G04 Creator: pcb 4.2.0 *
G04 CreationDate: Sun Sep 29 12:02:10 2019 UTC *
G04 For: user *
G04 Format: Gerber/RS-274X *
G04 PCB-Dimensions (mm): 140.00 90.00 *
G04 PCB-Coordinate-Origin: lower left *
%MOMM*%
%FSLAX43Y43*%
%LNGM1*%
%ADD103C,0.280*%
%ADD102C,0.200*%
G54D102*X79700Y67000D02*Y67800D01*
X78700D02*Y67000D01*
X87900D02*Y67800D01*
X86900D02*Y67000D01*
G54D103*X109500Y23500D02*Y71500D01*
X19500Y23500D02*X109500D01*
G54D102*X39600Y54700D02*X38600D01*
X41000Y42200D02*X42000D01*
Y41400D02*X41000D01*
X50600Y55500D02*X51600D01*
Y54700D02*X50600D01*
X53000Y42200D02*X54000D01*
Y41400D02*X53000D01*
X41000Y27600D02*X42000D01*
Y26800D02*X41000D01*
X53000Y27600D02*X54000D01*
Y26800D02*X53000D01*
G54D103*X19500Y71500D02*Y23500D01*
X109500Y71500D02*X19500D01*
G54D102*X43400Y69300D02*X42400D01*
X54400Y70100D02*X55400D01*
Y69300D02*X54400D01*
Y55500D02*X55400D01*
Y54700D02*X54400D01*
X50600Y70100D02*X51600D01*
Y69300D02*X50600D01*
X42400Y70100D02*X43400D01*
X42400Y55500D02*X43400D01*
Y54700D02*X42400D01*
X38600Y70100D02*X39600D01*
Y69300D02*X38600D01*
Y55500D02*X39600D01*
X42000Y69700D02*G75*G02X42400Y70100I400J0D01*G01*
X42000Y69700D02*G75*G03X42400Y69300I400J0D01*G01*
X42000Y55100D02*G75*G02X42400Y55500I400J0D01*G01*
X42000Y55100D02*G75*G03X42400Y54700I400J0D01*G01*
X42000Y42200D02*G75*G02X42400Y41800I0J-400D01*G01*
G75*G02X42000Y41400I-400J0D01*G01*
X43400Y70100D02*G75*G02X43800Y69700I0J-400D01*G01*
G75*G02X43400Y69300I-400J0D01*G01*
X38200Y69700D02*G75*G02X38600Y70100I400J0D01*G01*
X38200Y69700D02*G75*G03X38600Y69300I400J0D01*G01*
X39600Y70100D02*G75*G02X40000Y69700I0J-400D01*G01*
G75*G02X39600Y69300I-400J0D01*G01*
X38200Y55100D02*G75*G02X38600Y55500I400J0D01*G01*
X38200Y55100D02*G75*G03X38600Y54700I400J0D01*G01*
X39600Y55500D02*G75*G02X40000Y55100I0J-400D01*G01*
G75*G02X39600Y54700I-400J0D01*G01*
X40600Y41800D02*G75*G02X41000Y42200I400J0D01*G01*
X40600Y41800D02*G75*G03X41000Y41400I400J0D01*G01*
X87400Y68300D02*G75*G02X87900Y67800I0J-500D01*G01*
X87400Y68300D02*G75*G03X86900Y67800I0J-500D01*G01*
X87400Y66500D02*G75*G03X87900Y67000I0J500D01*G01*
X87400Y66500D02*G75*G02X86900Y67000I0J500D01*G01*
X79200Y68300D02*G75*G02X79700Y67800I0J-500D01*G01*
X79200Y68300D02*G75*G03X78700Y67800I0J-500D01*G01*
X79200Y66500D02*G75*G03X79700Y67000I0J500D01*G01*
X79200Y66500D02*G75*G02X78700Y67000I0J500D01*G01*
X43400Y55500D02*G75*G02X43800Y55100I0J-400D01*G01*
G75*G02X43400Y54700I-400J0D01*G01*
X54000Y69700D02*G75*G02X54400Y70100I400J0D01*G01*
X54000Y69700D02*G75*G03X54400Y69300I400J0D01*G01*
X55400Y70100D02*G75*G02X55800Y69700I0J-400D01*G01*
G75*G02X55400Y69300I-400J0D01*G01*
X50200Y69700D02*G75*G02X50600Y70100I400J0D01*G01*
X50200Y69700D02*G75*G03X50600Y69300I400J0D01*G01*
X51600Y70100D02*G75*G02X52000Y69700I0J-400D01*G01*
G75*G02X51600Y69300I-400J0D01*G01*
X54000Y55100D02*G75*G02X54400Y55500I400J0D01*G01*
X54000Y55100D02*G75*G03X54400Y54700I400J0D01*G01*
X55400Y55500D02*G75*G02X55800Y55100I0J-400D01*G01*
G75*G02X55400Y54700I-400J0D01*G01*
X50200Y55100D02*G75*G02X50600Y55500I400J0D01*G01*
X50200Y55100D02*G75*G03X50600Y54700I400J0D01*G01*
X51600Y55500D02*G75*G02X52000Y55100I0J-400D01*G01*
G75*G02X51600Y54700I-400J0D01*G01*
X52600Y41800D02*G75*G02X53000Y42200I400J0D01*G01*
X52600Y41800D02*G75*G03X53000Y41400I400J0D01*G01*
X54000Y42200D02*G75*G02X54400Y41800I0J-400D01*G01*
G75*G02X54000Y41400I-400J0D01*G01*
X40600Y27200D02*G75*G02X41000Y27600I400J0D01*G01*
X40600Y27200D02*G75*G03X41000Y26800I400J0D01*G01*
X42000Y27600D02*G75*G02X42400Y27200I0J-400D01*G01*
G75*G02X42000Y26800I-400J0D01*G01*
X52600Y27200D02*G75*G02X53000Y27600I400J0D01*G01*
X52600Y27200D02*G75*G03X53000Y26800I400J0D01*G01*
X54000Y27600D02*G75*G02X54400Y27200I0J-400D01*G01*
G75*G02X54000Y26800I-400J0D01*G01*
M02*
